<?xml version="1.0" encoding="UTF-8"?>
<svg version="1.1" xmlns="http://www.w3.org/2000/svg" width="360" height="360">
<path d="M0 0 C3.72109898 0.00458437 7.44218031 -0.00248819 11.1632756 -0.00795984 C18.42385493 -0.01679019 25.6843926 -0.01496117 32.94497348 -0.00913456 C38.84737419 -0.00459593 44.74976333 -0.00401461 50.65216529 -0.00618219 C51.4959643 -0.00648866 52.3397633 -0.00679513 53.20913197 -0.00711088 C54.92380751 -0.00775039 56.63848305 -0.00839882 58.35315859 -0.00905606 C74.37715939 -0.01473988 90.4011372 -0.00823055 106.42513423 0.00254467 C120.15783121 0.0114931 133.89049439 0.00991374 147.62319076 0.00070715 C163.60845147 -0.01000471 179.59369215 -0.01420612 195.57895595 -0.00806832 C197.28415537 -0.00743128 198.98935479 -0.00680253 200.69455421 -0.00618219 C201.53336006 -0.00587364 202.37216592 -0.00556509 203.23639013 -0.00524719 C209.13249028 -0.0035241 215.02857765 -0.00642671 220.92467582 -0.0111413 C228.10809407 -0.01675967 235.29146863 -0.01521297 242.47488189 -0.00457981 C246.13593398 0.00066176 249.7969133 0.00275936 253.45796478 -0.00387812 C257.43186855 -0.01097381 261.40565417 -0.00247893 265.37955368 0.00748205 C266.52809516 0.00302061 267.67663665 -0.00144083 268.85998243 -0.00603747 C279.53044043 0.04577435 288.07398219 0.78258018 296.07118881 8.26144934 C300.50166809 13.0417033 302.31582127 17.30411786 302.33861434 23.81580114 C302.3514093 25.47298918 302.3514093 25.47298918 302.36446273 27.16365576 C302.36355636 28.36591299 302.36264999 29.56817022 302.36171615 30.80685949 C302.36843338 32.08048849 302.3751506 33.35411749 302.38207138 34.6663413 C302.39970267 38.151692 302.40442532 41.63694445 302.40570295 45.12233543 C302.40712588 47.29985494 302.41139799 49.47734956 302.41669738 51.65486288 C302.43518284 59.25095469 302.4433692 66.8469764 302.44179428 74.44308996 C302.44059084 81.52611772 302.46173634 88.60884176 302.4932816 95.69179261 C302.51940696 101.77428247 302.53016327 107.85667283 302.52888346 113.9392184 C302.52837304 117.57172757 302.53410081 121.20396627 302.55523956 124.83641958 C302.57814657 128.88276862 302.56912425 132.92843256 302.55702865 136.97482824 C302.56826766 138.18113394 302.57950668 139.38743963 302.59108627 140.63030005 C302.58269729 141.72945242 302.57430831 142.82860479 302.56566513 143.96106482 C302.56675466 144.91784439 302.5678442 145.87462397 302.56896675 146.86039686 C302.07118881 149.26144934 302.07118881 149.26144934 300.60278404 151.03022337 C293.25369399 154.60440869 283.48650661 153.40263502 275.51033676 153.38843298 C274.14652492 153.38958677 272.7827134 153.39117602 271.41890252 153.39316022 C267.6904052 153.39731834 263.96193361 153.39527878 260.23343623 153.39217401 C256.20467652 153.38990567 252.17592115 153.39340671 248.14716232 153.39615393 C240.26123943 153.40059575 232.37532606 153.39964207 224.4894028 153.39674129 C218.07668446 153.39448038 211.66396878 153.39417772 205.25125015 153.3952651 C203.8807425 153.39549495 203.8807425 153.39549495 202.48254783 153.39572944 C200.62622915 153.39604918 198.76991046 153.3963734 196.91359177 153.39670204 C179.5137148 153.39955234 162.1138431 153.39627717 144.713967 153.39090167 C129.80130001 153.38643704 114.88864081 153.38720762 99.97597396 153.39182043 C82.64338613 153.39717929 65.31080293 153.39927454 47.97821438 153.39620817 C46.12760643 153.39588963 44.27699848 153.39557526 42.42639053 153.3952651 C41.51595418 153.39511083 40.60551783 153.39495655 39.66749249 153.3947976 C33.26847475 153.39393616 26.86945994 153.39538735 20.47044265 153.39774466 C12.66325372 153.40055755 4.85607483 153.39977316 -2.95111296 153.39446391 C-6.93041523 153.39184651 -10.90970079 153.39078837 -14.88900292 153.39411306 C-18.53960333 153.39711683 -22.19017171 153.39541602 -25.84076926 153.39013551 C-27.77031691 153.38850862 -29.69986682 153.39173243 -31.62941206 153.39519274 C-37.46749308 153.38221758 -43.29080168 153.26209342 -49.12061036 152.94101286 C-50.16541935 152.88415088 -51.21022835 152.82728889 -52.28669822 152.76870382 C-55.21432207 152.20663462 -56.20052029 151.6519367 -57.92881119 149.26144934 C-58.31192124 146.88998079 -58.31192124 146.88998079 -58.32322037 144.03267431 C-58.33457016 142.94916189 -58.34591996 141.86564947 -58.35761368 140.74930334 C-58.35468308 139.56020361 -58.35175248 138.37110388 -58.34873307 137.14597082 C-58.35720261 135.8936315 -58.36567215 134.64129217 -58.37439835 133.35100317 C-58.39381702 129.91242787 -58.399543 126.47439483 -58.39765084 123.03580117 C-58.39753115 120.16104684 -58.40609545 117.28634325 -58.41442835 114.41160303 C-58.43367888 107.62185272 -58.43654219 100.83222533 -58.42978776 94.0424552 C-58.42316363 87.05495306 -58.44594109 80.06798105 -58.48310149 73.08058637 C-58.51388907 67.07189594 -58.52514822 61.0633751 -58.52126467 55.05460745 C-58.5192044 51.47041748 -58.52456147 47.88663893 -58.54915726 44.30252409 C-58.57574329 40.295562 -58.56162809 36.28970144 -58.54404557 32.28268957 C-58.55730881 31.10775946 -58.57057206 29.93282934 -58.58423722 28.72229528 C-58.50069782 20.49974404 -56.9252714 13.25790955 -50.92881119 7.26144934 C-50.92881119 6.27144934 -50.92881119 5.28144934 -50.92881119 4.26144934 C-38.03498257 -3.69545925 -14.4388763 -0.02639295 0 0 Z M-31.92881119 14.26144934 C-32.41705465 21.00699828 -32.41705465 21.00699828 -29.92881119 26.26144934 C-26.95414687 27.25300411 -25.00562101 27.3904689 -21.90124714 27.39846373 C-20.85620552 27.40353827 -19.81116389 27.40861281 -18.73445433 27.41384113 C-17.5825278 27.41433889 -16.43060126 27.41483664 -15.24376786 27.41534948 C-14.02304469 27.41973174 -12.80232152 27.42411399 -11.54460675 27.42862904 C-8.15002512 27.43969946 -4.75548962 27.44624323 -1.36089659 27.45081019 C2.29765756 27.45676553 5.95619471 27.46837528 9.61473739 27.4791007 C18.45154139 27.50362207 27.288351 27.5182493 36.12517855 27.53116077 C38.61994417 27.5348722 41.11470923 27.53884545 43.6094743 27.54291344 C59.09451434 27.56814398 74.57955526 27.59020164 90.06461132 27.60264158 C93.65119512 27.60557136 97.2377789 27.60853302 100.82436264 27.61154699 C101.71581071 27.61229304 102.60725878 27.61303909 103.52572042 27.61380775 C117.97880738 27.62647165 132.43177161 27.65970926 146.88480114 27.70134883 C161.71519902 27.74372642 176.54553396 27.76733157 191.37599224 27.77256215 C199.70620646 27.77598048 208.0362287 27.78778552 216.36638343 27.82066488 C223.45781263 27.84860896 230.54901047 27.85968958 237.64049046 27.84846942 C241.26034306 27.84326863 244.87971075 27.84626044 248.49949348 27.87093496 C252.41958225 27.89743435 256.33900322 27.88541571 260.25916183 27.86945105 C261.40885765 27.88333313 262.55855346 27.89721522 263.74308854 27.91151798 C269.69665555 27.92769453 269.69665555 27.92769453 274.80944049 25.22344923 C276.59372616 21.57136433 276.59372616 21.57136433 276.07118881 14.26144934 C174.43118881 14.26144934 72.79118881 14.26144934 -31.92881119 14.26144934 Z M-41.92881119 16.26144934 C-45.45974704 20.3808745 -46.05487545 23.78658786 -46.04906571 29.10831213 C-46.05044037 30.0814385 -46.05181504 31.05456488 -46.05323136 32.05717993 C-46.04963608 33.11813375 -46.04604081 34.17908758 -46.04233658 35.27219152 C-46.04248261 36.39443624 -46.04262864 37.51668097 -46.04277909 38.6729331 C-46.04208206 42.3847498 -46.03429941 46.0965164 -46.02646744 49.80832434 C-46.02460252 52.38093555 -46.02317897 54.95354712 -46.02217972 57.52615881 C-46.01875084 63.60695668 -46.01086819 69.68773386 -46.00083023 75.76852393 C-45.98964904 82.69230349 -45.98415359 89.61608392 -45.9791348 96.53987026 C-45.96868504 110.78040628 -45.9510981 125.02092717 -45.92881119 139.26144934 C-44.27881119 139.26144934 -42.62881119 139.26144934 -40.92881119 139.26144934 C-40.91422867 138.2221427 -40.89964615 137.18283606 -40.88462174 136.11203527 C-40.82657938 132.25019719 -40.74934739 128.38893858 -40.66636002 124.52756262 C-40.63313849 122.85741101 -40.60509785 121.18714788 -40.58237565 119.51682043 C-40.54877785 117.11350571 -40.49646173 114.71121035 -40.44052994 112.30832434 C-40.43414002 111.5633872 -40.4277501 110.81845007 -40.42116654 110.05093908 C-40.30073177 105.789307 -39.79912 103.43296634 -36.92881119 100.26144934 C-36.92881119 99.60144934 -36.92881119 98.94144934 -36.92881119 98.26144934 C-28.83456959 94.82752866 -22.23365854 93.97201996 -13.49561417 94.01421118 C-12.35006605 94.01179676 -11.20451793 94.00938235 -10.02425623 94.00689477 C-6.18850939 94.00126256 -2.35292944 94.00991773 1.4828099 94.01852942 C4.23455164 94.0185636 6.98628831 94.01559738 9.73802841 94.01277685 C16.43711526 94.0077403 23.13615266 94.01337102 29.83523338 94.02262715 C37.64935815 94.03303336 45.46347235 94.03294031 53.27760275 94.03245457 C67.2346874 94.03195405 81.19174914 94.04110974 95.14882553 94.05563879 C108.66250165 94.06969883 122.17615761 94.07681068 135.68984115 94.0761466 C136.9361639 94.07608667 136.9361639 94.07608667 138.20766489 94.07602552 C139.03716712 94.07598517 139.86666934 94.07594481 140.72130799 94.07590324 C156.13556614 94.07521091 171.54981577 94.08112115 186.96407115 94.09005645 C192.39687586 94.09305825 197.82967899 94.09413431 203.26248443 94.09458876 C209.90104271 94.09527543 216.53958668 94.09980181 223.1781389 94.10892157 C226.5584477 94.1134974 229.93872317 94.11606124 233.31903732 94.11532736 C272.32674004 94.11006681 272.32674004 94.11006681 280.07118881 97.26144934 C281.32118881 99.01144934 281.32118881 99.01144934 282.07118881 101.26144934 C282.40811752 102.14139563 282.74504623 103.02134192 283.0921849 103.92795324 C284.19446558 107.68120521 284.39144735 110.93888874 284.48525131 114.84738684 C284.51430053 115.90006247 284.51430053 115.90006247 284.54393661 116.97400427 C284.6032645 119.19469933 284.64992798 121.41544757 284.69618881 123.63644934 C284.73441183 125.15079368 284.77346602 126.66511728 284.81337631 128.17941809 C284.90892615 131.87323765 284.99312818 135.56721404 285.07118881 139.26144934 C286.72118881 139.26144934 288.37118881 139.26144934 290.07118881 139.26144934 C290.14131917 124.24059054 290.1941967 109.21974445 290.22662532 94.19875669 C290.24208379 87.22399305 290.26315367 80.24933122 290.29750717 73.27463293 C290.33064096 66.54434956 290.34803971 59.81419386 290.35582054 53.08382559 C290.36136591 50.51538569 290.37219455 47.94695162 290.38837898 45.37855673 C290.41013844 41.78259 290.41315627 38.1870611 290.41176498 34.59103918 C290.42255081 33.52792517 290.43333663 32.46481115 290.44444931 31.36948156 C290.42169501 25.9386237 290.23628065 21.90809724 287.07118881 17.26144934 C286.41118881 16.93144934 285.75118881 16.60144934 285.07118881 16.26144934 C284.94163803 17.34812902 284.94163803 17.34812902 284.80947006 18.45676184 C283.86932261 24.92566626 282.90600621 28.77197604 278.07118881 33.26144934 C274.89695555 35.22058931 272.35894741 35.55176727 268.65545166 35.67096281 C267.57965968 35.70904779 266.50386771 35.74713276 265.39547598 35.78637183 C264.23789542 35.81672864 263.08031486 35.84708546 261.88765609 35.87836218 C260.07664456 35.93478567 260.07664456 35.93478567 258.22904694 35.99234903 C246.15521327 36.34158862 234.08568409 36.40279042 222.00771224 36.39084387 C219.64026507 36.39220434 217.27281812 36.39398786 214.90537155 36.39615393 C208.56417672 36.40065253 202.22299845 36.39897012 195.88180339 36.39577484 C191.89853675 36.39424957 187.91527241 36.39433999 183.93200576 36.3952651 C182.93097346 36.39549495 182.93097346 36.39549495 181.90971829 36.39572944 C180.55271238 36.39604927 179.19570647 36.39637348 177.83870056 36.39670204 C165.19663625 36.39953458 152.55457926 36.39630553 139.91251615 36.39090167 C129.14232394 36.38643983 118.37214253 36.38720882 107.60195053 36.39182043 C95.00226759 36.39721312 82.40259104 36.3992558 69.80290711 36.39620817 C68.45048304 36.39588972 67.09805898 36.39557535 65.74563491 36.3952651 C65.08075464 36.39511083 64.41587437 36.39495655 63.73084621 36.3947976 C59.1194157 36.3939461 54.5079895 36.3954163 49.8965596 36.39774466 C2.54091024 36.41793607 2.54091024 36.41793607 -14.55884421 35.98903394 C-16.44499619 35.94281258 -18.33142124 35.90816754 -20.21783173 35.87409163 C-25.79782979 35.69559841 -30.17221539 35.51380838 -34.92881119 32.26144934 C-39.14292817 27.46203833 -40.00783117 22.39323739 -40.92881119 16.26144934 C-41.25881119 16.26144934 -41.58881119 16.26144934 -41.92881119 16.26144934 Z M-29.92881119 104.26144934 C-30.58881119 105.91144934 -31.24881119 107.56144934 -31.92881119 109.26144934 C69.71118881 109.26144934 171.35118881 109.26144934 276.07118881 109.26144934 C274.73555265 104.31681299 274.73555265 104.31681299 272.07118881 103.26144934 C258.03333892 101.52001145 243.67087975 102.11313481 229.5609349 102.11618567 C226.78854384 102.11372943 224.01615521 102.10981392 221.24376571 102.10600805 C214.5284297 102.09775431 207.81310246 102.09495575 201.09776179 102.09439567 C195.64097222 102.09391865 190.18418551 102.09185468 184.72739685 102.08869505 C169.23616293 102.07990827 153.7449359 102.07527338 138.25369947 102.07602552 C137.00489233 102.07608546 137.00489233 102.07608546 135.73085678 102.0761466 C134.89729749 102.07618748 134.0637382 102.07622836 133.20491953 102.07627048 C119.66186616 102.07667794 106.11884046 102.06707834 92.5757951 102.05300824 C78.65015129 102.0386551 64.724521 102.03173724 50.79886961 102.03260201 C42.98810461 102.03293401 35.17736873 102.03018457 27.36661041 102.01942396 C20.72643285 102.01033369 14.08629768 102.0081321 7.44611661 102.01493338 C4.05911757 102.01820408 0.67219994 102.01823515 -2.71479142 102.00958014 C-6.38415613 102.00190452 -10.05330515 102.00647544 -13.72266495 102.01421118 C-15.33134208 102.00649583 -15.33134208 102.00649583 -16.97251773 101.99862462 C-17.95554004 102.00322342 -18.93856235 102.00782221 -19.95137322 102.01256037 C-21.22130228 102.01223432 -21.22130228 102.01223432 -22.51688647 102.01190168 C-25.39671825 102.30986093 -27.39491752 102.84120433 -29.92881119 104.26144934 Z M-31.92881119 118.26144934 C-31.92881119 120.57144934 -31.92881119 122.88144934 -31.92881119 125.26144934 C69.71118881 125.26144934 171.35118881 125.26144934 276.07118881 125.26144934 C276.07118881 122.95144934 276.07118881 120.64144934 276.07118881 118.26144934 C174.43118881 118.26144934 72.79118881 118.26144934 -31.92881119 118.26144934 Z M-31.92881119 134.26144934 C-31.92881119 135.91144934 -31.92881119 137.56144934 -31.92881119 139.26144934 C69.71118881 139.26144934 171.35118881 139.26144934 276.07118881 139.26144934 C276.07118881 137.61144934 276.07118881 135.96144934 276.07118881 134.26144934 C174.43118881 134.26144934 72.79118881 134.26144934 -31.92881119 134.26144934 Z " fill="#1B1B1B" transform="translate(57.92881119251251,51.738550662994385)"/>
<path d="M0 0 C3.25696479 0.41755959 4.63443291 0.63443291 7 3 C6.72133982 6.15814868 5.79499522 8.43461014 4.4375 11.3125 C1.57785885 18.89054904 1.61391634 28.04521084 4.27734375 35.64453125 C5.28996891 37.77129166 6.35617104 39.87401117 7.4921875 41.9375 C10.56708724 48.18289221 11.39009625 54.40795297 11.375 61.3125 C11.37411377 62.04871582 11.37322754 62.78493164 11.37231445 63.54345703 C11.22404725 70.42997943 10.03644178 77.32558242 5.53125 82.77734375 C3.36600664 84.50622429 1.68615513 84.21779636 -1 84 C-3.19722922 79.61322418 -3.19722922 79.61322418 -2.3203125 76.88671875 C-1.92585937 76.16097656 -1.53140625 75.43523437 -1.125 74.6875 C2.36215175 66.65033176 2.57583425 57.6138846 -0.24609375 49.3515625 C-1.29092115 47.0326189 -2.36139355 44.72506148 -3.45703125 42.4296875 C-8.12673446 32.04994213 -8.93807487 21.98187097 -6 11 C-2.68432203 2.68432203 -2.68432203 2.68432203 0 0 Z " fill="#222222" transform="translate(178,223)"/>
<path d="M0 0 C3.29714793 0.32971479 4.6226839 0.6226839 7 3 C6.72030641 6.16986072 5.77950346 8.47627254 4.4375 11.375 C1.26519045 19.73979632 1.86780018 29.23676659 5.3125 37.375 C6.18962463 39.2588245 7.08379555 41.13486951 8 43 C12.72705756 52.97113705 12.79783349 66.10679606 9.125 76.4375 C7.94150955 79.2384274 6.69794936 81.45307597 5 84 C2.5 84.3125 2.5 84.3125 0 84 C-0.66 83.34 -1.32 82.68 -2 82 C-1.71677619 78.38889646 -1.05279424 75.17031704 0.01953125 71.7109375 C2.62243354 61.85931529 1.63032767 52.89828361 -2.69140625 43.77734375 C-8.46264361 31.52853849 -8.53313767 20.8707158 -5 8 C-3.57367664 4.79452593 -2.47754417 2.47754417 0 0 Z " fill="#212121" transform="translate(214,223)"/>
<path d="M0 0 C4.875 0.875 4.875 0.875 6 2 C5.41065831 9.07210031 5.41065831 9.07210031 3.9765625 12.3125 C0.93733601 20.6764513 2.51192014 31.02724602 6 39 C6.71105685 40.7697415 7.41933171 42.54060297 8.125 44.3125 C8.45757812 45.11300781 8.79015625 45.91351563 9.1328125 46.73828125 C12.93150027 56.64566962 12.09247855 69.31825676 8 79 C7.3503125 80.546875 7.3503125 80.546875 6.6875 82.125 C5 84 5 84 1.8125 84.3125 C0.884375 84.209375 -0.04375 84.10625 -1 84 C-3.19674049 79.62188085 -3.19674049 79.62188085 -2.3203125 76.8515625 C-1.92585937 76.11679687 -1.53140625 75.38203125 -1.125 74.625 C2.54230555 66.25506115 2.33194224 56.79872074 -0.75 48.25 C-1.82641959 45.62814943 -2.97571742 43.05299509 -4.15625 40.4765625 C-8.37131176 30.45073702 -8.76202659 18.99704195 -5.1875 8.6875 C-3.84192092 5.40346216 -2.21365432 2.77182503 0 0 Z " fill="#202020" transform="translate(142,223)"/>
<path d="M0 0 C1.77206192 0.00015919 3.54412846 0.00585754 5.31616211 0.01586914 C6.24698105 0.01728409 7.17779999 0.01869904 8.13682556 0.02015686 C11.12241777 0.02577367 14.10793615 0.03832899 17.09350586 0.05102539 C19.11238499 0.05603823 21.13126529 0.06060151 23.15014648 0.06469727 C28.11046158 0.07574856 33.07072118 0.09302444 38.03100586 0.11352539 C38.69100586 1.76352539 39.35100586 3.41352539 40.03100586 5.11352539 C38.36450614 7.37811179 37.00798595 8.91392177 34.18014526 9.4916687 C31.85001106 9.62648306 29.54849023 9.64147601 27.21459961 9.60961914 C26.36172867 9.61107437 25.50885773 9.6125296 24.63014221 9.61402893 C22.83054176 9.61237157 21.0309269 9.60082838 19.23144531 9.58007812 C16.47456838 9.55108914 13.71961069 9.55947854 10.96264648 9.57250977 C9.21328817 9.56627318 7.46393593 9.55788286 5.71459961 9.54711914 C4.47703163 9.5515226 4.47703163 9.5515226 3.21446228 9.55601501 C-2.52021992 9.46126139 -2.52021992 9.46126139 -4.72569275 7.75233459 C-5.96899414 6.11352539 -5.96899414 6.11352539 -5.71899414 3.48852539 C-4.48837971 -0.40842029 -4.47269192 0.12793269 0 0 Z " fill="#1B1B1B" transform="translate(162.968994140625,129.886474609375)"/>
<path d="M0 0 C34.65 0 69.3 0 105 0 C105 0.99 105 1.98 105 3 C74.97 3 44.94 3 14 3 C14 2.34 14 1.68 14 1 C9.38 1 4.76 1 0 1 C0 0.67 0 0.34 0 0 Z " fill="#6C6C6C" transform="translate(180,145)"/>
<path d="M0 0 C0.70298721 -0.00014603 1.40597443 -0.00029205 2.13026428 -0.0004425 C4.44063463 0.00025098 6.75092313 0.00801682 9.0612793 0.01586914 C10.66839046 0.01773533 12.2755022 0.01915828 13.88261414 0.02015686 C18.10268742 0.02396624 22.32272602 0.033783 26.54278564 0.04486084 C30.85298188 0.05510896 35.16318375 0.05966176 39.47338867 0.06469727 C47.92327434 0.07540672 56.37313187 0.09246412 64.82299805 0.11352539 C60.96013275 2.68876892 57.63527718 2.57910083 53.13549805 2.73852539 C51.74741943 2.79435791 51.74741943 2.79435791 50.33129883 2.85131836 C39.95719232 3.20522201 29.57704702 3.22028807 19.19799805 3.23852539 C18.33123444 3.24120422 17.46447083 3.24388306 16.57144165 3.24664307 C6.93944602 3.26917405 -2.58897091 3.17083401 -12.17700195 2.11352539 C-12.17700195 1.78352539 -12.17700195 1.45352539 -12.17700195 1.11352539 C-8.06459173 0.12542495 -4.22353838 -0.00739674 0 0 Z " fill="#636363" transform="translate(40.177001953125,144.886474609375)"/>
<path d="M0 0 C1.2684375 0.12375 1.2684375 0.12375 2.5625 0.25 C4.5625 3.25 4.5625 3.25 4.1875 5.9375 C3.98125 6.700625 3.775 7.46375 3.5625 8.25 C1.25 8.9375 1.25 8.9375 -1.4375 9.25 C-3.3125 8.125 -3.3125 8.125 -4.4375 6.25 C-3.88016338 0.39796547 -3.88016338 0.39796547 0 0 Z " fill="#3D3D3D" transform="translate(299.4375,129.75)"/>
<path d="M0 0 C2.5625 0.1875 2.5625 0.1875 4.5625 2.1875 C4.1875 5.3125 4.1875 5.3125 3.5625 8.1875 C1.8125 8.875 1.8125 8.875 -0.4375 9.1875 C-2.6875 7.75 -2.6875 7.75 -4.4375 6.1875 C-3.3735 0.2595 -3.3735 0.2595 0 0 Z " fill="#373737" transform="translate(317.4375,129.8125)"/>
<path d="M0 0 C1.77206192 0.00015919 3.54412846 0.00585754 5.31616211 0.01586914 C6.24698105 0.01728409 7.17779999 0.01869904 8.13682556 0.02015686 C11.12241777 0.02577367 14.10793615 0.03832899 17.09350586 0.05102539 C19.11238499 0.05603823 21.13126529 0.06060151 23.15014648 0.06469727 C28.11046158 0.07574856 33.07072118 0.09302444 38.03100586 0.11352539 C33.96825326 2.38662874 30.46062669 2.30631832 25.90600586 2.16821289 C24.29663935 2.14292698 22.68726391 2.11820457 21.07788086 2.09399414 C18.54960089 2.04431393 16.02178814 1.98828235 13.49389648 1.92163086 C11.04790282 1.86119483 8.60250813 1.82567996 6.15600586 1.79321289 C5.02461182 1.75283401 5.02461182 1.75283401 3.87036133 1.7116394 C0.21813003 1.67675773 -1.58480759 1.80406672 -4.47680664 4.13354492 C-4.96922852 4.78693848 -5.46165039 5.44033203 -5.96899414 6.11352539 C-4.89683449 0.14006447 -4.89683449 0.14006447 0 0 Z " fill="#4A4A4A" transform="translate(162.968994140625,129.886474609375)"/>
<path d="M0 0 C0 0.99 0 1.98 0 3 C-9.24 3 -18.48 3 -28 3 C-28 2.34 -28 1.68 -28 1 C-18.62895894 0.11504503 -9.40228594 -0.1170409 0 0 Z " fill="#5C5C5C" transform="translate(285,145)"/>
<path d="M0 0 C0.33 0 0.66 0 1 0 C1 4.29 1 8.58 1 13 C0.67 13 0.34 13 0 13 C0 8.71 0 4.42 0 0 Z " fill="#FFFFFF" transform="translate(13,106)"/>
<path d="M0 0 C0.33 0.66 0.66 1.32 1 2 C0.34 1.67 -0.32 1.34 -1 1 C-0.67 0.67 -0.34 0.34 0 0 Z " fill="#F4F4F4" transform="translate(5,58)"/>
<path d="M0 0 C2 1 2 1 2 1 Z " fill="#FFFFFF" transform="translate(0,203)"/>
<path d="" fill="#FFFFFF" transform="translate(0,0)"/>
</svg>
