<?xml version="1.0" encoding="UTF-8"?>
<svg version="1.1" xmlns="http://www.w3.org/2000/svg" width="662" height="377">
<path d="M0 0 C1.67352539 -0.02416992 1.67352539 -0.02416992 3.38085938 -0.04882812 C10.46225247 -0.05297657 16.43450865 0.81445168 23.0625 3.3125 C24.0628125 3.68890625 25.063125 4.0653125 26.09375 4.453125 C39.70908505 10.57140847 55.01240209 21.42991667 61.05859375 35.65625 C61.73985974 37.4588215 62.3860214 39.27497616 63 41.1015625 C64.90895509 46.67662006 64.90895509 46.67662006 69.15625 50.375 C70.8231944 50.76467531 72.49723641 51.12472672 74.17578125 51.4609375 C82.49529987 53.9151392 91.86149658 61.48500097 97.0625 68.3125 C97.0625 68.9725 97.0625 69.6325 97.0625 70.3125 C98.0525 70.6425 99.0425 70.9725 100.0625 71.3125 C103.30017415 74.88643111 105.36561232 78.82786829 107.0625 83.3125 C107.54074219 83.92480469 108.01898438 84.53710938 108.51171875 85.16796875 C113.21431365 91.67105338 113.42182492 99.58701424 113.0625 107.3125 C101.53692644 108.48914875 90.04947138 108.4762179 78.4765625 108.48046875 C76.40440855 108.48368835 74.33225481 108.48705293 72.26010132 108.49055481 C67.94178744 108.49650758 63.62349347 108.49839839 59.30517578 108.49780273 C53.78076332 108.49770062 48.25647796 108.51142038 42.73209572 108.52857494 C38.46324071 108.53969908 34.19441658 108.54172191 29.92554855 108.54119301 C27.88825411 108.54236989 25.85095878 108.54677522 23.81367874 108.55452538 C20.96895631 108.56434589 18.12451227 108.56144046 15.27978516 108.55541992 C14.0297168 108.56384918 14.0297168 108.56384918 12.75439453 108.57244873 C7.81435406 108.54594343 3.74998564 107.89131146 -0.9375 106.3125 C-2.08324247 93.02188738 4.16611498 81.57119268 12.0625 71.3125 C13.03691815 70.28755646 14.03316932 69.28228263 15.0625 68.3125 C15.908125 67.425625 16.75375 66.53875 17.625 65.625 C20.0625 63.3125 20.0625 63.3125 22.0625 63.3125 C22.0625 62.6525 22.0625 61.9925 22.0625 61.3125 C22.7225 61.3125 23.3825 61.3125 24.0625 61.3125 C24.0625 60.6525 24.0625 59.9925 24.0625 59.3125 C26.16269014 57.83940889 28.24017729 56.49940365 30.4375 55.1875 C31.04078125 54.81496094 31.6440625 54.44242188 32.265625 54.05859375 C36.79215316 51.3125 36.79215316 51.3125 39.0625 51.3125 C38.464375 50.425625 37.86625 49.53875 37.25 48.625 C35.0625 45.3125 35.0625 45.3125 33.8125 42.875 C30.27743685 37.69865753 25.18985502 33.0358186 19.0625 31.3125 C19.0625 30.6525 19.0625 29.9925 19.0625 29.3125 C4.06333953 25.62418185 -9.31349425 25.0907809 -23.26953125 32.66796875 C-28.81695407 36.08739043 -32.87123623 39.48659884 -35.9375 45.3125 C-36.41386776 45.88016555 -36.89023552 46.4478311 -37.38103867 47.03269863 C-43.36976 55.80458059 -43.52482801 68.49988638 -43.48339844 78.68334961 C-43.49216493 80.04516257 -43.5026612 81.4069653 -43.51472473 82.76875305 C-43.54223008 86.41246106 -43.54599742 90.05582718 -43.54500484 93.69962382 C-43.54816498 97.52732775 -43.57384658 101.35488448 -43.59698486 105.18251038 C-43.63731365 112.40686637 -43.65783069 119.63113265 -43.67095876 126.85558373 C-43.68690784 135.09043753 -43.72535604 143.32514032 -43.76555204 151.55990589 C-43.84763396 168.47739199 -43.90192333 185.39485341 -43.9375 202.3125 C-43.00606612 202.31079126 -43.00606612 202.31079126 -42.0558154 202.309048 C-5.28025964 202.24196255 31.49528709 202.19046503 68.27089148 202.15930401 C72.68327997 202.15555174 77.09566833 202.15166879 81.50805664 202.14770508 C82.82573736 202.14652468 82.82573736 202.14652468 84.17003789 202.14532044 C98.40732169 202.13225459 112.64456927 202.10859428 126.88183156 202.08104161 C141.48273402 202.05302016 156.08361746 202.03633066 170.6845457 202.03023452 C179.69934515 202.02611129 188.71404225 202.01307288 197.72881021 201.9887506 C203.90452309 201.97293362 210.0801828 201.96809044 216.25591449 201.97199587 C219.82285077 201.97392374 223.38960778 201.97089935 226.95651245 201.95488358 C230.81786209 201.93767166 234.67897555 201.94350974 238.5403595 201.95173645 C239.67555977 201.94299793 240.81076005 201.9342594 241.98036033 201.92525607 C243.5254975 201.93421579 243.5254975 201.93421579 245.10184956 201.94335651 C245.99381261 201.94221735 246.88577567 201.94107819 247.80476791 201.93990451 C250.52900956 202.38948848 251.41119138 203.13905047 253.0625 205.3125 C256.35978351 221.47565446 246.60513155 246.30612233 237.9375 259.5625 C237.31875 260.47 236.7 261.3775 236.0625 262.3125 C235.35413022 263.98682857 234.64682599 265.66168367 233.95703125 267.34375 C226.69628292 283.32373759 213.96413601 297.61987427 202.0625 310.3125 C201.59215332 310.8168457 201.12180664 311.32119141 200.63720703 311.84082031 C192.57235192 320.42000901 183.97463072 327.91385417 174.0625 334.3125 C173.4025 334.3125 172.7425 334.3125 172.0625 334.3125 C173.16745875 337.62737625 173.96685968 338.27533765 176.625 340.375 C178.56640625 341.91015625 178.56640625 341.91015625 180.0625 343.3125 C180.0625 343.9725 180.0625 344.6325 180.0625 345.3125 C180.660625 345.333125 181.25875 345.35375 181.875 345.375 C184.0625 346.3125 184.0625 346.3125 185.8125 349.1875 C188.06107439 355.19193491 188.15644161 362.26135797 185.8125 368.25 C182.98824548 373.1924454 180.43887298 375.50768358 175.0625 377.3125 C168.72037034 378.16688016 162.81904811 378.38012272 157.3125 374.8125 C155.86371666 373.68596443 154.4474267 372.5166734 153.0625 371.3125 C152.27875 370.65121094 151.495 369.98992187 150.6875 369.30859375 C146.64226481 365.8022797 142.846909 362.096909 139.0625 358.3125 C137.6703125 357.2296875 137.6703125 357.2296875 136.25 356.125 C135.528125 355.526875 134.80625 354.92875 134.0625 354.3125 C134.0625 353.6525 134.0625 352.9925 134.0625 352.3125 C127.27190193 351.43265072 120.65011027 351.16939372 113.80712891 351.18310547 C112.71823364 351.18135315 111.62933838 351.17960083 110.50744629 351.17779541 C106.93463514 351.17342001 103.36187409 351.17629841 99.7890625 351.1796875 C97.29804474 351.17901352 94.80702705 351.1780427 92.31600952 351.17678833 C87.10959239 351.17531746 81.90319247 351.17744739 76.69677734 351.18212891 C71.34650456 351.18670486 65.99626808 351.18695565 60.64599609 351.18212891 C54.17768113 351.17634393 47.70938646 351.1754172 41.24106979 351.17868423 C38.77622854 351.17935222 36.31138642 351.17852954 33.84654617 351.17620468 C30.41150853 351.17367413 26.97653663 351.1775237 23.54150391 351.18310547 C22.51914642 351.18108124 21.49678894 351.17905701 20.44345093 351.17697144 C19.50994812 351.17979126 18.57644531 351.18261108 17.61465454 351.18551636 C16.80318277 351.18589338 15.99171101 351.18627041 15.15564919 351.18665886 C12.86795717 351.23361133 12.86795717 351.23361133 10.0625 352.3125 C9.7325 353.3025 9.4025 354.2925 9.0625 355.3125 C7.390625 356.99609375 7.390625 356.99609375 5.3125 358.75 C4.22775391 359.67232422 4.22775391 359.67232422 3.12109375 360.61328125 C1.55422709 361.90661521 -0.0313069 363.17737057 -1.625 364.4375 C-4.01978379 366.29569733 -4.01978379 366.29569733 -6.1875 368.6875 C-12.0148677 374.24998735 -16.35733754 377.68999761 -24.6875 377.8125 C-30.35949913 377.64809423 -34.23772625 376.7355664 -38.625 373.0625 C-43.00745936 367.85092671 -43.36382169 362.68911555 -43.2734375 356.08203125 C-42.75866942 351.83818743 -41.13442588 348.95115849 -38.9375 345.3125 C-37.9475 345.3125 -36.9575 345.3125 -35.9375 345.3125 C-35.710625 344.735 -35.48375 344.1575 -35.25 343.5625 C-33.60711977 340.7461339 -31.54216773 339.23172886 -28.9375 337.3125 C-29.60618314 334.19917752 -29.60618314 334.19917752 -32 333.125 C-32.639375 332.856875 -33.27875 332.58875 -33.9375 332.3125 C-33.9375 331.6525 -33.9375 330.9925 -33.9375 330.3125 C-34.49953125 330.05855469 -35.0615625 329.80460937 -35.640625 329.54296875 C-40.17399642 327.11437692 -43.98985637 323.58136328 -47.9375 320.3125 C-48.65808594 319.71824219 -49.37867188 319.12398438 -50.12109375 318.51171875 C-54.17849437 315.07123284 -57.76000007 311.43172802 -61.1953125 307.37109375 C-63.61411155 304.51300608 -66.13797395 301.75065841 -68.65234375 298.9765625 C-69.9375 297.3125 -69.9375 297.3125 -69.9375 295.3125 C-70.5975 295.3125 -71.2575 295.3125 -71.9375 295.3125 C-72.97517013 293.66902245 -73.96674524 291.99636845 -74.9375 290.3125 C-76.37735239 288.3819114 -77.83703061 286.46600658 -79.3125 284.5625 C-84.44610898 277.77315651 -88.24821466 270.7501355 -91.97265625 263.13671875 C-93.0139915 261.07886594 -93.0139915 261.07886594 -94.9375 258.4375 C-103.63061271 244.85451139 -111.47891952 221.49013825 -108.9375 205.3125 C-107.92529297 203.6862793 -107.92529297 203.6862793 -105.9375 202.3125 C-103.13760871 202.05090678 -100.56522071 201.96345662 -97.76953125 202.01953125 C-96.97471848 202.02377609 -96.1799057 202.02802094 -95.36100769 202.03239441 C-92.82365979 202.0491807 -90.28710762 202.08683176 -87.75 202.125 C-86.02930835 202.14004695 -84.30860424 202.15373534 -82.58789062 202.16601562 C-78.37078738 202.19908393 -74.15427858 202.25086505 -69.9375 202.3125 C-69.93934359 201.62357572 -69.94118717 200.93465143 -69.94308662 200.22485065 C-69.98737645 183.41306384 -70.02041024 166.60129566 -70.04112434 149.789464 C-70.05140939 141.65918181 -70.06541631 133.52893872 -70.08837891 125.39868164 C-70.10839809 118.30716492 -70.12123655 111.21567653 -70.12567699 104.12413234 C-70.12827002 100.37393126 -70.13430603 96.6238112 -70.14896011 92.87363625 C-70.16267927 89.33355981 -70.16669416 85.79359667 -70.16371536 82.25349617 C-70.1645157 80.35588245 -70.17520149 78.45828066 -70.18634033 76.56069946 C-70.13548275 55.06219328 -64.82223238 36.89179117 -50.3828125 20.60546875 C-48.9375 19.3125 -48.9375 19.3125 -46.9375 19.3125 C-46.69644531 18.72210937 -46.45539063 18.13171875 -46.20703125 17.5234375 C-41.54269831 9.4003223 -28.53472815 4.34095571 -19.98657227 1.71264648 C-13.36101932 0.0164385 -6.80701182 -0.01959416 0 0 Z " fill="#040404" transform="translate(258.9375,-0.3125)"/>
<path d="M0 0 C0.33 0.66 0.66 1.32 1 2 C0.34 2 -0.32 2 -1 2 C-1.21398437 2.54140625 -1.42796875 3.0828125 -1.6484375 3.640625 C-3.48077943 6.8392797 -5.99796606 9.20964484 -8.625 11.75 C-9.140625 12.25660156 -9.65625 12.76320313 -10.1875 13.28515625 C-11.45383339 14.52803902 -12.7263144 15.76465276 -14 17 C-14 13.25983417 -13.0658409 12.54723807 -10.625 9.8125 C-9.68527344 8.73935547 -9.68527344 8.73935547 -8.7265625 7.64453125 C-7 6 -7 6 -5 6 C-4.731875 5.38125 -4.46375 4.7625 -4.1875 4.125 C-3 2 -3 2 0 0 Z " fill="#585858" transform="translate(217,13)"/>
</svg>
