<?xml version="1.0" encoding="UTF-8"?>
<svg version="1.1" xmlns="http://www.w3.org/2000/svg" width="300" height="300">
<path d="M0 0 C0.83322784 -0.00992981 1.66645569 -0.01985962 2.52493286 -0.03009033 C5.27422427 -0.05923437 8.02328474 -0.07292204 10.77270508 -0.08398438 C12.69216412 -0.09549738 14.61162314 -0.10701271 16.53108215 -0.11853027 C20.55507473 -0.13952336 24.57898774 -0.15122559 28.60302734 -0.15820312 C33.73992075 -0.16915426 38.87574897 -0.21717829 44.01230907 -0.27414703 C47.97851044 -0.31154401 51.94445919 -0.32181863 55.91082191 -0.32487488 C57.80334597 -0.33089886 59.69586712 -0.3468574 61.58821678 -0.37324524 C80.06851103 -0.6125044 80.06851103 -0.6125044 86.67993164 4.42153931 C93.87662519 11.52820572 95.24683284 17.93158867 95.40620136 27.74865532 C95.41296848 30.44290276 95.39126112 33.13594909 95.36645508 35.83007812 C95.36795982 37.72476442 95.37139554 39.61945007 95.37666321 41.51412964 C95.38097865 45.46986122 95.364275 49.42477302 95.33203125 53.38037109 C95.29219731 58.43551256 95.30158335 63.48912276 95.32626629 68.54431343 C95.34048539 72.45132885 95.33033505 76.3579899 95.31275368 80.26498032 C95.30692959 82.12838773 95.30816801 83.9918318 95.31677818 85.85522842 C95.32482108 88.4637065 95.30039955 91.06997927 95.26757812 93.67822266 C95.28040329 94.81775894 95.28040329 94.81775894 95.29348755 95.98031616 C95.14712373 102.76131811 92.2086863 107.29115082 87.86645508 112.34570312 C87.34696289 112.79171875 86.8274707 113.23773438 86.29223633 113.69726562 C85.78047852 114.15875 85.2687207 114.62023437 84.74145508 115.09570312 C78.57042535 118.63812239 71.62399104 118.60899599 64.71630859 118.56518555 C63.76089676 118.56708389 62.80548492 118.56898224 61.82112122 118.57093811 C58.68770949 118.57461989 55.55453342 118.56398324 52.42114258 118.55273438 C50.23778816 118.55154155 48.05443322 118.55108963 45.87107849 118.55134583 C41.30936442 118.54978574 36.74772936 118.54152866 32.18603516 118.52807617 C26.32573881 118.51101637 20.46552858 118.50726409 14.6052103 118.50802135 C10.10411246 118.50775023 5.60303361 118.50227941 1.10194206 118.49501991 C-1.06032225 118.49182946 -3.22258873 118.48986496 -5.38485527 118.48912621 C-8.39414058 118.48697062 -11.40333229 118.47824552 -14.41259766 118.4675293 C-15.76291077 118.46820908 -15.76291077 118.46820908 -17.14050293 118.46890259 C-23.28078312 118.43674618 -23.28078312 118.43674618 -24.39526367 117.32226562 C-24.51195962 114.22923608 -24.56330307 111.15825357 -24.57226562 108.06420898 C-24.57883682 107.09180267 -24.58540802 106.11939636 -24.59217834 105.11752319 C-24.61197242 101.88238456 -24.6235901 98.64729256 -24.63354492 95.41210938 C-24.63762045 94.30872286 -24.64169598 93.20533634 -24.645895 92.06851387 C-24.66678601 86.22381907 -24.68107218 80.37914794 -24.69042969 74.53442383 C-24.70147487 68.50071497 -24.73584453 62.46737687 -24.77560139 56.43379879 C-24.80177737 51.7934349 -24.81012263 47.15315897 -24.81371117 42.51272774 C-24.81857789 40.28923615 -24.83019428 38.06574852 -24.84874916 35.84232903 C-24.87315113 32.72328503 -24.87217282 29.60519463 -24.86523438 26.48608398 C-24.87804443 25.57199265 -24.89085449 24.65790131 -24.90405273 23.71611023 C-24.8484234 16.8313045 -23.18968798 11.56054703 -18.64916992 6.29882812 C-18.09100586 5.8528125 -17.5328418 5.40679687 -16.95776367 4.94726562 C-16.40217773 4.48578125 -15.8465918 4.02429688 -15.27416992 3.54882812 C-10.35539077 0.33781637 -5.75035605 0.01648592 0 0 Z " fill="#083983" transform="translate(115.395263671875,74.677734375)"/>
<path d="M0 0 C0.80373047 -0.00064453 1.60746094 -0.00128906 2.43554688 -0.00195312 C3.26763672 0.01802734 4.09972656 0.03800781 4.95703125 0.05859375 C5.76978516 0.05150391 6.58253906 0.04441406 7.41992188 0.03710938 C13.55928851 0.10060322 20.62610128 0.69596872 25.39916992 4.94775391 C28.68621264 8.8116249 29.9958848 11.19590099 29.64453125 16.18359375 C29.07238465 21.58371717 27.24363638 24.39843129 23.76953125 28.49609375 C24.53265625 28.72296875 25.29578125 28.94984375 26.08203125 29.18359375 C29.51209721 30.85874224 30.33933003 31.95822758 31.76953125 35.49609375 C32.53342348 41.16773198 32.0564483 45.67528207 28.76953125 50.49609375 C22.96483263 56.30079237 17.76932156 57.59203711 9.8359375 57.69140625 C7.66788212 57.67822658 5.49986863 57.65454406 3.33203125 57.62109375 C2.21892578 57.61207031 1.10582031 57.60304687 -0.04101562 57.59375 C-2.77105898 57.57031615 -5.50064885 57.53750775 -8.23046875 57.49609375 C-8.3318161 50.0214393 -8.40191225 42.54696175 -8.45019531 35.07177734 C-8.47032147 32.52841572 -8.49762512 29.98510042 -8.53222656 27.44189453 C-8.58069845 23.78796971 -8.60342791 20.13465619 -8.62109375 16.48046875 C-8.64173889 15.34180359 -8.66238403 14.20313843 -8.68365479 13.02996826 C-8.68395691 11.96917053 -8.68425903 10.9083728 -8.68457031 9.81542969 C-8.69345276 8.88277283 -8.70233521 7.95011597 -8.71148682 6.98919678 C-7.79534128 2.2408404 -4.70119876 -0.01213689 0 0 Z " fill="#F6F9FB" transform="translate(131.23046875,104.50390625)"/>
<path d="M0 0 C2.1875 1.1875 2.1875 1.1875 4.1875 4.1875 C4.15606707 6.92740408 3.63271663 9.47167854 3.1875 12.1875 C3.8475 12.5175 4.5075 12.8475 5.1875 13.1875 C5.8371875 12.011875 5.8371875 12.011875 6.5 10.8125 C8.1875 8.1875 8.1875 8.1875 11.1875 6.1875 C18.25861756 5.51406023 18.25861756 5.51406023 21.6875 8 C23.1875 10.1875 23.1875 10.1875 23.1875 13.1875 C23.8475 13.1875 24.5075 13.1875 25.1875 13.1875 C25.27 12.589375 25.3525 11.99125 25.4375 11.375 C26.44884211 8.42525219 27.43162147 7.63796238 30.1875 6.1875 C34.24754538 5.67076695 36.44948077 5.78640259 40.0625 7.75 C42.85355308 10.95150206 43.1875 12.96855729 43.1875 17.1875 C41.59911066 20.76137602 40.47115642 21.99839572 37.1875 24.1875 C33.01487663 24.65112482 30.90035629 24.6369094 27.3125 22.375 C25.1875 20.1875 25.1875 20.1875 24.1875 17.1875 C23.754375 17.97125 23.32125 18.755 22.875 19.5625 C21.1875 22.1875 21.1875 22.1875 18.1875 24.1875 C13.97571757 24.65547583 11.90150886 24.65315795 8.3125 22.3125 C6.1875 20.1875 6.1875 20.1875 5.1875 18.1875 C4.960625 18.80625 4.73375 19.425 4.5 20.0625 C2.68543406 23.00036867 1.5485164 23.3472459 -1.8125 24.1875 C-5.1125 24.1875 -8.4125 24.1875 -11.8125 24.1875 C-11.8125 16.2675 -11.8125 8.3475 -11.8125 0.1875 C-8.03551733 -1.70099133 -3.95947982 -1.14384973 0 0 Z M-6.8125 4.1875 C-6.8125 5.8375 -6.8125 7.4875 -6.8125 9.1875 C-5.1625 9.1875 -3.5125 9.1875 -1.8125 9.1875 C-1.8125 7.5375 -1.8125 5.8875 -1.8125 4.1875 C-3.4625 4.1875 -5.1125 4.1875 -6.8125 4.1875 Z M11.1875 12.1875 C11.02083333 15.1875 11.02083333 15.1875 11.1875 18.1875 C12.2470877 19.47072547 12.2470877 19.47072547 14.6875 19.3125 C17.1279123 19.47072547 17.1279123 19.47072547 18.1875 18.1875 C18.35416667 15.1875 18.35416667 15.1875 18.1875 12.1875 C17.1279123 10.90427453 17.1279123 10.90427453 14.6875 11.0625 C12.2470877 10.90427453 12.2470877 10.90427453 11.1875 12.1875 Z M30.1875 12.1875 C30.02083333 15.1875 30.02083333 15.1875 30.1875 18.1875 C31.2470877 19.47072547 31.2470877 19.47072547 33.6875 19.3125 C36.1279123 19.47072547 36.1279123 19.47072547 37.1875 18.1875 C37.35416667 15.1875 37.35416667 15.1875 37.1875 12.1875 C36.1279123 10.90427453 36.1279123 10.90427453 33.6875 11.0625 C31.2470877 10.90427453 31.2470877 10.90427453 30.1875 12.1875 Z M-6.8125 13.1875 C-6.8125 15.1675 -6.8125 17.1475 -6.8125 19.1875 C-5.1625 19.1875 -3.5125 19.1875 -1.8125 19.1875 C-1.4825 17.5375 -1.1525 15.8875 -0.8125 14.1875 C-3.7825 13.6925 -3.7825 13.6925 -6.8125 13.1875 Z " fill="#1C3C78" transform="translate(69.8125,201.8125)"/>
<path d="M0 0 C2.97 0.495 2.97 0.495 6 1 C6.33 0.67 6.66 0.34 7 0 C8.99950636 -0.04443347 11.00038436 -0.03920815 13 0 C15.54200817 0 18.08450178 -0.03739661 20.625 -0.125 C24 0 24 0 26 2 C26.14507695 4.74485593 26.18652423 7.38480543 26.125 10.125 C26.11597656 10.87910156 26.10695312 11.63320312 26.09765625 12.41015625 C26.0740687 14.27357254 26.03819719 16.13682593 26 18 C24.35 17.67 22.7 17.34 21 17 C21 13.04 21 9.08 21 5 C19.02 5.99 19.02 5.99 17 7 C16.29626983 9.64787088 16.29626983 9.64787088 16.25 12.625 C16.19328125 13.62789062 16.1365625 14.63078125 16.078125 15.6640625 C16.05234375 16.43492187 16.0265625 17.20578125 16 18 C14.35 18 12.7 18 11 18 C10.67 14.04 10.34 10.08 10 6 C9.01 6 8.02 6 7 6 C6.93941406 6.69867188 6.87882813 7.39734375 6.81640625 8.1171875 C6.73261719 9.02726563 6.64882812 9.93734375 6.5625 10.875 C6.48128906 11.77992188 6.40007812 12.68484375 6.31640625 13.6171875 C6 16 6 16 5 18 C3.35 18 1.7 18 0 18 C0 12.06 0 6.12 0 0 Z " fill="#00A9EB" transform="translate(217,208)"/>
<path d="M0 0 C1.79244141 0.01740234 1.79244141 0.01740234 3.62109375 0.03515625 C5.41740234 0.04869141 5.41740234 0.04869141 7.25 0.0625 C8.17683594 0.07410156 9.10367188 0.08570313 10.05859375 0.09765625 C10.17497411 3.34735394 10.24589956 6.59651455 10.30859375 9.84765625 C10.34210938 10.76804688 10.375625 11.6884375 10.41015625 12.63671875 C10.50815084 19.39834523 10.50815084 19.39834523 8.37109375 22.72265625 C5.60038546 24.37010442 4.00799529 24.5160458 0.80859375 24.34765625 C-0.0834375 24.3115625 -0.97546875 24.27546875 -1.89453125 24.23828125 C-2.90773437 24.16867188 -2.90773437 24.16867188 -3.94140625 24.09765625 C-4.50390625 22.16015625 -4.50390625 22.16015625 -4.94140625 20.09765625 C-2.89442211 18.05067211 1.36270616 18.39719932 4.05859375 18.09765625 C4.05859375 17.76765625 4.05859375 17.43765625 4.05859375 17.09765625 C2.96546875 17.15953125 1.87234375 17.22140625 0.74609375 17.28515625 C-2.94140625 17.09765625 -2.94140625 17.09765625 -4.81640625 16.09765625 C-6.59885454 12.92885929 -7.08111654 9.6812252 -6.94140625 6.09765625 C-4.15170446 0.13783879 -4.15170446 0.13783879 0 0 Z M0.05859375 5.09765625 C-1.23774246 6.1641074 -1.23774246 6.1641074 -1.00390625 8.66015625 C-0.98328125 9.46453125 -0.96265625 10.26890625 -0.94140625 11.09765625 C0.71474032 11.47984392 2.38316399 11.81160727 4.05859375 12.09765625 C5.35492996 11.0312051 5.35492996 11.0312051 5.12109375 8.53515625 C5.10046875 7.73078125 5.07984375 6.92640625 5.05859375 6.09765625 C3.40244718 5.71546858 1.73402351 5.38370523 0.05859375 5.09765625 Z " fill="#1C3D79" transform="translate(162.94140625,207.90234375)"/>
<path d="M0 0 C0.95648438 -0.01675781 1.91296875 -0.03351563 2.8984375 -0.05078125 C6.07081496 0.37189941 7.42198709 1.00189809 9.625 3.3125 C10.15625 5.46875 10.15625 5.46875 10.125 7.8125 C10.1353125 8.5859375 10.145625 9.359375 10.15625 10.15625 C9.625 12.3125 9.625 12.3125 8.015625 14.08203125 C4.83196387 15.72068036 2.43573721 15.60682212 -1.125 15.5 C-2.29546875 15.47292969 -3.4659375 15.44585937 -4.671875 15.41796875 C-5.56390625 15.38316406 -6.4559375 15.34835938 -7.375 15.3125 C-7.42886629 13.18777424 -7.46773071 11.06266348 -7.5 8.9375 C-7.52320313 7.75414062 -7.54640625 6.57078125 -7.5703125 5.3515625 C-7.22640346 0.00033782 -4.72810366 0.01901382 0 0 Z " fill="#002A79" transform="translate(141.375,136.6875)"/>
<path d="M0 0 C2.475 0.495 2.475 0.495 5 1 C5 4.96 5 8.92 5 13 C5.66 13 6.32 13 7 13 C7.309375 12.195625 7.61875 11.39125 7.9375 10.5625 C9 8 9 8 10 7 C11.99958364 6.95919217 14.00045254 6.95745644 16 7 C15.566875 7.8353125 15.566875 7.8353125 15.125 8.6875 C14.75375 9.450625 14.3825 10.21375 14 11 C13.54625 11.763125 13.0925 12.52625 12.625 13.3125 C11.88704823 16.48569261 12.28066514 16.98162183 13.875 19.6875 C14.57625 20.780625 15.2775 21.87375 16 23 C16 23.66 16 24.32 16 25 C13.1875 25.3125 13.1875 25.3125 10 25 C8.11400657 22.61107499 7 21.08148442 7 18 C6.34 18 5.68 18 5 18 C5 20.31 5 22.62 5 25 C3.35 25 1.7 25 0 25 C0 16.75 0 8.5 0 0 Z " fill="#1C3C78" transform="translate(114,201)"/>
<path d="M0 0 C13.31165741 -0.36637589 13.31165741 -0.36637589 15.9375 1.03125 C17.6088262 4.12811914 17.3120385 7.26748117 17.1875 10.6875 C17.16719727 11.7403418 17.16719727 11.7403418 17.14648438 12.81445312 C17.11120182 14.54329829 17.05739583 16.27174765 17 18 C15.35 17.67 13.7 17.34 12 17 C11.67 13.37 11.34 9.74 11 6 C9.68 6.33 8.36 6.66 7 7 C6.67 10.63 6.34 14.26 6 18 C4.02 18 2.04 18 0 18 C0 12.06 0 6.12 0 0 Z " fill="#1C3C78" transform="translate(138,208)"/>
<path d="M0 0 C3.5060303 0.86943897 4.94966563 2.56083702 6.9375 5.48046875 C7.44701861 9.629406 7.48416957 13.04246483 4.9375 16.48046875 C1.70955762 18.78614188 -1.17816819 18.80416307 -5.0625 18.48046875 C-8.40515205 17.27339996 -9.00954566 16.55990026 -11.0625 13.48046875 C-11.6118667 8.61464941 -11.79740373 6.58282435 -9.0625 2.48046875 C-5.73305136 0.26083632 -3.92331066 -0.27492897 0 0 Z M-5.0625 5.48046875 C-5.74051034 8.38120056 -5.74051034 8.38120056 -6.0625 11.48046875 C-5.4025 12.14046875 -4.7425 12.80046875 -4.0625 13.48046875 C-1.45969432 13.16005478 -1.45969432 13.16005478 0.9375 12.48046875 C1.93967064 8.89719122 1.93967064 8.89719122 0.9375 5.48046875 C-1.0425 5.48046875 -3.0225 5.48046875 -5.0625 5.48046875 Z " fill="#00A8EA" transform="translate(209.0625,207.51953125)"/>
<path d="M0 0 C1.24918465 -0.01489471 1.24918465 -0.01489471 2.52360535 -0.03009033 C5.28920774 -0.05938505 8.05458017 -0.07295075 10.8203125 -0.08398438 C12.74405931 -0.09548952 14.66780605 -0.10700497 16.59155273 -0.11853027 C20.63347442 -0.13956925 24.67531639 -0.15123995 28.71728516 -0.15820312 C33.87780604 -0.16913279 39.03726077 -0.21709087 44.19744873 -0.27414703 C48.1765236 -0.31155494 52.15534672 -0.32181943 56.13458252 -0.32487488 C58.03547956 -0.33090162 59.93637356 -0.34686965 61.83709717 -0.37324524 C79.73500216 -0.60372729 79.73500216 -0.60372729 87.36108398 4.73986816 C88.9453125 6.32226562 88.9453125 6.32226562 89.9453125 9.32226562 C88.6253125 8.99226563 87.3053125 8.66226563 85.9453125 8.32226562 C85.9453125 7.66226563 85.9453125 7.00226563 85.9453125 6.32226562 C83.9653125 5.66226563 81.9853125 5.00226563 79.9453125 4.32226562 C79.9453125 3.66226563 79.9453125 3.00226563 79.9453125 2.32226562 C50.2453125 2.32226562 20.5453125 2.32226562 -10.0546875 2.32226562 C-7.10764119 -0.62478068 -3.95214041 0.01117597 0 0 Z " fill="#7996BD" transform="translate(115.0546875,74.677734375)"/>
<path d="M0 0 C0.9796875 0.00515625 1.959375 0.0103125 2.96875 0.015625 C3.9484375 0.01046875 4.928125 0.0053125 5.9375 0 C8.46875 0.265625 8.46875 0.265625 10.46875 2.265625 C11.03460366 9.3953811 11.03460366 9.3953811 9.3359375 12.0078125 C6.62724522 13.83249642 4.50736648 13.55719327 1.28125 13.453125 C0.19457031 13.42605469 -0.89210937 13.39898437 -2.01171875 13.37109375 C-3.25888672 13.31888672 -3.25888672 13.31888672 -4.53125 13.265625 C-4.58516993 11.47428522 -4.62400571 9.68248601 -4.65625 7.890625 C-4.67945313 6.89289063 -4.70265625 5.89515625 -4.7265625 4.8671875 C-4.45722418 1.27960107 -3.57919407 0.37559444 0 0 Z " fill="#062D7A" transform="translate(138.53125,114.734375)"/>
<path d="M0 0 C0.99 0.66 1.98 1.32 3 2 C3.1875 4.625 3.1875 4.625 3 7 C1.68 7 0.36 7 -1 7 C-1 6.34 -1 5.68 -1 5 C-2.65 5.33 -4.3 5.66 -6 6 C-7.01111093 9.04913228 -7.01111093 9.04913228 -6 12 C-5.071875 12 -4.14375 12 -3.1875 12 C-1.125 12 0.9375 12 3 12 C3.33 12.99 3.66 13.98 4 15 C1.4837345 17.41561488 0.07967359 17.98985972 -3.4375 18.4375 C-7.55085087 17.93235165 -9.10461516 16.89538484 -12 14 C-13.42662219 11.14675563 -13.31033868 9.16545451 -13 6 C-9.18759698 0.28139547 -6.77581881 -0.35662204 0 0 Z " fill="#00A8EA" transform="translate(194,208)"/>
<path d="M0 0 C1.9375 1.0625 1.9375 1.0625 3 3 C3.36528977 6.4093712 3.6140629 8.88023824 1.9375 11.9375 C-1.11976176 13.6140629 -3.5906288 13.36528977 -7 13 C-8.9375 11.9375 -8.9375 11.9375 -10 10 C-10.36528977 6.5906288 -10.6140629 4.11976176 -8.9375 1.0625 C-5.88023824 -0.6140629 -3.4093712 -0.36528977 0 0 Z " fill="#00A4E6" transform="translate(179,149)"/>
<path d="M0 0 C2.475 0.495 2.475 0.495 5 1 C5 6.61 5 12.22 5 18 C3.35 18 1.7 18 0 18 C0 12.06 0 6.12 0 0 Z " fill="#1C3B78" transform="translate(131,208)"/>
<path d="M0 0 C0.99 0.33 1.98 0.66 3 1 C2.67 4.3 2.34 7.6 2 11 C4.01822917 10.90234375 6.03645833 10.8046875 8.0546875 10.70703125 C8.69664062 10.80371094 9.33859375 10.90039062 10 11 C10.99 12.485 10.99 12.485 12 14 C7.71 14 3.42 14 -1 14 C-1.09765625 3.94140625 -1.09765625 3.94140625 -1 1 C-0.67 0.67 -0.34 0.34 0 0 Z " fill="#153982" transform="translate(135,138)"/>
<path d="M0 0 C1.65 0 3.3 0 5 0 C5.625 1.875 5.625 1.875 6 4 C5.34 4.66 4.68 5.32 4 6 C2.68 6 1.36 6 0 6 C-1.125 2.25 -1.125 2.25 0 0 Z " fill="#1C3F7B" transform="translate(131,201)"/>
<path d="M0 0 C1.67542976 0.28604898 3.34385343 0.61781233 5 1 C4.67 2.32 4.34 3.64 4 5 C2.68 5.33 1.36 5.66 0 6 C-0.38218767 4.34385343 -0.71395102 2.67542976 -1 1 C-0.67 0.67 -0.34 0.34 0 0 Z " fill="#00ABED" transform="translate(176,220)"/>
<path d="M0 0 C4.48599743 1.25190626 7.59347128 2.79385533 11 6 C11 6.66 11 7.32 11 8 C9.68 7.67 8.36 7.34 7 7 C7 6.34 7 5.68 7 5 C5.5459375 4.5978125 5.5459375 4.5978125 4.0625 4.1875 C3.051875 3.795625 2.04125 3.40375 1 3 C0.67 2.01 0.34 1.02 0 0 Z " fill="#566AA1" transform="translate(194,76)"/>
<path d="M0 0 C0.66 0.33 1.32 0.66 2 1 C0.9024777 3.99324263 0.32317108 4.84610901 -2.625 6.25 C-3.40875 6.4975 -4.1925 6.745 -5 7 C-3.70700306 4.11562221 -2.34058637 2.12780579 0 0 Z " fill="#5772A5" transform="translate(99,79)"/>
<path d="M0 0 C0.66 0.33 1.32 0.66 2 1 C0.73058503 4.91402949 -0.51167694 6.79072873 -4 9 C-3.35455571 5.51460083 -1.89865603 2.97180943 0 0 Z " fill="#4D5D98" transform="translate(206,178)"/>
</svg>
