<?xml version="1.0" encoding="UTF-8"?>
<svg version="1.1" xmlns="http://www.w3.org/2000/svg" width="980" height="980">
<path d="M0 0 C323.4 0 646.8 0 980 0 C980 323.4 980 646.8 980 980 C656.6 980 333.2 980 0 980 C0 656.6 0 333.2 0 0 Z " fill="#FEFEFE" transform="translate(0,0)"/>
<path d="M0 0 C0.97235596 0.00082581 1.94471191 0.00165161 2.9465332 0.00250244 C26.28796402 0.04784136 51.85144203 0.20919061 74.25 7.3125 C75.60131549 7.68919563 76.95430507 8.05991883 78.30859375 8.42578125 C87.09422829 10.82804848 95.81879834 13.36038923 104.49609375 16.12890625 C106.91758238 16.8923933 109.34702368 17.63130357 111.78515625 18.33984375 C117.67147685 20.05410554 122.97545219 22.0135606 128.3828125 24.89453125 C132.13257443 26.74897754 135.99136979 28.26329687 139.875 29.8125 C144.88250848 31.83324336 149.59130854 33.82275496 154.0625 36.88671875 C156.55583019 38.51183575 159.12779433 39.92817859 161.73608398 41.35913086 C181.62601195 52.28748281 199.68409943 65.77255519 216.61035156 80.85205078 C218.07531501 82.15690655 219.54881464 83.45216412 221.0234375 84.74609375 C230.01818051 92.70516446 238.4892749 101.14371086 246.25 110.3125 C247.04664063 111.22 247.84328125 112.1275 248.6640625 113.0625 C265.81543356 132.73159023 279.78233038 154.90344853 291.25 178.3125 C291.79092285 179.4104187 291.79092285 179.4104187 292.34277344 180.53051758 C296.48802172 188.98908905 300.57230832 197.3237622 303.28588867 206.36987305 C304.24330666 209.29207082 305.39043543 212.03820405 306.62890625 214.8515625 C309.29933617 221.19419918 311.19673087 227.60018264 312.9375 234.25 C313.37932617 235.86551758 313.37932617 235.86551758 313.83007812 237.51367188 C315.59248657 244.13161458 316.888801 250.69976401 317.83740234 257.48242188 C318.20082855 259.97522457 318.65392511 262.41407555 319.1875 264.875 C321.98440534 278.52656179 323.8842029 292.37818247 324.25 306.3125 C324.27723145 307.25383789 324.30446289 308.19517578 324.33251953 309.16503906 C324.87759148 331.09818586 323.0946674 352.71387605 319.25 374.3125 C319.0854834 375.2516626 318.9209668 376.1908252 318.75146484 377.15844727 C316.54262103 389.49980617 313.79899351 401.59673983 310.25 413.625 C309.93015137 414.71433838 309.61030273 415.80367676 309.28076172 416.92602539 C307.04976381 424.26986749 304.28697407 431.26911205 301.25 438.3125 C300.55685003 439.99875121 299.86660105 441.68619871 299.1796875 443.375 C294.33420232 455.09526612 288.78525431 466.19549423 282.46777344 477.18994141 C281.42488881 479.00767175 280.40181723 480.83674476 279.3828125 482.66796875 C271.93691666 495.86751138 262.94017666 507.99951929 253.46191406 519.79199219 C251.73309104 521.96103123 250.05660266 524.16926144 248.375 526.375 C245.870556 529.60519736 243.18064372 532.45700099 240.25 535.3125 C238.76764761 537.01226407 237.31558694 538.73349755 235.875 540.46875 C231.92156381 544.95437952 227.51001276 549.00554306 223.125 553.0625 C222.60035156 553.55621094 222.07570313 554.04992187 221.53515625 554.55859375 C219.11430345 556.79558432 217.41543223 558.25735592 214.25 559.3125 C214.25 559.9725 214.25 560.6325 214.25 561.3125 C212.20351544 563.08349625 210.15032395 564.73821122 208 566.375 C207.36247803 566.86669678 206.72495605 567.35839355 206.06811523 567.86499023 C204.13331909 569.35357267 202.191781 570.83304781 200.25 572.3125 C199.23550781 573.09625 198.22101562 573.88 197.17578125 574.6875 C184.50624666 584.36681701 171.27050933 592.74847297 157.25 600.3125 C156.47011719 600.73595703 155.69023438 601.15941406 154.88671875 601.59570312 C145.51267279 606.67144252 136.18594295 611.41906168 126.25 615.3125 C123.14479005 616.635229 120.04216935 617.9637578 116.94140625 619.296875 C114.36911931 620.26754932 111.94477429 620.80802336 109.25 621.3125 C107.8883484 591.29678418 106.9058032 561.36088027 107.25 531.3125 C108.97068278 530.58974202 110.69136556 529.86698405 112.41204834 529.14422607 C115.26102575 527.85498172 117.85464599 526.22415453 120.5 524.5625 C121.06227295 524.20961914 121.6245459 523.85673828 122.20385742 523.49316406 C123.88738127 522.43528853 125.56872275 521.37394241 127.25 520.3125 C128.14847656 519.7659375 129.04695313 519.219375 129.97265625 518.65625 C141.40587166 511.62042513 152.25779851 503.47766169 162.08203125 494.328125 C164.15222547 492.40340389 166.27953109 490.57502513 168.4375 488.75 C171.65029025 485.93960694 174.47246796 482.96859242 177.22265625 479.70703125 C178.76723554 477.88270156 180.33374375 476.09892183 181.93359375 474.32421875 C189.49980574 465.84495121 195.85822339 456.84827837 201.97802734 447.28222656 C203.0273147 445.65734165 204.11253124 444.05571795 205.20703125 442.4609375 C212.84775424 431.18773964 218.39959574 418.24397984 223.34277344 405.59033203 C224.10272474 403.68227345 224.93560152 401.80347885 225.78515625 399.93359375 C227.83973275 394.85468064 229.26395255 389.66100697 230.6875 384.375 C230.99316895 383.24143066 231.29883789 382.10786133 231.61376953 380.93994141 C234.6000563 369.52495123 236.64963321 357.99708022 238.25 346.3125 C238.426521 345.07193848 238.60304199 343.83137695 238.78491211 342.55322266 C239.32817852 338.14416849 239.41166457 333.78212058 239.41796875 329.34375 C239.42129715 328.50517456 239.42462555 327.66659912 239.42805481 326.8026123 C239.43309041 325.03442935 239.43546418 323.26623699 239.43530273 321.49804688 C239.43747137 318.84748839 239.45561391 316.19735912 239.47460938 313.546875 C240.17017331 296.49540234 240.17017331 296.49540234 236.25 280.3125 C235.9512973 278.62970957 235.68636398 276.94087955 235.4375 275.25 C233.49204203 263.26021457 230.73738121 251.61405269 226.25 240.3125 C225.88132812 239.3121875 225.51265625 238.311875 225.1328125 237.28125 C215.04903954 210.12756072 200.32422526 185.02938321 180.5625 163.81640625 C178.49115187 161.57361207 176.52198309 159.27750771 174.5625 156.9375 C170.72379907 152.55813697 167.00254383 148.79824303 161.0625 147.75 C158.18474295 148.14268794 158.18474295 148.14268794 155.875 149.875 C153.67567816 153.17398277 153.89623226 155.42105485 154.25 159.3125 C155.38281116 162.71093349 156.80529247 163.64322003 159.5234375 165.8203125 C162.7968966 168.64941063 165.4739645 172.00639473 168.25 175.3125 C169.04921875 176.24707031 169.8484375 177.18164062 170.671875 178.14453125 C175.89300821 184.3070506 180.81527291 190.55349247 185.25 197.3125 C185.65814941 197.93237793 186.06629883 198.55225586 186.48681641 199.19091797 C187.85813968 201.28598136 189.2126249 203.39106189 190.5625 205.5 C190.995625 206.16547852 191.42875 206.83095703 191.875 207.51660156 C194.52158998 211.71399309 196.11481422 215.47698486 197.25 220.3125 C197.91 220.3125 198.57 220.3125 199.25 220.3125 C200.52623993 223.12265301 201.79605646 225.93543459 203.0625 228.75 C203.59713867 229.9246582 203.59713867 229.9246582 204.14257812 231.12304688 C206.52331207 236.43055467 208.52038924 241.75994933 210.25 247.3125 C210.61222656 248.47136719 210.97445312 249.63023437 211.34765625 250.82421875 C211.66605469 251.87222656 211.98445312 252.92023438 212.3125 254 C213.25745709 257.10811188 214.21392346 260.20483629 215.24609375 263.28515625 C224.23738157 290.39896192 226.19927117 325.72616121 219.78125 353.7578125 C219.122315 356.92651462 218.72664179 360.10290116 218.3125 363.3125 C217.4875924 369.2403244 216.12171003 374.64537795 214.25 380.3125 C213.9509375 381.34117187 213.651875 382.36984375 213.34375 383.4296875 C211.49040786 389.78186822 209.31235907 395.72331988 206.46484375 401.6953125 C205.29155249 404.22298176 204.29152007 406.76698803 203.3125 409.375 C201.56313538 413.84011211 199.28216717 417.76006528 196.74609375 421.8203125 C195.30141026 424.22686098 194.0775203 426.65289492 192.875 429.1875 C188.23019475 438.6398266 181.96383014 446.86759285 175.21875 454.90625 C173.67518754 456.79282633 172.29953213 458.63340083 171 460.6875 C169.02569502 463.64895746 166.79147807 465.81302983 164.25 468.3125 C163.12061158 469.46179103 161.99312569 470.61295364 160.8671875 471.765625 C144.77066506 488.14778286 127.04596665 500.79329527 107.25 512.3125 C105.15415665 509.16873498 104.99313551 508.38983096 104.94702148 504.7980957 C104.92199806 503.42013824 104.92199806 503.42013824 104.89646912 502.01434326 C104.88809525 501.0157428 104.87972137 500.01714233 104.87109375 498.98828125 C104.85446182 497.94625549 104.8378299 496.90422974 104.82069397 495.83062744 C104.78593367 493.59182759 104.75552473 491.35295681 104.72900391 489.11404419 C104.67355294 484.4525341 104.59697965 479.79145169 104.52127075 475.13023376 C104.48365237 472.8038041 104.44709232 470.47735709 104.41159058 468.15089417 C104.27631112 459.3764116 104.0862429 450.60529452 103.81130981 441.83407593 C103.75211596 439.94261282 103.69714662 438.05101897 103.64233398 436.15942383 C103.60567627 435.01497803 103.56901855 433.87053223 103.53125 432.69140625 C103.50095703 431.7382251 103.47066406 430.78504395 103.43945312 429.80297852 C103.27929016 426.85214101 103.03463623 423.93280722 102.76367188 420.9909668 C102.15300001 413.81989192 101.96880656 406.64951733 101.80444336 399.45789337 C101.74858075 397.01608826 101.68827253 394.57442531 101.62695312 392.13275146 C101.49741098 386.94275882 101.37343702 381.75264089 101.25 376.5625 C101.10660916 370.55128695 100.96080519 364.54014559 100.81030273 358.52910614 C100.75187675 356.15440493 100.69710303 353.77963966 100.64257812 351.40484619 C100.37623571 340.36718976 99.75224638 329.38535814 98.97016907 318.37179565 C97.47637052 296.77471505 97.47637052 296.77471505 101.57421875 291.0859375 C104.7103966 289.13435948 107.85536655 287.75702487 111.25 286.3125 C123.65176467 276.56068505 132.72395812 259.86788704 135.25 244.3125 C135.34699088 241.84543799 135.38916057 239.37601356 135.39717102 236.90705872 C135.40268605 235.80254955 135.40268605 235.80254955 135.4083125 234.67572707 C135.41930802 232.21325426 135.42318613 229.75082371 135.42700195 227.28833008 C135.43326971 225.52058784 135.43991679 223.75284692 135.44691467 221.98510742 C135.46791981 216.1840913 135.47831355 210.38307502 135.48828125 204.58203125 C135.49233009 202.58220595 135.49644705 200.58238079 135.50063133 198.58255577 C135.51967498 189.18634954 135.53390791 179.79015112 135.5422433 170.3939293 C135.55201382 159.55988013 135.57833205 148.72603536 135.61874419 137.89205819 C135.64893498 129.50970311 135.66371498 121.12740654 135.66702431 112.74499816 C135.66937133 107.74238518 135.67828662 102.73999078 135.70348549 97.73743629 C135.72682318 93.02844168 135.73097658 88.31980871 135.72072411 83.61077118 C135.72023003 81.88790621 135.72651258 80.16502309 135.74028015 78.44221306 C135.81687643 68.28440471 135.77063047 59.01427264 129.171875 50.69140625 C120.98560665 43.84497678 115.12897271 41.73300191 104.3671875 42.03125 C95.00575195 42.8758908 89.63861444 47.86633047 83.25 54.3125 C78.25 49.3125 78.25 49.3125 76.4375 47.1875 C70.33461253 41.95645359 63.44953169 41.77041309 55.72265625 41.96875 C46.75732131 42.85620723 41.00454393 46.52899789 35.25 53.3125 C34.8375 52.93738281 34.425 52.56226563 34 52.17578125 C32.11890864 50.50883199 30.18782637 48.91298716 28.25 47.3125 C27.71761719 46.81363281 27.18523437 46.31476563 26.63671875 45.80078125 C21.88512804 41.98858549 17.12394501 41.82034665 11.25 41.75 C10.49033936 41.73533691 9.73067871 41.72067383 8.94799805 41.70556641 C3.91438713 41.79581151 0.35649869 42.88069692 -4.0234375 45.35961914 C-5.75 46.3125 -5.75 46.3125 -8.75 47.3125 C-9.08 48.3025 -9.41 49.2925 -9.75 50.3125 C-10.430625 50.93125 -10.430625 50.93125 -11.125 51.5625 C-16.48094764 57.33044361 -16.8728307 65.22188588 -16.89717102 72.65979004 C-16.90268605 73.75499883 -16.90268605 73.75499883 -16.9083125 74.87233305 C-16.91930748 77.31398445 -16.92318609 79.75559322 -16.92700195 82.19726562 C-16.93326992 83.95028823 -16.93991701 85.70330951 -16.94691467 87.45632935 C-16.96792322 93.21046021 -16.97831617 98.96459124 -16.98828125 104.71875 C-16.99233043 106.70364902 -16.9964474 108.68854791 -17.00063133 110.67344666 C-17.01967837 120.00291707 -17.03390871 129.3323796 -17.0422433 138.66186571 C-17.052005 149.40985499 -17.07829869 160.15763774 -17.11874419 170.90555429 C-17.14897345 179.22596102 -17.16371874 187.54630877 -17.16702431 195.86676931 C-17.1693676 200.82979601 -17.17823345 205.79260197 -17.20348549 210.75556946 C-17.22688973 215.43092224 -17.23095014 220.10591087 -17.22072411 224.78130722 C-17.22023158 226.48839917 -17.22646764 228.19550979 -17.24028015 229.90254593 C-17.38860775 249.33612047 -11.85870293 265.61486338 1.25 280.3125 C1.889375 281.034375 2.52875 281.75625 3.1875 282.5 C6.85533096 286.40446521 9.81375671 288.58785849 14.75 290.6875 C17.30078125 292.15625 17.30078125 292.15625 19.25 294.3125 C20.06511434 298.62164245 19.95396251 302.48772922 19.62719727 306.84033203 C18.36479986 324.66409714 18.09401375 342.52931681 17.86184692 360.39019775 C17.61061396 379.08646688 17.237394 397.76162069 16.3125 416.4375 C16.26990051 417.29870453 16.22730103 418.15990906 16.18341064 419.04721069 C16.09618709 420.80617807 16.00895763 422.56514514 15.92172241 424.32411194 C15.87794464 425.20844406 15.83416687 426.09277618 15.7890625 427.00390625 C15.7448819 427.8944017 15.70070129 428.78489716 15.65518188 429.70237732 C15.05955002 441.92227867 14.62316456 454.1485247 14.1875 466.375 C14.12434097 468.14318085 14.12434097 468.14318085 14.05990601 469.94708252 C13.26516245 492.39805679 12.69103494 514.85198915 12.25 537.3125 C-6.40725473 537.54786566 -23.86842208 537.34961788 -42.171875 533.234375 C-42.99993652 533.0492334 -43.82799805 532.8640918 -44.68115234 532.67333984 C-46.7043468 532.2208216 -48.72720805 531.76681405 -50.75 531.3125 C-50.79345047 530.4867749 -50.83690094 529.6610498 -50.88166809 528.81030273 C-51.43522887 518.31067291 -51.9962362 507.8114523 -52.5625 497.3125 C-52.60744095 496.47852314 -52.6523819 495.64454628 -52.69868469 494.78529739 C-53.91285154 472.28568901 -55.20746407 449.80449596 -57.06735229 427.34719849 C-57.22389262 425.40724823 -57.36529881 423.46609352 -57.50561523 421.52490234 C-57.65208463 419.59958333 -57.83095284 417.67571976 -58.07446289 415.76025391 C-58.26953125 413.66015625 -58.26953125 413.66015625 -57.75 410.3125 C-55.71375911 407.95960413 -53.31664241 406.44377596 -50.6875 404.8125 C-49.298914 403.87245678 -47.9147317 402.92587392 -46.53515625 401.97265625 C-45.87402832 401.51906738 -45.21290039 401.06547852 -44.53173828 400.59814453 C-36.13083486 394.53632521 -31.32178803 385.08801494 -29.17678261 375.13646889 C-28.28722227 369.25035574 -28.46388933 363.29783542 -28.4753418 357.3581543 C-28.47098669 355.85860441 -28.46580089 354.35905675 -28.45985413 352.85951233 C-28.44650984 348.79988107 -28.44588247 344.74034324 -28.44841743 340.68069434 C-28.44949449 337.2613317 -28.44458293 333.84198738 -28.439812 330.4226287 C-28.42872343 322.31713873 -28.42826979 314.21169505 -28.43432617 306.10620117 C-28.44030768 297.84342466 -28.42820378 289.58082096 -28.4067561 281.31807393 C-28.38888073 274.15899179 -28.38318029 266.99996322 -28.38639385 259.84085971 C-28.38817308 255.59540903 -28.38592415 251.35008029 -28.37167931 247.1046505 C-28.31829123 229.65616173 -28.65880347 212.33951331 -30.11254883 194.94458008 C-30.17271285 194.21435367 -30.23287688 193.48412726 -30.29486406 192.73177278 C-31.65682018 176.59982332 -33.35068894 159.62223482 -38.75 144.3125 C-39.07638282 142.63136944 -39.36853277 140.94320709 -39.625 139.25 C-41.74652391 127.05123754 -46.07389844 115.33846347 -51.7578125 104.3671875 C-52.85330032 102.09857887 -53.73652044 99.79454082 -54.625 97.4375 C-57.25329909 90.71153776 -61.05918056 84.75263336 -65.125 78.8125 C-66.75 76.3125 -66.75 76.3125 -66.75 74.3125 C-67.41 74.3125 -68.07 74.3125 -68.75 74.3125 C-69.8359375 72.765625 -69.8359375 72.765625 -71.125 70.5625 C-78.64021854 59.02709227 -91.44909639 46.74613454 -104.75 42.3125 C-111.80661637 41.61709839 -117.99698759 41.8379348 -123.75 46.3125 C-129.08586019 52.04755173 -129.87300628 56.82703032 -129.8886652 64.56701279 C-129.89292853 65.67053456 -129.89292853 65.67053456 -129.89727798 66.7963497 C-129.90563575 69.27486854 -129.90689404 71.7533407 -129.90821838 74.23187256 C-129.912783 76.02136447 -129.91778287 77.81085531 -129.92318195 79.6003449 C-129.93678393 84.52818662 -129.94418738 89.45602144 -129.95060861 94.38387704 C-129.95860351 99.69402138 -129.97230441 105.0041513 -129.98532104 110.31428528 C-130.00709672 119.51793721 -130.02523722 128.72159058 -130.04092598 137.92525482 C-130.06361467 151.23229657 -130.09175888 164.53932236 -130.12124526 177.84635058 C-130.16893345 199.43483215 -130.21219431 221.02332023 -130.25268555 242.61181641 C-130.29203423 263.58610542 -130.33345895 284.56038864 -130.37768555 305.53466797 C-130.38177196 307.47314526 -130.38177196 307.47314526 -130.38594092 309.4507837 C-130.39962029 315.93380409 -130.41334059 322.41682439 -130.42708123 328.89984465 C-130.54106528 382.70405101 -130.64787037 436.50826992 -130.75 490.3125 C-133.6180962 488.92815275 -135.78340897 487.56054212 -138.10546875 485.37109375 C-138.72341309 484.79206299 -139.34135742 484.21303223 -139.97802734 483.61645508 C-140.62465332 483.0005249 -141.2712793 482.38459473 -141.9375 481.75 C-142.6073291 481.11666748 -143.2771582 480.48333496 -143.96728516 479.83081055 C-145.90056685 477.99725237 -147.82630496 476.15610651 -149.75 474.3125 C-151.07064453 473.05566406 -151.07064453 473.05566406 -152.41796875 471.7734375 C-158.01148145 466.32842514 -162.93899498 460.45385249 -167.75 454.3125 C-168.84634766 452.92417969 -168.84634766 452.92417969 -169.96484375 451.5078125 C-180.10310469 438.35836334 -187.99256439 424.48845347 -194.81298828 409.37011719 C-195.59903863 407.64400142 -196.41868061 405.93323713 -197.24609375 404.2265625 C-202.90219576 392.49147235 -205.95663284 379.93311429 -208.9375 367.3125 C-209.18749756 366.26956787 -209.43749512 365.22663574 -209.69506836 364.15209961 C-213.05642817 349.4953902 -214.13311747 335.16382095 -214.0625 320.1875 C-214.06067719 319.37990234 -214.05885437 318.57230469 -214.05697632 317.74023438 C-214.00774839 304.73764602 -213.35219123 292.08689331 -210.75 279.3125 C-210.57307617 278.43787109 -210.39615234 277.56324219 -210.21386719 276.66210938 C-203.43850791 244.20123433 -190.23954567 215.34335641 -170.75 188.5625 C-170.16847168 187.75780273 -169.58694336 186.95310547 -168.98779297 186.12402344 C-165.70330701 181.6665727 -162.27874851 177.64992412 -158.29443359 173.8046875 C-155.80137036 171.39596121 -153.56955978 168.78477987 -151.328125 166.14453125 C-150.05300827 164.66425961 -148.69400766 163.25650766 -147.3125 161.875 C-145.01550256 158.1079242 -145.4125521 154.61496075 -145.75 150.3125 C-149.95588057 148.71025978 -153.26632838 147.63806083 -157.75 148.3125 C-160.51590351 150.26877629 -162.75307585 152.65793396 -165.0625 155.125 C-165.72693115 155.8156958 -166.3913623 156.5063916 -167.07592773 157.21801758 C-181.51896019 172.3831136 -193.99263001 189.77138045 -203.75 208.3125 C-204.25587646 209.26286133 -204.25587646 209.26286133 -204.77197266 210.23242188 C-209.07614019 218.36097411 -212.72681286 226.42724249 -215.66796875 235.15234375 C-216.61344022 237.91366657 -217.66783809 240.56733677 -218.8125 243.25 C-222.61673473 252.66127949 -224.70024333 262.73333187 -226.875 272.625 C-227.03355469 273.32165771 -227.19210937 274.01831543 -227.35546875 274.73608398 C-230.56775682 289.86791785 -231.18979441 305.27050076 -231.1875 320.6875 C-231.18959976 322.05297974 -231.18959976 322.05297974 -231.19174194 323.44604492 C-231.17155571 339.51780001 -229.63182399 354.6631508 -225.75 370.3125 C-225.52586426 371.2190332 -225.30172852 372.12556641 -225.07080078 373.05957031 C-223.7692644 378.1906827 -222.30586333 383.25322415 -220.75 388.3125 C-220.48445313 389.24320313 -220.21890625 390.17390625 -219.9453125 391.1328125 C-216.41570722 403.46660175 -211.75339968 414.97572293 -205.75 426.3125 C-205.255 427.25867188 -204.76 428.20484375 -204.25 429.1796875 C-194.90725658 446.69733141 -183.86356252 463.47836642 -170.08984375 477.83203125 C-167.75 480.3125 -167.75 480.3125 -165.65625 482.94921875 C-163.97828964 485.02947698 -162.3756325 486.63531146 -160.3125 488.3125 C-157.28592617 490.83357841 -154.53689281 493.52560719 -151.75 496.3125 C-150.4071869 497.57468871 -149.05157611 498.82332135 -147.6875 500.0625 C-146.95654114 500.73414688 -146.22558228 501.40579376 -145.47247314 502.09779358 C-142.81853605 504.40376332 -142.81853605 504.40376332 -139.684021 505.93479919 C-135.37689542 508.36679023 -131.61980521 510.56961755 -130.08152771 515.42049026 C-129.02921326 521.89403062 -129.37503217 528.44301537 -129.578125 534.97265625 C-129.60052983 537.08966751 -129.61760037 539.20674135 -129.62957764 541.32383728 C-129.67521716 546.87395535 -129.79292093 552.42025458 -129.92602539 557.96887207 C-130.04918127 563.63952981 -130.10367225 569.3108099 -130.1640625 574.98242188 C-130.29244054 586.09411832 -130.49701463 597.20299063 -130.75 608.3125 C-134.75719277 607.70038645 -137.8164462 607.01041131 -141.359375 605.01953125 C-142.19122314 604.55732178 -143.02307129 604.0951123 -143.88012695 603.61889648 C-145.17696411 602.87941772 -145.17696411 602.87941772 -146.5 602.125 C-147.3974292 601.62105713 -148.2948584 601.11711426 -149.21948242 600.59790039 C-151.73574823 599.17982467 -154.24427959 597.74910586 -156.75 596.3125 C-157.74128906 595.74789062 -158.73257813 595.18328125 -159.75390625 594.6015625 C-172.04428511 587.40617995 -183.61559156 579.17136738 -194.75 570.3125 C-195.64976562 569.60738281 -196.54953125 568.90226563 -197.4765625 568.17578125 C-207.67515335 560.03796761 -217.97646081 551.1880437 -226.2578125 541.05859375 C-228.29312665 538.67695651 -230.52686495 536.51896987 -232.75 534.3125 C-247.08924736 519.476225 -259.45932396 502.17213676 -269.75 484.3125 C-270.46462406 483.09231923 -271.17948446 481.87227685 -271.89453125 480.65234375 C-272.63864294 479.3727574 -273.38213575 478.09281095 -274.125 476.8125 C-274.48343994 476.20027588 -274.84187988 475.58805176 -275.21118164 474.95727539 C-277.75 470.54239736 -277.75 470.54239736 -277.75 468.3125 C-278.41 468.3125 -279.07 468.3125 -279.75 468.3125 C-280.08 466.3325 -280.41 464.3525 -280.75 462.3125 C-281.41 462.3125 -282.07 462.3125 -282.75 462.3125 C-283.94456558 459.44554262 -285.13888963 456.57848795 -286.33203125 453.7109375 C-287.1999013 451.63091837 -288.07141577 449.5524093 -288.94921875 447.4765625 C-296.54836959 429.45066982 -302.58224779 411.54254608 -307.20043945 392.5246582 C-307.60729027 390.88695263 -308.03017638 389.25321223 -308.46166992 387.62182617 C-314.32305496 365.15596143 -315.14624899 342.47536461 -315.1875 319.375 C-315.19349213 318.26971954 -315.19948425 317.16443909 -315.20565796 316.02566528 C-315.2801533 295.37360394 -313.43926895 275.01236904 -309.375 254.75 C-309.16004883 253.66323975 -308.94509766 252.57647949 -308.72363281 251.45678711 C-307.13300436 243.66444925 -305.16644206 236.18196807 -302.55126953 228.66357422 C-301.56793544 225.77828864 -300.64250199 222.87631577 -299.71484375 219.97265625 C-288.29320996 184.48249333 -270.90656939 151.61870778 -247.75 122.3125 C-247.00492187 121.35472656 -246.25984375 120.39695312 -245.4921875 119.41015625 C-239.03506899 111.29706085 -231.93113688 103.78159336 -224.75 96.3125 C-224.06808594 95.6019043 -223.38617188 94.89130859 -222.68359375 94.15917969 C-214.07795007 85.24053147 -205.36075615 76.93207156 -195.39990234 69.54785156 C-193.75235355 68.3142622 -192.13343868 67.05064454 -190.51953125 65.7734375 C-165.32815068 45.88792677 -136.37888655 30.01216108 -106.07421875 19.5234375 C-103.80052972 18.69518415 -101.55487943 17.78681123 -99.33984375 16.8125 C-95.47942001 15.19943937 -91.65703887 14.02530955 -87.625 12.9375 C-86.85365723 12.72689941 -86.08231445 12.51629883 -85.28759766 12.29931641 C-56.92514951 4.65477244 -29.41817226 -0.10636866 0 0 Z " fill="#030303" transform="translate(485.75,149.6875)"/>
<path d="M0 0 C3.42888497 0.66287759 5.62398898 2.15585364 8.22265625 4.4296875 C9.34312342 7.79108901 9.35017194 10.31868253 9.35395813 13.86225891 C9.35607384 14.51804072 9.35818956 15.17382253 9.36036938 15.84947652 C9.36637 18.05111628 9.36536919 20.25269874 9.36450195 22.4543457 C9.36753342 24.03124082 9.37105484 25.60813506 9.37503052 27.18502808 C9.38292101 30.58336294 9.388065 33.98168729 9.39132118 37.38002968 C9.39722975 42.75454041 9.41376872 48.12898486 9.43266296 53.50346375 C9.4390004 55.343255 9.44532602 57.1830463 9.45164013 59.02283764 C9.45480594 59.94423515 9.45797175 60.86563266 9.4612335 61.8149513 C9.5033149 74.32836399 9.53628662 86.84174587 9.54858398 99.35522461 C9.55696277 107.794519 9.57944664 116.2336494 9.61793965 124.67286175 C9.63770642 129.13879384 9.65010285 133.60448074 9.64510536 138.07045937 C9.64046077 142.27225543 9.65425366 146.47358677 9.68211746 150.67528915 C9.68903244 152.21597328 9.68915246 153.75670542 9.68191719 155.29738808 C9.6730238 157.4041988 9.68872712 159.50947856 9.71040344 161.61616516 C9.7127918 162.79400731 9.71518015 163.97184946 9.71764088 165.1853838 C10.33174167 169.13047056 11.7727757 171.31488085 14.22265625 174.4296875 C18.23396758 177.18597469 22.52800562 176.9587805 27.22265625 176.4296875 C30.74982478 175.04949112 31.89153241 173.98416019 33.83181 170.73513126 C35.36305516 167.09601964 35.59879701 164.60023265 35.60119629 160.66758728 C35.60572642 160.01262018 35.61025655 159.35765308 35.61492395 158.6828385 C35.6264936 156.50181339 35.61692362 154.32140805 35.60742188 152.14038086 C35.61152944 150.57126979 35.61699141 149.00216178 35.623703 147.43305969 C35.63540972 144.06091948 35.63791896 140.68894285 35.63334656 137.31678581 C35.62652983 131.98426351 35.64241618 126.65195607 35.66174316 121.31947327 C35.70279298 109.03940754 35.71414569 96.75934789 35.72527313 84.47922516 C35.7357801 73.21988798 35.75254647 61.96065417 35.79336882 50.70138079 C35.81172956 45.40062184 35.81561603 40.10010899 35.80843353 34.79932582 C35.80691222 31.5027305 35.8176918 28.20625846 35.8318119 24.90969658 C35.83581588 23.38147954 35.83468727 21.8532391 35.82803917 20.32503128 C35.8196574 18.23798732 35.82964691 16.15179667 35.84411621 14.06480408 C35.84482872 12.89731093 35.84554123 11.72981779 35.84627533 10.52694607 C36.26815586 7.05526879 37.1306508 5.20878109 39.22265625 2.4296875 C42.53636625 0.2205475 43.56725835 0.20487197 47.41015625 0.3046875 C48.31121094 0.32273438 49.21226562 0.34078125 50.140625 0.359375 C50.82769531 0.38257813 51.51476562 0.40578125 52.22265625 0.4296875 C52.22265625 1.0896875 52.22265625 1.7496875 52.22265625 2.4296875 C52.84140625 2.6978125 53.46015625 2.9659375 54.09765625 3.2421875 C56.22265625 4.4296875 56.22265625 4.4296875 58.22265625 7.4296875 C58.47319603 10.29646778 58.47319603 10.29646778 58.47421265 13.86225891 C58.47718279 14.51804072 58.48015292 15.17382253 58.48321307 15.84947652 C58.4908635 18.05118793 58.48435487 20.25263339 58.47802734 22.4543457 C58.48077678 24.03124167 58.4844564 25.60813625 58.48899841 27.18502808 C58.49711685 30.58338097 58.49927724 33.98166803 58.49705124 37.38002968 C58.49422115 42.75456251 58.50855913 48.12896355 58.52603149 53.50346375 C58.57308631 68.78736385 58.59699778 84.07125531 58.60351562 99.35522461 C58.60726651 107.79450784 58.62529929 116.23364229 58.65860999 124.67286175 C58.67882993 130.01436533 58.68119123 135.35548533 58.67032981 140.69701159 C58.66772155 144.02319772 58.68173249 147.34916085 58.70041084 150.67528915 C58.70573076 152.21598052 58.70423941 153.75671302 58.69537544 155.29738808 C58.68423371 157.40417933 58.69770668 159.50946543 58.71713257 161.61616516 C58.7182221 162.79400731 58.71931164 163.97184946 58.72043419 165.1853838 C59.46368679 169.98672038 61.83942288 173.04645413 65.22265625 176.4296875 C70.48116022 177.1686276 74.97058428 177.02277422 79.78515625 174.7421875 C83.15021399 171.54969683 84.09805527 168.93916694 84.47878265 164.32684231 C84.48171577 163.15675153 84.4846489 161.98666075 84.4876709 160.78111267 C84.49205217 160.12629443 84.49643344 159.47147619 84.50094748 158.79681498 C84.51323409 156.61048549 84.5114617 154.42439704 84.50976562 152.23803711 C84.51579186 150.66745143 84.52271663 149.09686898 84.5304718 147.52629089 C84.54534642 144.14816785 84.55410634 140.77010377 84.55818176 137.39195061 C84.56489906 132.0514066 84.58665685 126.71098881 84.61071777 121.37049866 C84.66383147 109.07170832 84.69723298 96.77287912 84.73047638 84.47402191 C84.76115267 73.19862727 84.79596949 61.92328683 84.84678698 50.64796263 C84.87014926 45.33778709 84.88387983 40.02769956 84.89028168 34.71747768 C84.89621405 31.4165765 84.91030466 28.11574687 84.92662621 24.81488228 C84.93250892 23.28302564 84.93497303 21.75115153 84.93378639 20.21928406 C84.9326291 18.12979632 84.9436282 16.04071169 84.9576416 13.95127869 C84.96057472 12.78156493 84.96350784 11.61185118 84.96652985 10.40669155 C85.29613366 6.5756461 86.25743944 4.46915176 88.84765625 1.6796875 C92.26207199 -0.11737342 95.48684597 -0.13476892 99.22265625 0.4296875 C102.14193229 1.825863 103.94468621 3.15171746 106.22265625 5.4296875 C106.47713184 8.427742 106.47713184 8.427742 106.48335266 12.36047363 C106.48909098 13.4427619 106.48909098 13.4427619 106.49494523 14.54691458 C106.50530676 16.97731294 106.50127706 19.40747642 106.49731445 21.83789062 C106.50165946 23.57563497 106.5068419 25.31337739 106.51280212 27.05111694 C106.52623314 31.78294546 106.52676574 36.51469429 106.52423882 41.24653816 C106.52317085 45.19737439 106.52804856 49.14819439 106.53284425 53.09902716 C106.54395581 62.42638194 106.54436905 71.75369648 106.53833008 81.08105469 C106.53230198 90.69328077 106.54456785 100.30536003 106.56590015 109.91756105 C106.5835446 118.17247591 106.58951261 126.42734419 106.5862624 134.6822772 C106.5844523 139.61110639 106.58705753 144.53983111 106.60097694 149.46864319 C106.61359517 154.11108583 106.61157348 158.75330117 106.59856606 163.39574051 C106.59620856 165.09440311 106.59890513 166.79308189 106.60718918 168.49172592 C106.68694123 186.12538014 102.75582425 198.91921525 90.70703125 212.0859375 C85.95633826 216.5966965 76.06035743 223.4296875 69.22265625 223.4296875 C69.46310061 231.49801419 69.70640146 239.56624795 69.95314693 247.63438416 C70.06768955 251.38251908 70.18132256 255.13067656 70.29272461 258.87890625 C70.40068157 262.51001016 70.5112264 266.14102763 70.62341499 269.77200317 C70.68547535 271.80099378 70.74499459 273.83006161 70.8044281 275.85913086 C71.00543643 282.2974755 71.2907209 288.7145791 71.72875977 295.14135742 C72.301882 303.68661681 72.46378647 312.22877553 72.61080933 320.79039574 C72.95161084 340.23195506 73.51100374 359.664192 74.16015625 379.09765625 C74.20275574 380.3770319 74.24535522 381.65640755 74.28924561 382.97455215 C74.59671961 392.18888881 74.90930688 401.40304909 75.22265625 410.6171875 C75.5796928 421.131415 75.93450889 431.64571362 76.28515625 442.16015625 C76.32761538 443.43101389 76.3700745 444.70187153 76.41382027 446.01124001 C77.0128599 464.02754874 77.50595343 482.0432553 77.89414978 500.06524658 C78.24403412 516.20717833 78.8057098 532.33793635 79.4230957 548.47192383 C79.9309987 561.86233987 80.33849056 575.2523938 80.46875 588.65234375 C80.49034683 589.80214218 80.51194366 590.95194061 80.53419495 592.13658142 C80.5637796 598.90789105 79.74786446 604.13390036 77.22265625 610.4296875 C76.56265625 610.4296875 75.90265625 610.4296875 75.22265625 610.4296875 C75.05765625 611.1103125 74.89265625 611.7909375 74.72265625 612.4921875 C72.47073058 616.90220861 69.11699731 619.45644276 65.22265625 622.4296875 C64.57425781 622.94402344 63.92585937 623.45835937 63.2578125 623.98828125 C56.21845032 628.75775313 48.34342542 628.28924472 40.22265625 627.4296875 C30.86513739 625.42628253 23.47067924 619.21943311 18.28515625 611.3046875 C14.35953655 604.74791767 13.92297592 598.69035848 14.0078125 591.23828125 C14.01748802 589.5895829 14.01748802 589.5895829 14.02735901 587.90757751 C14.21925181 567.91136171 14.9394177 547.91859202 15.55505371 527.93212891 C15.69542198 523.3379618 15.83128268 518.74366603 15.96707058 514.14936161 C16.10006136 509.66296708 16.235295 505.17664234 16.37123299 500.69033623 C16.43514235 498.57645709 16.49852982 496.4625621 16.56133842 494.34864998 C16.85976064 484.35716178 17.19609072 474.37510135 17.7565918 464.39453125 C18.1942709 456.5799641 18.38611873 448.78461322 18.43359375 440.95703125 C18.45282008 438.96188797 18.47207251 436.96674476 18.49235821 434.97161198 C18.50644536 433.58286971 18.52013082 432.19412331 18.53342152 430.80537319 C18.75693948 407.47643378 19.27023176 384.22321923 20.66015625 360.9296875 C22.40316273 331.70727675 22.97068071 302.47396367 23.52017307 273.20883751 C23.57517898 270.28395499 23.63125083 267.35909434 23.68745422 264.43423462 C23.75656497 260.8348309 23.82060597 257.23539279 23.88102722 253.63583374 C24.06234568 243.54111993 24.49458174 233.50085752 25.22265625 223.4296875 C24.44559326 223.28273438 23.66853027 223.13578125 22.86791992 222.984375 C11.60546409 220.62274144 2.50096968 212.2974184 -3.65234375 202.9296875 C-8.97136263 193.97266042 -11.88630524 186.60087896 -11.9312439 176.10449219 C-11.93562615 175.37687557 -11.9400084 174.64925896 -11.94452345 173.89959335 C-11.95785447 171.46691368 -11.96407728 169.03427018 -11.97021484 166.6015625 C-11.97811991 164.85526366 -11.98638911 163.10896643 -11.99499512 161.3626709 C-12.02115467 155.63502551 -12.03651043 149.90737301 -12.05078125 144.1796875 C-12.05614224 142.20699052 -12.06151975 140.23429358 -12.0669136 138.26159668 C-12.08852781 130.05878329 -12.10726666 121.85597184 -12.118536 113.65313721 C-12.13479343 101.89778145 -12.16803133 90.14275519 -12.22493684 78.38752365 C-12.26359708 70.11989711 -12.28316367 61.85235889 -12.28845656 53.58464432 C-12.29211358 48.64640822 -12.30417326 43.70852406 -12.3365593 38.77038574 C-12.36657332 34.12783249 -12.37297573 29.48584544 -12.36117554 24.84321594 C-12.36095429 23.13920484 -12.36930198 21.43516792 -12.38682938 19.73124695 C-12.40945625 17.40510711 -12.40125885 15.08103221 -12.38534546 12.75488281 C-12.38865561 11.45335266 -12.39196575 10.15182251 -12.39537621 8.81085205 C-11.09717893 1.70860591 -6.5768667 -0.3733113 0 0 Z " fill="#040404" transform="translate(497.77734375,208.5703125)"/>
<path d="M0 0 C4.96140618 -0.24134307 7.41371436 1.26945188 11.1875 4.3125 C11.75702393 4.76471924 12.32654785 5.21693848 12.91333008 5.68286133 C27.54069335 17.58923589 37.31287817 33.29394338 45.16992188 50.21289062 C45.88325325 51.74865113 46.61915448 53.27389255 47.359375 54.796875 C65.8633885 95.40957996 67.32073091 144.09825307 67.33451414 187.90754151 C67.33595268 190.48421894 67.340253 193.06087613 67.34550858 195.63754845 C67.36387279 204.65527032 67.37219376 213.67293386 67.37060547 222.69067383 C67.36939774 231.05768182 67.39065793 239.42443455 67.4220928 247.79137784 C67.44828336 255.02337268 67.45897207 262.25528398 67.45769465 269.48732585 C67.45718718 273.7865579 67.46275477 278.08556051 67.48405075 282.38474464 C67.5034885 286.4160546 67.50352032 290.44691662 67.48901749 294.47824287 C67.48693734 295.94955861 67.49158262 297.42090296 67.5037384 298.89216995 C67.57974852 308.73377568 66.49293235 316.22322726 61.375 324.6875 C57.6324822 328.33153049 53.32004955 331.08678686 49 334 C47.66352268 334.97487102 46.32972931 335.95344456 45 336.9375 C42 339 42 339 40 339 C38.06505891 343.86038775 37.6886807 348.26877166 37.75 353.4375 C37.75688843 354.67270386 37.75688843 354.67270386 37.76391602 355.93286133 C37.86843842 363.3442614 38.50066039 370.68180047 39.21557617 378.05566406 C40.01338917 386.45769819 40.39793099 394.84931918 40.65795898 403.28393555 C40.68962158 404.2356665 40.72128418 405.18739746 40.75390625 406.16796875 C40.77783447 407.00610107 40.8017627 407.8442334 40.82641602 408.70776367 C40.9226875 410.9372569 40.9226875 410.9372569 41.48477173 412.78227234 C42.10762747 415.4632673 42.26484742 418.02682361 42.41723633 420.77587891 C42.4844841 421.95199738 42.55173187 423.12811584 42.62101746 424.33987427 C42.69065201 425.62248138 42.76028656 426.9050885 42.83203125 428.2265625 C42.90890908 429.58635793 42.98621495 430.94612922 43.06391907 432.30587769 C43.22994822 435.21968673 43.3940014 438.13359699 43.55645752 441.04760742 C43.98948331 448.80577196 44.43623725 456.56314398 44.88671875 464.3203125 C44.95522537 465.50170429 44.95522537 465.50170429 45.02511597 466.70696259 C45.93314856 482.31408449 47.00704102 497.90647764 48.125 513.5 C49.51113565 532.86027859 50.64293419 552.21213098 51.40478516 571.60742188 C51.43906113 572.46016693 51.4733371 573.31291199 51.50865173 574.1914978 C51.57043185 575.7493305 51.62914926 577.30728973 51.68385315 578.86538696 C51.87026057 583.62758459 52.36459152 588.27614882 53 593 C54.0353458 603.74662727 51.88196214 611.19484066 45.58203125 619.9765625 C41.23260581 624.9229679 35.71965602 626.55951442 29.328125 627.31640625 C21.73972158 627.64866685 14.82334852 626.31063895 8.9609375 621.234375 C1.9649883 613.67279586 -0.60491162 606.7568273 -0.49219131 596.53587341 C-0.49680669 595.50179983 -0.50142207 594.46772625 -0.50617731 593.40231711 C-0.51677637 589.9325841 -0.49881088 586.46359153 -0.48101807 582.99389648 C-0.48276223 580.48323645 -0.48626428 577.97257713 -0.49137473 575.46192169 C-0.4984585 570.00102372 -0.49311498 564.54035549 -0.4768219 559.07948112 C-0.45266233 550.95944721 -0.45148047 542.83952314 -0.45498985 534.71945984 C-0.46024345 521.05968469 -0.44688748 507.39998699 -0.42292023 493.74023438 C-0.39925098 480.21565365 -0.38385621 466.69110519 -0.37950897 453.16650391 C-0.37923401 452.32554133 -0.37895906 451.48457875 -0.37867576 450.61813246 C-0.37732243 446.34729689 -0.3761169 442.0764613 -0.37496826 437.80562568 C-0.36656694 407.55643032 -0.3396184 377.30727709 -0.30175781 347.05810547 C-0.26501956 317.67171452 -0.23668536 288.2853351 -0.21972656 258.89892578 C-0.21920046 257.99308605 -0.21867435 257.08724632 -0.21813231 256.15395691 C-0.21285822 247.05713019 -0.20775496 237.9603034 -0.20277687 228.86347652 C-0.19263205 210.33224219 -0.18134705 191.80100862 -0.16937256 173.26977539 C-0.1688234 172.41774193 -0.16827424 171.56570848 -0.16770844 170.68785582 C-0.13090667 113.79188624 -0.06744277 56.89594049 0 0 Z " fill="#030303" transform="translate(373,209)"/>
<path d="M0 0 C3.62420676 0.43490481 7.23593637 0.87650966 10.83984375 1.45898438 C21.16177556 3.09172632 31.4472815 3.64214401 41.875 4.125 C43.64195638 4.21164414 45.40888385 4.29888001 47.17578125 4.38671875 C51.45021909 4.59795059 55.72496503 4.80123548 60 5 C60.15149575 24.08802716 59.73079554 43.11447215 59 62.1875 C58.90319363 64.81053023 58.8068376 67.43357711 58.7109375 70.05664062 C58.47911832 76.37129412 58.24186038 82.68572352 58 89 C44.93794053 89.16025028 32.11441596 89.08028502 19.125 87.5625 C17.21847656 87.36043945 17.21847656 87.36043945 15.2734375 87.15429688 C6.15102754 86.15102754 6.15102754 86.15102754 5 85 C4.71882522 82.13078722 4.49829128 79.27842198 4.31640625 76.40234375 C4.2266452 75.06839066 4.2266452 75.06839066 4.1350708 73.70748901 C3.93961268 70.78444407 3.75089232 67.86100819 3.5625 64.9375 C3.43024045 62.93121334 3.29767059 60.92494712 3.16479492 58.91870117 C2.8329339 53.8883507 2.50702967 48.85763356 2.18286133 43.82678223 C1.9613608 40.40269166 1.7356201 36.97888994 1.50953674 33.55509949 C1.31806223 30.6457026 1.12955586 27.73612112 0.94235229 24.82644653 C0.81581729 22.86394956 0.68735353 20.90157725 0.55883789 18.93920898 C0.16091324 12.61053647 -0.08854423 6.34112924 0 0 Z " fill="#070707" transform="translate(437,700)"/>
<path d="M0 0 C4.7109375 -0.25 4.7109375 -0.25 7.3125 2 C8.1478125 2.99 8.1478125 2.99 9 4 C5.37673261 5.2077558 4.35853631 4.54311128 1 3 C1 3.66 1 4.32 1 5 C1.66 5.33 2.32 5.66 3 6 C2.34 6 1.68 6 1 6 C1.33 204.99 1.66 403.98 2 609 C0 607 0 607 -0.24934233 605.15383442 C-0.24903037 604.39670447 -0.24871841 603.63957452 -0.24839699 602.85950124 C-0.25289158 601.98492242 -0.25738617 601.11034359 -0.26201695 600.20926237 C-0.25676292 599.24067872 -0.2515089 598.27209506 -0.24609566 597.27416039 C-0.24840335 596.24700987 -0.25071103 595.21985935 -0.25308865 594.16158307 C-0.25843158 590.67946663 -0.24936911 587.19753085 -0.24050903 583.71542358 C-0.24138022 581.20994321 -0.2431296 578.70446301 -0.24568737 576.19898379 C-0.24924084 570.73087286 -0.24653193 565.26281906 -0.23841095 559.79471397 C-0.2263687 551.66378411 -0.22573675 543.53288178 -0.22749493 535.40194462 C-0.23012632 521.72615969 -0.22342631 508.05039404 -0.21146011 494.37461472 C-0.19963753 480.8283313 -0.19193054 467.28205591 -0.18975449 453.73576736 C-0.18961701 452.89439235 -0.18947953 452.05301733 -0.18933788 451.1861461 C-0.18866124 446.91345677 -0.18805847 442.64076742 -0.18748413 438.36807807 C-0.18328014 408.08229397 -0.16979659 377.79652037 -0.15087891 347.51074219 C-0.13251857 318.0833339 -0.11834717 288.65592849 -0.10986328 259.22851562 C-0.10960023 258.32188674 -0.10933718 257.41525785 -0.10906615 256.48115536 C-0.10642918 247.37665087 -0.10387754 238.27214636 -0.10138843 229.16764182 C-0.09631562 210.6197058 -0.09067312 192.07176997 -0.08468628 173.52383423 C-0.0844117 172.67097703 -0.08413712 171.81811984 -0.08385422 170.93941848 C-0.06544408 113.95960792 -0.03371115 56.97980331 0 0 Z " fill="#1A1A1A" transform="translate(373,209)"/>
<path d="M0 0 C0.33 0 0.66 0 1 0 C1.26409519 8.7986265 1.5250688 17.59733893 1.78230286 26.39616871 C1.90190264 30.48396572 2.02248721 34.57172822 2.14550781 38.65942383 C3.19003033 73.41091443 3.19003033 73.41091443 3 89 C2.01 89.495 2.01 89.495 1 90 C0.67 87.69 0.34 85.38 0 83 C0.33 83 0.66 83 1 83 C1 81.35 1 79.7 1 78 C0.67 78 0.34 78 0 78 C0 52.26 0 26.52 0 0 Z " fill="#D8D8D8" transform="translate(592,682)"/>
<path d="M0 0 C18.6116529 -1.2772703 18.6116529 -1.2772703 26.140625 5.109375 C28.28851004 7.29335895 30.29782009 9.44673013 32 12 C30.375 12.8125 30.375 12.8125 28 13 C25.85128146 11.38846109 23.95456425 9.81270072 22 8 C19.3141025 5.60906224 19.3141025 5.60906224 16 5 C16.33 3.68 16.66 2.36 17 1 C11.39 1 5.78 1 0 1 C0 0.67 0 0.34 0 0 Z " fill="#D9D9D9" transform="translate(488,191)"/>
<path d="M0 0 C0.66 0.99 1.32 1.98 2 3 C1.54109375 3.37511719 1.0821875 3.75023437 0.609375 4.13671875 C-2.25620546 6.52670918 -4.80157952 8.74905645 -7.125 11.6875 C-9.18592903 14.22931248 -11.20494336 15.35163327 -14 17 C-16.13641232 19.20778925 -16.13641232 19.20778925 -17 22 C-18.65 22 -20.3 22 -22 22 C-21.01 20.515 -21.01 20.515 -20 19 C-19.34 19 -18.68 19 -18 19 C-18 18.34 -18 17.68 -18 17 C-16.53125 15.51953125 -16.53125 15.51953125 -14.5 13.8125 C-13.77554688 13.19503906 -13.05109375 12.57757812 -12.3046875 11.94140625 C-11.54414062 11.30074219 -10.78359375 10.66007813 -10 10 C-8.53789745 8.75441089 -7.07937752 7.50460039 -5.625 6.25 C-4.97789062 5.69828125 -4.33078125 5.1465625 -3.6640625 4.578125 C-1.77599482 2.90452414 -1.77599482 2.90452414 0 0 Z " fill="#D8D8D8" transform="translate(718,692)"/>
<path d="M0 0 C0.33 0 0.66 0 1 0 C2.25835166 13.35994639 3.35541223 26.57331559 3 40 C2.67 40 2.34 40 2 40 C1.93941406 39.38511719 1.87882812 38.77023437 1.81640625 38.13671875 C1.73261719 37.32847656 1.64882813 36.52023437 1.5625 35.6875 C1.48128906 34.88699219 1.40007812 34.08648438 1.31640625 33.26171875 C1.04734307 30.83912821 1.04734307 30.83912821 0 28 C-0.0833804 25.86205475 -0.10733747 23.72157991 -0.09765625 21.58203125 C-0.09443359 20.32841797 -0.09121094 19.07480469 -0.08789062 17.78320312 C-0.07951172 16.47287109 -0.07113281 15.16253906 -0.0625 13.8125 C-0.05748317 12.47721519 -0.05292059 11.14192859 -0.04882812 9.80664062 C-0.03702695 6.53771527 -0.02056297 3.26888009 0 0 Z " fill="#C2C2C2" transform="translate(429,584)"/>
<path d="M0 0 C0.33 0 0.66 0 1 0 C1.79585256 10.687163 2.12825004 21.28399677 2 32 C1.67 32 1.34 32 1 32 C1 29.03 1 26.06 1 23 C0.34 23 -0.32 23 -1 23 C-1.09928082 15.24506486 -1.06059488 7.68931285 0 0 Z " fill="#D2D2D2" transform="translate(585,472)"/>
<path d="M0 0 C0.66 0.33 1.32 0.66 2 1 C0.85004126 4.44987623 -0.45059577 5.45059577 -3 8 C-4.29285243 9.84579547 -5.53812486 11.71195879 -6.75390625 13.609375 C-7.16511719 14.06828125 -7.57632813 14.5271875 -8 15 C-10 15 -12 15 -14 15 C-13.27683594 14.29423828 -13.27683594 14.29423828 -12.5390625 13.57421875 C-11.90742187 12.95160156 -11.27578125 12.32898438 -10.625 11.6875 C-9.99851562 11.07261719 -9.37203125 10.45773437 -8.7265625 9.82421875 C-6.81913393 7.91187472 -6.81913393 7.91187472 -5 5 C-4.34 5 -3.68 5 -3 5 C-2.690625 4.360625 -2.38125 3.72125 -2.0625 3.0625 C-1 1 -1 1 0 0 Z " fill="#D5D5D5" transform="translate(734,675)"/>
<path d="M0 0 C0.75 1.75 0.75 1.75 1 4 C-0.28965176 5.37562854 -1.62689293 6.70766393 -3 8 C-3.12375 8.680625 -3.2475 9.36125 -3.375 10.0625 C-4 12 -4 12 -6.875 13.75 C-10 15 -10 15 -13 15 C-12.39671875 14.41992188 -11.7934375 13.83984375 -11.171875 13.2421875 C-6.90045332 9.06721727 -3.03995788 5.1547112 0 0 Z " fill="#242424" transform="translate(611,420)"/>
<path d="M0 0 C0.66 0.33 1.32 0.66 2 1 C2 1.66 2 2.32 2 3 C1.34 3 0.68 3 0 3 C-0.0825 3.721875 -0.165 4.44375 -0.25 5.1875 C-1.15469776 8.58011658 -2.74825957 10.33885222 -5 13 C-5.350625 13.7425 -5.70125 14.485 -6.0625 15.25 C-7 17 -7 17 -10 18 C-10 17.34 -10 16.68 -10 16 C-10.66 15.67 -11.32 15.34 -12 15 C-8.25 12 -8.25 12 -6 12 C-5.71382813 11.42765625 -5.42765625 10.8553125 -5.1328125 10.265625 C-3.421875 6.84375 -1.7109375 3.421875 0 0 Z " fill="#CFCFCF" transform="translate(438,524)"/>
<path d="M0 0 C0.56203125 0.22558594 1.1240625 0.45117188 1.703125 0.68359375 C1.703125 1.34359375 1.703125 2.00359375 1.703125 2.68359375 C1.084375 2.97234375 0.465625 3.26109375 -0.171875 3.55859375 C-2.43013265 4.62079417 -2.43013265 4.62079417 -4.296875 6.68359375 C-7.296875 7.68359375 -7.296875 7.68359375 -9.484375 6.74609375 C-10.0825 6.39546875 -10.680625 6.04484375 -11.296875 5.68359375 C-9.89135201 4.64747104 -8.47195806 3.6301445 -7.046875 2.62109375 C-6.25796875 2.05261719 -5.4690625 1.48414063 -4.65625 0.8984375 C-2.296875 -0.31640625 -2.296875 -0.31640625 0 0 Z " fill="#E5E5E5" transform="translate(667.296875,736.31640625)"/>
<path d="M0 0 C0 0.66 0 1.32 0 2 C-3.95048639 5.95048639 -9.0194156 8.54671851 -14 11 C-4.73033708 0 -4.73033708 0 0 0 Z " fill="#DBDBDB" transform="translate(332,297)"/>
<path d="M0 0 C0.33 0.66 0.66 1.32 1 2 C-0.52994792 3.23697917 -2.05989583 4.47395833 -3.58984375 5.7109375 C-5.13266437 6.9666391 -5.13266437 6.9666391 -6 9 C-9.0625 9.625 -9.0625 9.625 -12 10 C-12 9.01 -12 8.02 -12 7 C-11.38511719 6.66226563 -10.77023437 6.32453125 -10.13671875 5.9765625 C-9.32847656 5.53054688 -8.52023437 5.08453125 -7.6875 4.625 C-6.88699219 4.18414063 -6.08648438 3.74328125 -5.26171875 3.2890625 C-3.46472057 2.26486665 -1.72099292 1.14732862 0 0 Z " fill="#E6E6E6" transform="translate(566,828)"/>
<path d="M0 0 C0.33 0 0.66 0 1 0 C1 7.92 1 15.84 1 24 C0.67 24 0.34 24 0 24 C-0.33801152 21.45887768 -0.67053379 18.91723254 -1 16.375 C-1.09539062 15.66214844 -1.19078125 14.94929688 -1.2890625 14.21484375 C-1.8138287 10.12916408 -2.29728369 6.12481122 -2 2 C-1.34 1.34 -0.68 0.68 0 0 Z " fill="#D0D0D0" transform="translate(436,310)"/>
<path d="M0 0 C0 0.99 0 1.98 0 3 C-0.95712891 3.07347656 -0.95712891 3.07347656 -1.93359375 3.1484375 C-2.75988281 3.22320312 -3.58617187 3.29796875 -4.4375 3.375 C-5.26121094 3.44460937 -6.08492187 3.51421875 -6.93359375 3.5859375 C-7.61550781 3.72257813 -8.29742188 3.85921875 -9 4 C-9.33 4.66 -9.66 5.32 -10 6 C-10.99 6 -11.98 6 -13 6 C-10.7550766 -0.7347702 -6.22920273 -0.31146014 0 0 Z " fill="#0B0B0B" transform="translate(597,209)"/>
<path d="M0 0 C1.45880109 0.14107747 2.91703551 0.28802415 4.375 0.4375 C5.59316406 0.55931641 5.59316406 0.55931641 6.8359375 0.68359375 C9 1 9 1 11 2 C10.67 2.99 10.34 3.98 10 5 C7.69 5 5.38 5 3 5 C2.67 4.01 2.34 3.02 2 2 C1.34 1.34 0.68 0.68 0 0 Z " fill="#DDDDDD" transform="translate(437,681)"/>
<path d="M0 0 C3.14027363 0.33645789 4.05098295 1.05236086 6.3125 3.375 C6.869375 4.24125 7.42625 5.1075 8 6 C7.67 6.99 7.34 7.98 7 9 C3.95507691 7.98502564 2.9701361 7.4178943 1 5 C0.44562891 3.28648936 0 1.80399792 0 0 Z " fill="#E6E6E6" transform="translate(306,591)"/>
<path d="M0 0 C1.9375 0.8125 1.9375 0.8125 4 2 C4.33 2.99 4.66 3.98 5 5 C6.49985609 6.66710346 6.49985609 6.66710346 8 8 C7.01 8.66 6.02 9.32 5 10 C3.02 7.36 1.04 4.72 -1 2 C-0.67 1.34 -0.34 0.68 0 0 Z " fill="#E9E9E9" transform="translate(303,610)"/>
<path d="M0 0 C0.33 0 0.66 0 1 0 C1.19522373 2.58296017 1.38144403 5.16604079 1.5625 7.75 C1.61857422 8.47960937 1.67464844 9.20921875 1.73242188 9.9609375 C1.97482436 13.5161739 2.17713829 16.61442127 1 20 C0.34 20.33 -0.32 20.66 -1 21 C-0.67 14.07 -0.34 7.14 0 0 Z " fill="#E0E0E0" transform="translate(578,792)"/>
<path d="M0 0 C1.32 0.66 2.64 1.32 4 2 C0.37 3.98 -3.26 5.96 -7 8 C-7.33 6.68 -7.66 5.36 -8 4 C-6.35 4 -4.7 4 -3 4 C-3 3.01 -3 2.02 -3 1 C-2.01 0.67 -1.02 0.34 0 0 Z " fill="#EAEAEA" transform="translate(318,196)"/>
<path d="M0 0 C-1.98 2.31 -3.96 4.62 -6 7 C-6.33 6.01 -6.66 5.02 -7 4 C-7.99 3.67 -8.98 3.34 -10 3 C-3.375 -1.125 -3.375 -1.125 0 0 Z " fill="#101010" transform="translate(650,617)"/>
<path d="M0 0 C0.99 0.33 1.98 0.66 3 1 C2.4213888 4.35594497 1.35999139 5.64000861 -1 8 C-1 8.99 -1 9.98 -1 11 C-2.32 11.33 -3.64 11.66 -5 12 C-3.68938409 7.76570244 -2.05643741 3.92592596 0 0 Z " fill="#2C2C2C" transform="translate(298,364)"/>
<path d="M0 0 C0.66 0.33 1.32 0.66 2 1 C1.484375 1.556875 0.96875 2.11375 0.4375 2.6875 C-1.254531 4.9023208 -1.254531 4.9023208 -0.8125 7.5 C-0.05858783 9.81972976 0.81693009 11.87047416 2 14 C0.68 14 -0.64 14 -2 14 C-3.18823797 10.43528609 -3.26274852 7.7441664 -3 4 C-1.5 1.5625 -1.5 1.5625 0 0 Z " fill="#DBDBDB" transform="translate(642,298)"/>
<path d="M0 0 C3.63094642 2.64960955 5.89851796 5.01824456 8 9 C6.0625 9.5625 6.0625 9.5625 4 10 C3 9 3 9 2.9375 6.4375 C2.958125 5.633125 2.97875 4.82875 3 4 C2.360625 3.87625 1.72125 3.7525 1.0625 3.625 C0.381875 3.41875 -0.29875 3.2125 -1 3 C-1.33 2.34 -1.66 1.68 -2 1 C-1.34 0.67 -0.68 0.34 0 0 Z " fill="#1F1F1F" transform="translate(730,259)"/>
<path d="M0 0 C0.8971875 0.309375 0.8971875 0.309375 1.8125 0.625 C1.8125 1.615 1.8125 2.605 1.8125 3.625 C-1.19169641 4.6263988 -4.06459365 5.13921457 -7.1875 5.625 C-5.69046729 2.17030914 -4.27938051 -0.73360809 0 0 Z " fill="#1D1D1D" transform="translate(542.1875,209.375)"/>
<path d="M0 0 C0.66 1.32 1.32 2.64 2 4 C0.90398831 5.00893131 -0.20213918 6.00688225 -1.3125 7 C-2.23482422 7.8353125 -2.23482422 7.8353125 -3.17578125 8.6875 C-5 10 -5 10 -8 10 C-5.36 6.7 -2.72 3.4 0 0 Z " fill="#2F2F2F" transform="translate(324,327)"/>
<path d="M0 0 C0.33 0.66 0.66 1.32 1 2 C1.66 2 2.32 2 3 2 C4.06775224 3.96466413 5.06553465 5.96855359 6 8 C5.67 8.66 5.34 9.32 5 10 C3.35 9.01 1.7 8.02 0 7 C0.33 6.01 0.66 5.02 1 4 C0.34 3.67 -0.32 3.34 -1 3 C-0.67 2.01 -0.34 1.02 0 0 Z " fill="#232323" transform="translate(682,368)"/>
<path d="M0 0 C0.96846689 2.61486062 1.04559628 3.8442127 0.25 6.5625 C-0.95223658 8.90686133 -1.94407782 10.37239494 -4 12 C-4.66 12 -5.32 12 -6 12 C-4.43358249 7.69235185 -2.31663844 3.93828536 0 0 Z " fill="#2C2C2C" transform="translate(306,351)"/>
<path d="M0 0 C0.99 0.33 1.98 0.66 3 1 C3 2.98 3 4.96 3 7 C1.68 7.33 0.36 7.66 -1 8 C-1.66 6.68 -2.32 5.36 -3 4 C-2.01 2.68 -1.02 1.36 0 0 Z " fill="#0C0C0C" transform="translate(429,232)"/>
<path d="M0 0 C0.99 0.33 1.98 0.66 3 1 C2.01 3.97 1.02 6.94 0 10 C-0.66 9.67 -1.32 9.34 -2 9 C-1.125 1.125 -1.125 1.125 0 0 Z " fill="#111111" transform="translate(778,599)"/>
<path d="M0 0 C0.99 0.33 1.98 0.66 3 1 C2.34 1.66 1.68 2.32 1 3 C0.63105418 5.03060659 0.63105418 5.03060659 0.5859375 7.3515625 C0.54726563 8.20234375 0.50859375 9.053125 0.46875 9.9296875 C0.4378125 10.81914062 0.406875 11.70859375 0.375 12.625 C0.33632813 13.5221875 0.29765625 14.419375 0.2578125 15.34375 C0.16340643 17.5622927 0.07783252 19.78082403 0 22 C-0.33 22 -0.66 22 -1 22 C-1.02887814 18.52085059 -1.04675687 15.04173169 -1.0625 11.5625 C-1.07087891 10.56927734 -1.07925781 9.57605469 -1.08789062 8.55273438 C-1.09111328 7.60849609 -1.09433594 6.66425781 -1.09765625 5.69140625 C-1.10289307 4.81685791 -1.10812988 3.94230957 -1.11352539 3.04125977 C-1 1 -1 1 0 0 Z " fill="#E9E9E9" transform="translate(585,441)"/>
<path d="M0 0 C1.98 0.66 3.96 1.32 6 2 C3.54278328 3.63814448 1.65432189 4.61952199 -1.0625 5.625 C-1.75472656 5.88539063 -2.44695312 6.14578125 -3.16015625 6.4140625 C-5 7 -5 7 -7 7 C-6.67 6.01 -6.34 5.02 -6 4 C-4.35 3.67 -2.7 3.34 -1 3 C-0.67 2.01 -0.34 1.02 0 0 Z " fill="#E3E3E3" transform="translate(384,163)"/>
<path d="M0 0 C0.33 0.66 0.66 1.32 1 2 C0.360625 2.391875 -0.27875 2.78375 -0.9375 3.1875 C-3.43778819 5.38472296 -3.64950425 6.75791433 -4 10 C-4.99 10.33 -5.98 10.66 -7 11 C-7.4375 8.3125 -7.4375 8.3125 -7 5 C-4.88875077 2.95224699 -2.54140493 1.46519774 0 0 Z " fill="#1E1E1E" transform="translate(627,661)"/>
<path d="M0 0 C0.66 0.99 1.32 1.98 2 3 C-1.49359465 6.59634744 -5.11098131 9.83451967 -9 13 C-7.50923566 9.7173068 -5.61379679 7.06922559 -3.375 4.25 C-2.74335937 3.45078125 -2.11171875 2.6515625 -1.4609375 1.828125 C-0.97882812 1.22484375 -0.49671875 0.6215625 0 0 Z " fill="#CECECE" transform="translate(745,661)"/>
<path d="M0 0 C0.66 0.33 1.32 0.66 2 1 C0.44499019 4.81684226 -2.03595495 7.19195732 -5 10 C-5 4.69520066 -3.4637943 3.81017373 0 0 Z " fill="#EBEBEB" transform="translate(676,610)"/>
<path d="M0 0 C1.90318884 2.85478326 2.4619099 4.41941308 3.125 7.6875 C3.29257813 8.49574219 3.46015625 9.30398438 3.6328125 10.13671875 C3.75398437 10.75160156 3.87515625 11.36648438 4 12 C2.02 12.99 2.02 12.99 0 14 C0 9.38 0 4.76 0 0 Z " fill="#D2D2D2" transform="translate(184,562)"/>
<path d="M0 0 C2.31 1.98 4.62 3.96 7 6 C5.02 6.99 5.02 6.99 3 8 C1.68 6.02 0.36 4.04 -1 2 C-0.67 1.34 -0.34 0.68 0 0 Z " fill="#E1E1E1" transform="translate(513,196)"/>
<path d="M0 0 C1.625 1.6875 1.625 1.6875 3 4 C2.1875 6.75 2.1875 6.75 1 9 C-0.5625 7.75 -0.5625 7.75 -2 6 C-1.7181953 3.67511119 -1.04553582 2.09107165 0 0 Z " fill="#0C0C0C" transform="translate(229,645)"/>
<path d="M0 0 C0 3.74016583 -0.9341591 4.45276193 -3.375 7.1875 C-4.00148438 7.90292969 -4.62796875 8.61835937 -5.2734375 9.35546875 C-7 11 -7 11 -9 11 C-7.59155282 7.78475695 -5.89655214 5.67816132 -3.375 3.25 C-2.74335937 2.63640625 -2.11171875 2.0228125 -1.4609375 1.390625 C-0.73777344 0.70226562 -0.73777344 0.70226562 0 0 Z " fill="#2F2F2F" transform="translate(668,624)"/>
<path d="M0 0 C0.33 1.32 0.66 2.64 1 4 C1.2475 4.825 1.495 5.65 1.75 6.5 C2 9 2 9 0.6875 11.3125 C0.130625 11.869375 -0.42625 12.42625 -1 13 C-1.66 13 -2.32 13 -3 13 C-2.01 8.71 -1.02 4.42 0 0 Z " fill="#D6D6D6" transform="translate(795,562)"/>
<path d="M0 0 C0.36458333 4.49652778 0.36458333 4.49652778 -1.3125 6.8125 C-3 8 -3 8 -6 8 C-3.18918919 0 -3.18918919 0 0 0 Z " fill="#D7D7D7" transform="translate(306,322)"/>
<path d="M0 0 C0.66 0.33 1.32 0.66 2 1 C2.99 1 3.98 1 5 1 C5 3.31 5 5.62 5 8 C0.125 4.375 0.125 4.375 -1 1 C-0.67 0.67 -0.34 0.34 0 0 Z " fill="#E5E5E5" transform="translate(738,265)"/>
<path d="M0 0 C2.475 0.99 2.475 0.99 5 2 C3.35 3.98 1.7 5.96 0 8 C-0.66 7.67 -1.32 7.34 -2 7 C-1.67 6.030625 -1.34 5.06125 -1 4.0625 C0.05173363 1.37850426 0.05173363 1.37850426 0 0 Z " fill="#ECECEC" transform="translate(268,232)"/>
<path d="M0 0 C0.66 0.33 1.32 0.66 2 1 C0.625 2.5 0.625 2.5 -1 4 C-1.66 4 -2.32 4 -3 4 C-4.62514468 5.45833358 -4.62514468 5.45833358 -6 7 C-7.32 6.34 -8.64 5.68 -10 5 C-8.38007835 4.13624104 -6.75388139 3.28424146 -5.125 2.4375 C-4.22007812 1.96183594 -3.31515625 1.48617187 -2.3828125 0.99609375 C-1.20332031 0.50302734 -1.20332031 0.50302734 0 0 Z " fill="#DCDCDC" transform="translate(638,752)"/>
<path d="M0 0 C0.66 0.99 1.32 1.98 2 3 C1 6 1 6 -1.4375 7.75 C-2.7059375 8.36875 -2.7059375 8.36875 -4 9 C-4.66 8.67 -5.32 8.34 -6 8 C-4.02 5.36 -2.04 2.72 0 0 Z " fill="#E2E2E2" transform="translate(670,592)"/>
<path d="M0 0 C1 3 1 3 1 5 C0.34 5 -0.32 5 -1 5 C-1.33 7.31 -1.66 9.62 -2 12 C-2.99 11.67 -3.98 11.34 -5 11 C-3.55049545 7.2089881 -1.84827434 3.6125362 0 0 Z " fill="#C8C8C8" transform="translate(681,573)"/>
<path d="M0 0 C2.55803184 3.83704776 4.34505724 7.75712791 3.625 12.4375 C3.41875 12.953125 3.2125 13.46875 3 14 C3 13.34 3 12.68 3 12 C2.34 12 1.68 12 1 12 C-0.3271261 8.0186217 -0.06915913 4.14954773 0 0 Z " fill="#B2B2B2" transform="translate(715,398)"/>
<path d="M0 0 C0.66 0.33 1.32 0.66 2 1 C1.52797514 5.24822374 -0.96655518 7.19989709 -4 10 C-4.33 9.01 -4.66 8.02 -5 7 C-3.125 4.4375 -3.125 4.4375 -1 2 C-0.67 1.34 -0.34 0.68 0 0 Z " fill="#E5E5E5" transform="translate(242,262)"/>
<path d="M0 0 C1.70884005 1.62339805 3.37446717 3.29319053 5 5 C5 5.66 5 6.32 5 7 C4.01 7.33 3.02 7.66 2 8 C0.4375 6.25 0.4375 6.25 -1 4 C-0.6875 1.75 -0.6875 1.75 0 0 Z " fill="#141414" transform="translate(401,232)"/>
<path d="M0 0 C0.66 0.33 1.32 0.66 2 1 C-0.66666667 3.66666667 -3.33333333 6.33333333 -6 9 C-6.99 8.67 -7.98 8.34 -9 8 C-6.14723863 5.06799526 -3.34920216 2.35684596 0 0 Z " fill="#212121" transform="translate(312,203)"/>
<path d="M0 0 C1.65 0.33 3.3 0.66 5 1 C5 1.66 5 2.32 5 3 C4.34 3 3.68 3 3 3 C2.34 4.32 1.68 5.64 1 7 C1 6.34 1 5.68 1 5 C0.34 5 -0.32 5 -1 5 C-0.67 3.35 -0.34 1.7 0 0 Z " fill="#191919" transform="translate(570,816)"/>
<path d="M0 0 C0.33 1.32 0.66 2.64 1 4 C-1.35953094 6.35953094 -2.77895617 6.49141413 -6 7 C-4.02 4.69 -2.04 2.38 0 0 Z M-8 7 C-7.34 7 -6.68 7 -6 7 C-6 7.66 -6 8.32 -6 9 C-6.66 9 -7.32 9 -8 9 C-8 8.34 -8 7.68 -8 7 Z " fill="#F7F7F7" transform="translate(743,667)"/>
<path d="M0 0 C0.66 0.33 1.32 0.66 2 1 C1.67 2.65 1.34 4.3 1 6 C-0.98 6.66 -2.96 7.32 -5 8 C-3.8141763 4.62496331 -2.72426311 2.35277269 0 0 Z " fill="#D1D1D1" transform="translate(660,605)"/>
<path d="M0 0 C0.66 0.99 1.32 1.98 2 3 C0.68 5.31 -0.64 7.62 -2 10 C-2.66 10 -3.32 10 -4 10 C-2.8905928 6.51329166 -1.73662334 3.22515763 0 0 Z " fill="#353535" transform="translate(616,410)"/>
<path d="M0 0 C0.33 0.66 0.66 1.32 1 2 C1.66 2.33 2.32 2.66 3 3 C1.02 5.97 1.02 5.97 -1 9 C-1.66 8.01 -2.32 7.02 -3 6 C-2 4 -1 2 0 0 Z " fill="#121212" transform="translate(292,334)"/>
<path d="M0 0 C0.66 0.99 1.32 1.98 2 3 C-0.31 4.98 -2.62 6.96 -5 9 C-5.66 8.67 -6.32 8.34 -7 8 C-4.69 5.36 -2.38 2.72 0 0 Z " fill="#D0D0D0" transform="translate(317,308)"/>
<path d="M0 0 C0.33 0.66 0.66 1.32 1 2 C1.66 2.33 2.32 2.66 3 3 C1.02 4.32 -0.96 5.64 -3 7 C-3.66 6.67 -4.32 6.34 -5 6 C-5 5.34 -5 4.68 -5 4 C-4.01 4 -3.02 4 -2 4 C-1.34 2.68 -0.68 1.36 0 0 Z " fill="#E7E7E7" transform="translate(283,221)"/>
<path d="M0 0 C3.73884332 2.65654657 5.64978174 4.58110387 7 9 C5.68 8.67 4.36 8.34 3 8 C2.896875 7.360625 2.79375 6.72125 2.6875 6.0625 C2.460625 5.381875 2.23375 4.70125 2 4 C1.01 3.67 0.02 3.34 -1 3 C-0.67 2.01 -0.34 1.02 0 0 Z " fill="#C9C9C9" transform="translate(409,213)"/>
<path d="M0 0 C4.95 0 9.9 0 15 0 C14.67 0.66 14.34 1.32 14 2 C11.6015625 2.4140625 11.6015625 2.4140625 8.625 2.625 C7.64789063 2.69976563 6.67078125 2.77453125 5.6640625 2.8515625 C3.77831835 2.95663329 1.88866907 3 0 3 C0 2.01 0 1.02 0 0 Z " fill="#E0E0E0" transform="translate(392,835)"/>
<path d="M0 0 C1.03864166 3.11592499 1.09036928 4.0262656 0 7 C-0.99 7.495 -0.99 7.495 -2 8 C-2.66 8.99 -3.32 9.98 -4 11 C-4.33 10.34 -4.66 9.68 -5 9 C-4.2578125 7.08984375 -4.2578125 7.08984375 -3.125 4.9375 C-2.75632812 4.22464844 -2.38765625 3.51179687 -2.0078125 2.77734375 C-1 1 -1 1 0 0 Z " fill="#CECECE" transform="translate(768,626)"/>
<path d="M0 0 C0.66 1.32 1.32 2.64 2 4 C0.7260411 6.03833424 -0.61061923 8.03852126 -2 10 C-2.66 10 -3.32 10 -4 10 C-2.66666667 6.66666667 -1.33333333 3.33333333 0 0 Z " fill="#D3D3D3" transform="translate(779,604)"/>
<path d="M0 0 C0.99 0.99 1.98 1.98 3 3 C2.34 5.31 1.68 7.62 1 10 C0.67 10 0.34 10 0 10 C-0.19412181 8.52168779 -0.38012131 7.04230684 -0.5625 5.5625 C-0.66691406 4.73878906 -0.77132813 3.91507813 -0.87890625 3.06640625 C-0.91886719 2.38449219 -0.95882813 1.70257813 -1 1 C-0.67 0.67 -0.34 0.34 0 0 Z " fill="#EFEFEF" transform="translate(259,510)"/>
<path d="M0 0 C1.32 0.66 2.64 1.32 4 2 C2.35 3.65 0.7 5.3 -1 7 C-1.33 6.34 -1.66 5.68 -2 5 C-1.0625 2.375 -1.0625 2.375 0 0 Z " fill="#E4E4E4" transform="translate(594,433)"/>
<path d="M0 0 C1.04005702 3.38018531 1.08004482 6.4780279 1 10 C0.01 10.495 0.01 10.495 -1 11 C-1.66 11.99 -2.32 12.98 -3 14 C-2.40380045 9.13103697 -1.43023178 4.67209049 0 0 Z " fill="#B1B1B1" transform="translate(264,398)"/>
<path d="M0 0 C0.99 1.98 1.98 3.96 3 6 C2.01 6 1.02 6 0 6 C-2.1875 3.5 -2.1875 3.5 -4 1 C-2 0 -2 0 0 0 Z " fill="#E1E1E1" transform="translate(653,319)"/>
<path d="M0 0 C0.33 0 0.66 0 1 0 C1.33 2.97 1.66 5.94 2 9 C0.68 8.34 -0.64 7.68 -2 7 C-1.125 1.125 -1.125 1.125 0 0 Z " fill="#E1E1E1" transform="translate(451,311)"/>
<path d="M0 0 C0.66 0.99 1.32 1.98 2 3 C0.02 3.99 0.02 3.99 -2 5 C-2 5.66 -2 6.32 -2 7 C-3.32 7.33 -4.64 7.66 -6 8 C-4.02 5.36 -2.04 2.72 0 0 Z " fill="#2D2D2D" transform="translate(247,261)"/>
<path d="M0 0 C1.32 0 2.64 0 4 0 C4.66 1.65 5.32 3.3 6 5 C5.34 5.66 4.68 6.32 4 7 C2.35 5.02 0.7 3.04 -1 1 C-0.67 0.67 -0.34 0.34 0 0 Z " fill="#E0E0E0" transform="translate(551,209)"/>
<path d="M0 0 C0.82638376 2.89234315 1 4.88742431 1 8 C-0.32 6.68 -1.64 5.36 -3 4 C-2.01 2.68 -1.02 1.36 0 0 Z " fill="#E7E7E7" transform="translate(749,656)"/>
<path d="M0 0 C0.86625 0.556875 0.86625 0.556875 1.75 1.125 C-0.725 2.61 -0.725 2.61 -3.25 4.125 C-4.24 3.135 -5.23 2.145 -6.25 1.125 C-2.80384615 -1.09038462 -2.80384615 -1.09038462 0 0 Z " fill="#ECECEC" transform="translate(630.25,656.875)"/>
<path d="M0 0 C0.7425 0.0825 1.485 0.165 2.25 0.25 C-2.25 4.25 -2.25 4.25 -6.75 4.25 C-3.42692308 0.31153846 -3.42692308 0.31153846 0 0 Z " fill="#E2E2E2" transform="translate(438.75,550.75)"/>
<path d="M0 0 C0.99 0 1.98 0 3 0 C3 0.66 3 1.32 3 2 C3.66 2 4.32 2 5 2 C4.67 3.98 4.34 5.96 4 8 C2.22293791 5.33440687 1.12451727 2.9719385 0 0 Z " fill="#1A1A1A" transform="translate(706,374)"/>
<path d="M0 0 C1 2 1 2 0.44140625 4.1640625 C0.15136719 4.97617187 -0.13867188 5.78828125 -0.4375 6.625 C-0.72496094 7.44226563 -1.01242188 8.25953125 -1.30859375 9.1015625 C-1.53675781 9.72804688 -1.76492187 10.35453125 -2 11 C-2.33 11 -2.66 11 -3 11 C-3.08096803 9.54257537 -3.13917774 8.08387193 -3.1875 6.625 C-3.22230469 5.81289063 -3.25710937 5.00078125 -3.29296875 4.1640625 C-3.19628906 3.44992187 -3.09960938 2.73578125 -3 2 C-2.01 1.34 -1.02 0.68 0 0 Z " fill="#C5C5C5" transform="translate(187,365)"/>
<path d="M0 0 C2.34058637 2.12780579 3.70700306 4.11562221 5 7 C3 7 1 7 -1 7 C-0.67 4.69 -0.34 2.38 0 0 Z " fill="#191919" transform="translate(668,344)"/>
<path d="M0 0 C0.66 0.66 1.32 1.32 2 2 C0.02 4.97 -1.96 7.94 -4 11 C-5 8 -5 8 -4 5 C-3.34 4.67 -2.68 4.34 -2 4 C-0.86649466 1.98330173 -0.86649466 1.98330173 0 0 Z " fill="#E4E4E4" transform="translate(312,339)"/>
<path d="M0 0 C1.9375 0.6875 1.9375 0.6875 4 2 C4.75 4.625 4.75 4.625 5 7 C2.69 5.35 0.38 3.7 -2 2 C-1.34 1.34 -0.68 0.68 0 0 Z " fill="#D3D3D3" transform="translate(699,225)"/>
<path d="M0 0 C0.66 0.33 1.32 0.66 2 1 C1.67 2.65 1.34 4.3 1 6 C-0.65 5.67 -2.3 5.34 -4 5 C-2.68 3.35 -1.36 1.7 0 0 Z " fill="#1A1A1A" transform="translate(294,216)"/>
<path d="M0 0 C2 0.6875 2 0.6875 4 2.6875 C3.01 3.3475 2.02 4.0075 1 4.6875 C-0.65 3.3675 -2.3 2.0475 -4 0.6875 C-2 -0.3125 -2 -0.3125 0 0 Z " fill="#E8E8E8" transform="translate(674,204.3125)"/>
<path d="M0 0 C0.66 0.33 1.32 0.66 2 1 C-1.96 4.465 -1.96 4.465 -6 8 C-6.66 7.67 -7.32 7.34 -8 7 C-5.36 4.69 -2.72 2.38 0 0 Z " fill="#D9D9D9" transform="translate(579,194)"/>
<path d="M0 0 C-0.33 0.99 -0.66 1.98 -1 3 C-1.99 3.33 -2.98 3.66 -4 4 C-4.33 4.66 -4.66 5.32 -5 6 C-6.32 5.34 -7.64 4.68 -9 4 C-2.25 0 -2.25 0 0 0 Z " fill="#DEDEDE" transform="translate(656,743)"/>
<path d="M0 0 C-2.97 2.475 -2.97 2.475 -6 5 C-6.33 3.68 -6.66 2.36 -7 1 C-3.375 -1.125 -3.375 -1.125 0 0 Z " fill="#DEDEDE" transform="translate(648,645)"/>
<path d="M0 0 C0.66 1.32 1.32 2.64 2 4 C0.02 4.99 -1.96 5.98 -4 7 C-3.43628586 3.73045798 -2.50037734 2.17424117 0 0 Z " fill="#E3E3E3" transform="translate(415,547)"/>
<path d="M0 0 C1.32 0 2.64 0 4 0 C3.814375 0.78375 3.62875 1.5675 3.4375 2.375 C2.74037734 4.97089775 2.74037734 4.97089775 4 7 C3.34 7.66 2.68 8.32 2 9 C1.34 6.03 0.68 3.06 0 0 Z " fill="#272727" transform="translate(180,547)"/>
<path d="M0 0 C2.31 0.33 4.62 0.66 7 1 C7 1.99 7 2.98 7 4 C4.69 3.34 2.38 2.68 0 2 C0 1.34 0 0.68 0 0 Z " fill="#111111" transform="translate(374,210)"/>
<path d="M0 0 C1.65 0 3.3 0 5 0 C4.34 1.65 3.68 3.3 3 5 C1.35 4.67 -0.3 4.34 -2 4 C-1.34 2.68 -0.68 1.36 0 0 Z " fill="#E2E2E2" transform="translate(626,176)"/>
<path d="M0 0 C2.375 0.25 2.375 0.25 5 1 C6.3125 3.0625 6.3125 3.0625 7 5 C6.01 5 5.02 5 4 5 C1.8125 2.5 1.8125 2.5 0 0 Z " fill="#171717" transform="translate(329,616)"/>
<path d="M0 0 C2.18975773 3.28463659 2.99806563 6.20696275 4 10 C3.01 9.67 2.02 9.34 1 9 C0.67 6.03 0.34 3.06 0 0 Z " fill="#3E3E3E" transform="translate(792,366)"/>
<path d="M0 0 C0.33 0.66 0.66 1.32 1 2 C-0.76227632 5.61730402 -2.64326421 7.80075931 -6 10 C-4.34832443 6.4213696 -2.21713508 3.25179812 0 0 Z " fill="#3E3E3E" transform="translate(231,281)"/>
<path d="M0 0 C2.475 0.99 2.475 0.99 5 2 C3.68 3.32 2.36 4.64 1 6 C0.34 5.34 -0.32 4.68 -1 4 C-0.625 1.875 -0.625 1.875 0 0 Z " fill="#E9E9E9" transform="translate(260,240)"/>
<path d="M0 0 C0.99 0 1.98 0 3 0 C3.66 1.65 4.32 3.3 5 5 C4.34 5.66 3.68 6.32 3 7 C0 3.375 0 3.375 0 0 Z " fill="#E0E0E0" transform="translate(416,224)"/>
<path d="M0 0 C1.98 0.66 3.96 1.32 6 2 C5.01 3.32 4.02 4.64 3 6 C1.68 4.35 0.36 2.7 -1 1 C-0.67 0.67 -0.34 0.34 0 0 Z " fill="#DBDBDB" transform="translate(688,216)"/>
<path d="M0 0 C4.875 4.75 4.875 4.75 6 7 C4.68 7.33 3.36 7.66 2 8 C1.34 5.36 0.68 2.72 0 0 Z " fill="#D9D9D9" transform="translate(517,821)"/>
<path d="M0 0 C0.33 0.66 0.66 1.32 1 2 C1.99 2.33 2.98 2.66 4 3 C3.67 3.66 3.34 4.32 3 5 C1.02 4.34 -0.96 3.68 -3 3 C-2.01 2.01 -1.02 1.02 0 0 Z " fill="#222222" transform="translate(335,745)"/>
<path d="M0 0 C-0.33 1.32 -0.66 2.64 -1 4 C-2.98 4.33 -4.96 4.66 -7 5 C-2.25 0 -2.25 0 0 0 Z " fill="#DBDBDB" transform="translate(674,731)"/>
<path d="M0 0 C0.66 0.99 1.32 1.98 2 3 C0.68 4.32 -0.64 5.64 -2 7 C-2.33 6.01 -2.66 5.02 -3 4 C-2.67 3.34 -2.34 2.68 -2 2 C-1.34 2 -0.68 2 0 2 C0 1.34 0 0.68 0 0 Z " fill="#E8E8E8" transform="translate(668,619)"/>
<path d="M0 0 C0.66 0.33 1.32 0.66 2 1 C2 1.66 2 2.32 2 3 C0.37373596 4.38232443 -1.2925002 5.71937515 -3 7 C-3.66 6.67 -4.32 6.34 -5 6 C-3.35 4.02 -1.7 2.04 0 0 Z " fill="#323232" transform="translate(676,614)"/>
<path d="M0 0 C1.5 1.375 1.5 1.375 3 3 C3 3.66 3 4.32 3 5 C2.34 5 1.68 5 1 5 C0.67 5.66 0.34 6.32 0 7 C-0.66 5.68 -1.32 4.36 -2 3 C-1.34 2.01 -0.68 1.02 0 0 Z " fill="#E7E7E7" transform="translate(299,576)"/>
<path d="M0 0 C0.33 0.66 0.66 1.32 1 2 C1.66 2.33 2.32 2.66 3 3 C0.03 5.475 0.03 5.475 -3 8 C-1.125 1.125 -1.125 1.125 0 0 Z " fill="#C7C7C7" transform="translate(272,378)"/>
<path d="M0 0 C-1.12451727 2.9719385 -2.22293791 5.33440687 -4 8 C-4 5.69 -4 3.38 -4 1 C-2 0 -2 0 0 0 Z " fill="#DFDFDF" transform="translate(204,326)"/>
<path d="M0 0 C0.66 1.32 1.32 2.64 2 4 C1.01 4.33 0.02 4.66 -1 5 C-1.66 5.66 -2.32 6.32 -3 7 C-2.25 2.25 -2.25 2.25 0 0 Z " fill="#2A2A2A" transform="translate(489,211)"/>
<path d="M0 0 C0.66 0.33 1.32 0.66 2 1 C1.67 1.99 1.34 2.98 1 4 C0.34 4 -0.32 4 -1 4 C-1.33 4.66 -1.66 5.32 -2 6 C-2.99 6 -3.98 6 -5 6 C-3.86695008 2.60085025 -2.87481525 1.94745549 0 0 Z " fill="#2B2B2B" transform="translate(589,209)"/>
<path d="M0 0 C1.98 0.66 3.96 1.32 6 2 C5.67 2.66 5.34 3.32 5 4 C2.69 3.67 0.38 3.34 -2 3 C-1.34 2.67 -0.68 2.34 0 2 C0 1.34 0 0.68 0 0 Z " fill="#151515" transform="translate(498,209)"/>
<path d="M0 0 C0.66 0.33 1.32 0.66 2 1 C2 1.66 2 2.32 2 3 C0.46875 4.2890625 0.46875 4.2890625 -1.5 5.625 C-2.1496875 6.07101563 -2.799375 6.51703125 -3.46875 6.9765625 C-3.9740625 7.31429687 -4.479375 7.65203125 -5 8 C-3.62845496 5.04590299 -2.01136276 2.55991624 0 0 Z " fill="#CACACA" transform="translate(362,195)"/>
<path d="M0 0 C0.66 0.33 1.32 0.66 2 1 C-0.52788007 3.79872437 -2.20411134 5.45773019 -6 6 C-6 5.34 -6 4.68 -6 4 C-4.03852126 2.61061923 -2.03833424 1.2739589 0 0 Z " fill="#CECECE" transform="translate(483,193)"/>
<path d="M0 0 C2.475 0.495 2.475 0.495 5 1 C3.515 3.475 3.515 3.475 2 6 C1.34 5.67 0.68 5.34 0 5 C0 3.35 0 1.7 0 0 Z " fill="#0C0C0C" transform="translate(524,192)"/>
<path d="M0 0 C2.125 0.9375 2.125 0.9375 4 2 C0.535 3.485 0.535 3.485 -3 5 C-2.625 3.0625 -2.625 3.0625 -2 1 C-1.34 0.67 -0.68 0.34 0 0 Z " fill="#E2E2E2" transform="translate(349,179)"/>
<path d="M0 0 C0 0.33 0 0.66 0 1 C-4.79137588 2.6290678 -8.05632546 3.20577428 -13 2 C-13 1.67 -13 1.34 -13 1 C-8.59085217 -0.10228696 -4.51617599 -0.07654536 0 0 Z " fill="#565656" transform="translate(453,152)"/>
</svg>
