<?xml version="1.0" encoding="UTF-8"?>
<svg version="1.1" xmlns="http://www.w3.org/2000/svg" width="500" height="500">
<path d="M0 0 C1.46397217 0.42659912 1.46397217 0.42659912 2.95751953 0.86181641 C21.10278072 6.28761912 36.98728231 13.97351821 53 24 C53.58394531 24.35916504 54.16789062 24.71833008 54.76953125 25.08837891 C56.21583861 26.00417598 57.61345204 26.99602091 59 28 C59 28.66 59 29.32 59 30 C59.70125 30.226875 60.4025 30.45375 61.125 30.6875 C64.74128535 32.33841288 67.08769976 34.2908835 70 37 C70 37.66 70 38.32 70 39 C70.66 39 71.32 39 72 39 C72 39.66 72 40.32 72 41 C72.66 41 73.32 41 74 41 C74 41.66 74 42.32 74 43 C74.66 43 75.32 43 76 43 C76 43.66 76 44.32 76 45 C76.56203125 45.2165625 77.1240625 45.433125 77.703125 45.65625 C80.77036765 47.45069128 82.52660572 49.73892214 84.75 52.5 C85.54921875 53.4796875 86.3484375 54.459375 87.171875 55.46875 C89 58 89 58 89 60 C89.66 60 90.32 60 91 60 C92.47441249 62.01278717 93.81088973 64.01004306 95.125 66.125 C95.52315918 66.75881592 95.92131836 67.39263184 96.33154297 68.0456543 C97.56524809 70.0239379 98.78429237 72.01061524 100 74 C100.35964844 74.58185059 100.71929687 75.16370117 101.08984375 75.76318359 C108.48052143 87.80092418 113.90805431 100.47133951 117.75 114.0625 C118.02976685 115.05008301 118.02976685 115.05008301 118.31518555 116.05761719 C118.92988025 118.36196397 119.47313311 120.67387735 120 123 C120.26111572 124.13139404 120.52223145 125.26278809 120.79125977 126.4284668 C123.06787173 137.2286815 123.51725856 147.67171124 123.4375 158.6875 C123.43479095 159.56607666 123.43208191 160.44465332 123.42929077 161.34985352 C123.36740335 174.58984579 122.66007542 187.20307235 119 200 C118.80744629 200.70866211 118.61489258 201.41732422 118.41650391 202.14746094 C113.35067795 220.57403255 105.43531216 237.00426604 95 253 C94.58363281 253.66773438 94.16726563 254.33546875 93.73828125 255.0234375 C92.87899831 256.38423502 91.94868579 257.6999491 91 259 C90.34 259 89.68 259 89 259 C88.34 260.65 87.68 262.3 87 264 C86.34 264 85.68 264 85 264 C84.7628125 264.55171875 84.525625 265.1034375 84.28125 265.671875 C82.68754857 268.56774711 80.71082727 270.79512037 78.5 273.25 C77.7059375 274.14203125 76.911875 275.0340625 76.09375 275.953125 C74 278 74 278 72 278 C72 278.66 72 279.32 72 280 C66.32595668 285.37297163 59.8144902 289.96834068 53.5 294.5625 C52.90106934 295.00400391 52.30213867 295.44550781 51.68505859 295.90039062 C47.35472197 299 47.35472197 299 44 299 C44 299.66 44 300.32 44 301 C41.0217182 302.41853215 38.04221028 303.83447122 35.0625 305.25 C33.81629883 305.84361328 33.81629883 305.84361328 32.54492188 306.44921875 C30.86941386 307.2445961 29.19182519 308.03560491 27.51220703 308.82226562 C25.82602821 309.61275412 24.14471689 310.413703 22.46826172 311.22460938 C21.67307129 311.59908203 20.87788086 311.97355469 20.05859375 312.359375 C19.34888428 312.69936523 18.6391748 313.03935547 17.90795898 313.38964844 C16 314 16 314 13 313 C12.01018026 304.62762397 11.4702092 296.32421398 11.26538086 287.89746094 C11.21332277 286.21136625 11.13798719 284.52583477 11.03979492 282.84179688 C10.39754486 271.57670899 10.39754486 271.57670899 12 267 C15.56070743 263.38503024 19.35421056 261.86624805 24 260 C31.61434442 255.05211464 38.41225207 249.22862027 45 243 C45.68449219 242.35675781 46.36898437 241.71351563 47.07421875 241.05078125 C50.33716362 237.89728526 52.72225385 234.95608542 55 231 C55.66 231 56.32 231 57 231 C57.25265625 230.29617188 57.5053125 229.59234375 57.765625 228.8671875 C59.13352614 225.6898475 60.85191288 223.01627224 62.75 220.125 C79.51834029 193.59928608 82.425726 160.20207628 76 130 C72.65969121 116.78072796 66.4434728 103.85915602 58.7265625 92.63671875 C57 90 57 90 57 88 C56.34 88 55.68 88 55 88 C53.7734375 86.49609375 53.7734375 86.49609375 52.375 84.4375 C49.17580283 80.03860388 45.5962589 75.9773337 41 73 C39.68 73 38.36 73 37 73 C37 74.98 37 76.96 37 79 C37.99 79.33 38.98 79.66 40 80 C40 80.66 40 81.32 40 82 C40.66 82 41.32 82 42 82 C43.80642955 84.00106169 45.47471306 85.9998545 47.125 88.125 C47.61637451 88.75736572 48.10774902 89.38973145 48.61401367 90.04125977 C61.69841005 107.23783413 71.16685326 129.12989819 72 151 C72.07734375 152.80597656 72.07734375 152.80597656 72.15625 154.6484375 C72.9527916 182.45168898 64.67662868 210.86002701 46 232 C45.34 232 44.68 232 44 232 C43.7628125 232.56203125 43.525625 233.1240625 43.28125 233.703125 C41.71052303 236.51894042 39.78528536 238.47955416 37.5 240.75 C36.30890625 241.94882812 36.30890625 241.94882812 35.09375 243.171875 C33 245 33 245 31 245 C31 245.66 31 246.32 31 247 C28.91796875 248.7265625 28.91796875 248.7265625 26.1875 250.625 C25.29417969 251.25664062 24.40085937 251.88828125 23.48046875 252.5390625 C21 254 21 254 18 254 C18 254.66 18 255.32 18 256 C16.02 256.66 14.04 257.32 12 258 C10.07177545 256.07177545 10.60693351 252.53828363 10.46875 249.90234375 C10.40645203 248.77638039 10.40645203 248.77638039 10.34289551 247.62767029 C9.81061835 237.28051898 9.67666445 226.92048558 9.5 216.5625 C9.27457191 203.36863619 8.92081998 190.21754247 8.12243652 177.04556274 C7.77869677 171.3026585 7.52936293 165.56406264 7.375 159.8125 C7.26865234 157.94754883 7.26865234 157.94754883 7.16015625 156.04492188 C6.98019705 147.19377085 6.98019705 147.19377085 9.92919922 143.74169922 C12.328125 141.91796875 12.328125 141.91796875 14.72363281 140.48510742 C20.37354874 136.7990887 24.00231747 129.30427004 26 123 C26.42063763 119.86098521 26.4308026 116.75958275 26.41992188 113.59570312 C26.42839142 112.67933578 26.43686096 111.76296844 26.44558716 110.8188324 C26.46888243 107.80616168 26.46998124 104.79400376 26.46875 101.78125 C26.475855 99.67809853 26.48355449 97.57494899 26.49182129 95.47180176 C26.50524815 91.07050176 26.50684241 86.66938112 26.50097656 82.26806641 C26.49507579 76.63557532 26.52569659 71.00394478 26.56609344 65.37162018 C26.59197251 61.03065374 26.59484777 56.68989464 26.59120178 52.34886169 C26.59289216 50.2724745 26.60252677 48.19607765 26.62034607 46.11976624 C26.64254453 43.21402689 26.63282989 40.31003154 26.61523438 37.40429688 C26.62849762 36.55214096 26.64176086 35.69998505 26.65542603 34.82200623 C26.56928809 28.68295618 25.03653174 25.64292714 21 21 C17.10928626 18.64509432 13.48282633 18.59974765 9 19 C6.28643812 20.22804126 6.28643812 20.22804126 4 22 C3.236875 22.556875 2.47375 23.11375 1.6875 23.6875 C1.130625 24.120625 0.57375 24.55375 0 25 C-0.61875 24.195625 -1.2375 23.39125 -1.875 22.5625 C-5.04229061 19.37711059 -8.27613804 19.15215107 -12.62890625 18.92578125 C-15.52847394 19.01654202 -17.51239842 19.49236268 -20 21 C-20.515625 21.556875 -21.03125 22.11375 -21.5625 22.6875 C-22.036875 23.120625 -22.51125 23.55375 -23 24 C-25.1875 23.6875 -25.1875 23.6875 -27 23 C-27 22.34 -27 21.68 -27 21 C-32.50088921 19.01031667 -37.28879129 18.32842672 -43 20 C-46.29804919 22.59633659 -48.53141033 25.08078907 -50 29 C-50.19129878 31.89034247 -50.27317838 34.68321594 -50.25878906 37.57299805 C-50.2622937 38.43694687 -50.26579834 39.30089569 -50.26940918 40.19102478 C-50.27821275 43.04800449 -50.27237958 45.90473649 -50.265625 48.76171875 C-50.26697266 50.75226387 -50.26891403 52.74280867 -50.27142334 54.73335266 C-50.27437325 58.90877409 -50.27008346 63.08410999 -50.26074219 67.25952148 C-50.24938478 72.59456341 -50.25588439 77.92940327 -50.26788712 83.26443768 C-50.27514092 87.37813314 -50.27280102 91.49178134 -50.26763153 95.60547829 C-50.26630283 97.57133826 -50.26791526 99.53720261 -50.27259064 101.50305748 C-50.27770968 104.2621622 -50.26986901 107.02094811 -50.25878906 109.7800293 C-50.26486176 110.9844165 -50.26486176 110.9844165 -50.27105713 112.21313477 C-50.21294598 120.0840305 -49.08738677 127.14925684 -44.6875 133.8125 C-44.11386719 134.70582031 -43.54023438 135.59914062 -42.94921875 136.51953125 C-40.37003795 139.80165512 -37.45840848 142.13984119 -33.86886597 144.25692749 C-32 146 -32 146 -31.53201294 148.59658813 C-31.55508011 150.1587355 -31.55508011 150.1587355 -31.57861328 151.75244141 C-31.58690155 152.9343808 -31.59518982 154.11632019 -31.60372925 155.33407593 C-31.64906296 157.26085678 -31.64906296 157.26085678 -31.6953125 159.2265625 C-31.7135667 160.5776684 -31.73031472 161.9287954 -31.74563599 163.27993774 C-31.79218026 166.81994408 -31.86575799 170.35879373 -31.95002747 173.89808655 C-31.99820403 175.92445922 -32.04185329 177.95093797 -32.08532715 179.97741699 C-32.27211057 188.44022476 -32.52334131 196.90003558 -32.80771637 205.36008835 C-32.87618867 207.4105967 -32.94269813 209.4611609 -33.00872803 211.51174927 C-33.6504967 231.36420093 -34.44791006 251.19463363 -36 271 C-60.92537313 271.53731343 -60.92537313 271.53731343 -68 268 C-70.23356535 257.70808125 -70.33103083 246.91231416 -70.65844727 236.42749023 C-70.83744736 230.8794029 -71.24399135 225.4982447 -72 220 C-72.61133142 214.85418423 -72.9834394 210.11388487 -72 205 C-69.73293426 202.36427124 -67.58941762 200.81852759 -64.578125 199.1015625 C-60.71218141 195.95023273 -59.29356583 192.80483596 -58 188 C-57.428872 181.74094672 -57.48505369 175.51062242 -57.5390625 169.23046875 C-57.54145292 167.38552479 -57.54235099 165.54057837 -57.5418396 163.69563293 C-57.54495968 159.83151956 -57.56144781 155.96777921 -57.58837891 152.10375977 C-57.62209374 147.21046598 -57.63001406 142.31758588 -57.62848854 137.42418957 C-57.6290396 133.61027754 -57.64012677 129.79645163 -57.65449142 125.98256874 C-57.66075295 124.18210817 -57.66477261 122.38163805 -57.66627884 120.58116722 C-57.71752901 91.30624732 -60.06390064 59.39002624 -77.875 34.9375 C-80 32 -80 32 -80 30 C-80.66 30 -81.32 30 -82 30 C-83.625 28.625 -83.625 28.625 -85 27 C-85 26.34 -85 25.68 -85 25 C-85.66 25 -86.32 25 -87 25 C-87 24.34 -87 23.68 -87 23 C-87.7425 22.71125 -88.485 22.4225 -89.25 22.125 C-92 21 -92 21 -93.875 19.8125 C-97.121827 18.57106615 -99.66309748 19.27194854 -103 20 C-106.73972781 22.49315188 -106.959171 23.68605037 -108 28 C-108.27528559 31.01442806 -108.28548623 34.01007697 -108.2784729 37.03561401 C-108.2842653 37.93503853 -108.2900577 38.83446305 -108.29602563 39.76114285 C-108.31300426 42.7690211 -108.31590032 45.7767457 -108.31884766 48.78466797 C-108.3281473 50.94316483 -108.33831602 53.10165809 -108.34928894 55.26014709 C-108.37659887 61.11703539 -108.39174136 66.97389962 -108.40471697 72.83083487 C-108.4203431 78.95277258 -108.44713499 85.07466111 -108.4727478 91.19656372 C-108.51954471 102.78799151 -108.55628445 114.37942855 -108.58942068 125.97090256 C-108.62763558 139.16791897 -108.67704742 152.36488601 -108.72740483 165.5618608 C-108.83073827 192.70787061 -108.91999413 219.85391213 -109 247 C-112.96270089 245.17236588 -115.71694538 242.58081926 -118.75 239.5 C-119.25660156 239.00113281 -119.76320313 238.50226563 -120.28515625 237.98828125 C-124 234.25341139 -124 234.25341139 -124 232 C-124.66 232 -125.32 232 -126 232 C-140.76882262 214.75273129 -151.12749007 190.90338561 -152 168 C-152.0515625 166.79601562 -152.103125 165.59203125 -152.15625 164.3515625 C-152.97206542 135.87555888 -144.51136123 107.70844906 -125.1875 86.44140625 C-122.99563709 84.2111023 -122.99563709 84.2111023 -122 82 C-121.34 82 -120.68 82 -120 82 C-119.505 80.515 -119.505 80.515 -119 79 C-118.34 79 -117.68 79 -117 79 C-117 77.02 -117 75.04 -117 73 C-119.31 73 -121.62 73 -124 73 C-124 73.66 -124 74.32 -124 75 C-124.66 75 -125.32 75 -126 75 C-126.26683594 75.58523437 -126.53367187 76.17046875 -126.80859375 76.7734375 C-128.01937217 79.03620373 -129.3536699 80.71883571 -131.0625 82.625 C-132.66378483 84.4181258 -133.92328158 85.84656316 -135 88 C-135.66 88 -136.32 88 -137 88 C-137.37511719 89.02673828 -137.37511719 89.02673828 -137.7578125 90.07421875 C-139.20530639 93.48356756 -141.00159099 96.62631182 -142.875 99.8125 C-159.20163364 127.65468702 -163.05553464 159.18029227 -155.25 190.5 C-148.71102738 213.43413388 -136.72599197 232.90729726 -119 249 C-118.16645996 249.39219727 -117.33291992 249.78439453 -116.47412109 250.18847656 C-112.94044646 252.14098365 -111.22529234 253.58539001 -109 257 C-107.24122085 265.29837242 -108.06687015 274.08398554 -108.375 282.5 C-108.42519204 284.8723026 -108.47081391 287.24470659 -108.51171875 289.6171875 C-108.62159871 295.41367868 -108.78862011 301.20636956 -109 307 C-113.18050944 306.37367819 -116.22356892 305.59516382 -119.875 303.4375 C-120.65617187 302.98246094 -121.43734375 302.52742188 -122.2421875 302.05859375 C-122.82226562 301.70925781 -123.40234375 301.35992187 -124 301 C-124 300.34 -124 299.68 -124 299 C-124.87640137 298.82102173 -124.87640137 298.82102173 -125.77050781 298.63842773 C-129.53994628 297.55902765 -132.52376143 295.23670426 -135.75 293.0625 C-136.79607422 292.37897461 -136.79607422 292.37897461 -137.86328125 291.68164062 C-139.61476963 290.51112539 -141.31269722 289.26127982 -143 288 C-143 287.34 -143 286.68 -143 286 C-143.598125 285.71125 -144.19625 285.4225 -144.8125 285.125 C-147 284 -147 284 -150 282 C-150 281.34 -150 280.68 -150 280 C-150.804375 279.690625 -150.804375 279.690625 -151.625 279.375 C-154.91978009 277.46749574 -157.59363628 274.95180616 -160 272 C-160 271.34 -160 270.68 -160 270 C-160.66 270 -161.32 270 -162 270 C-165 266.53846154 -165 266.53846154 -165 264 C-165.66 264 -166.32 264 -167 264 C-167.66 262.35 -168.32 260.7 -169 259 C-169.66 259 -170.32 259 -171 259 C-172.5107018 256.90314591 -173.89323479 254.81885844 -175.25 252.625 C-175.65331543 251.98159668 -176.05663086 251.33819336 -176.47216797 250.67529297 C-177.28318268 249.37799319 -178.09100311 248.07869065 -178.89550781 246.77734375 C-179.80730648 245.31008153 -180.74068102 243.85625071 -181.6796875 242.40625 C-186.36036199 235.01837459 -189.66917734 227.05878807 -193 219 C-193.57234375 217.66388672 -193.57234375 217.66388672 -194.15625 216.30078125 C-198.02159862 206.62182363 -199.85453201 196.16859215 -202 186 C-202.17942139 185.18869629 -202.35884277 184.37739258 -202.54370117 183.54150391 C-209.80778293 143.0818511 -197.83062548 100.47979912 -175.8046875 66.578125 C-173.23757837 62.91082624 -170.45725028 59.44166298 -167.6015625 55.99609375 C-165.95752379 54.09082041 -165.95752379 54.09082041 -165 52 C-164.34 52 -163.68 52 -163 52 C-162.61328125 51.12601563 -162.61328125 51.12601563 -162.21875 50.234375 C-160.90165983 47.8197097 -159.44911616 46.18259823 -157.5 44.25 C-156.58734375 43.32960938 -156.58734375 43.32960938 -155.65625 42.390625 C-154 41 -154 41 -152 41 C-152 40.34 -152 39.68 -152 39 C-151.34 39 -150.68 39 -150 39 C-150 38.34 -150 37.68 -150 37 C-148.06101463 35.25767875 -146.12204563 33.65274024 -144.0625 32.0625 C-143.12011475 31.33377686 -143.12011475 31.33377686 -142.15869141 30.59033203 C-123.65840821 16.50071238 -103.48757062 6.14029034 -81 0 C-80.23719727 -0.21027832 -79.47439453 -0.42055664 -78.68847656 -0.63720703 C-54.44156208 -6.95140352 -24.07882131 -7.06666124 0 0 Z " fill="#080808" transform="translate(290,80)"/>
<path d="M0 0 C1.134375 0.144375 2.26875 0.28875 3.4375 0.4375 C5.88678341 4.11142511 5.73025764 6.88460982 5.72460938 11.13427734 C5.73144241 11.91672318 5.73827545 12.69916901 5.74531555 13.50532532 C5.75890491 15.20443218 5.76795733 16.90357997 5.77302551 18.60273361 C5.7813099 21.29288748 5.80181124 23.98270111 5.82556152 26.67276001 C5.87381353 32.38595622 5.90672338 38.09918643 5.9375 43.8125 C5.97317453 50.42617002 6.01513179 57.03967428 6.07344055 63.6531868 C6.09348974 66.30155899 6.10182543 68.94980387 6.10974121 71.59823608 C6.12271695 73.22613993 6.13623775 74.85403956 6.15039062 76.48193359 C6.14940872 77.2166539 6.14842682 77.95137421 6.14741516 78.70835876 C6.19592262 82.71930266 6.66554735 85.82382889 8.4375 89.4375 C11.85392759 89.68765873 11.85392759 89.68765873 15.4375 89.4375 C17.93651047 85.68898429 17.72310068 82.75763832 17.70874023 78.41772461 C17.71396698 77.60119919 17.71919373 76.78467377 17.72457886 75.94340515 C17.73482048 74.17061728 17.74059955 72.39779932 17.74246025 70.62498283 C17.74611672 67.82223764 17.76282185 65.01984856 17.78321838 62.21717834 C17.83871141 54.248938 17.86937612 46.28064559 17.89379883 38.31225586 C17.90963598 33.43928464 17.93981093 28.56656748 17.97856331 23.69372749 C17.99024432 21.83375295 17.99614393 19.97373306 17.99624443 18.11372185 C17.99643558 15.51816999 18.01463357 12.92332365 18.03686523 10.32788086 C18.02999947 9.16754333 18.02999947 9.16754333 18.022995 7.98376465 C18.05223083 5.8467865 18.05223083 5.8467865 18.4375 2.4375 C21.90673881 0.12467413 23.35955575 0.01271414 27.4375 0.4375 C29.09996033 1.46252441 29.09996033 1.46252441 30.4375 3.4375 C30.73679897 6.14995549 30.85446507 8.63592218 30.83813477 11.34960938 C30.84860336 12.55735771 30.84860336 12.55735771 30.85928345 13.789505 C30.87929462 16.45352586 30.87876012 19.1171606 30.87890625 21.78125 C30.8906736 23.63066661 30.90403624 25.4800737 30.91893005 27.32946777 C30.95516134 32.20106272 30.97533137 37.07257332 30.99047852 41.9442749 C31.01528475 49.74249576 31.05487196 57.54053016 31.11237907 65.33857727 C31.12873816 68.06572795 31.13248862 70.79270369 31.13539124 73.51989746 C31.14516573 75.18839828 31.15542871 76.85689633 31.16625977 78.52539062 C31.16243034 79.66630913 31.16243034 79.66630913 31.15852356 80.83027649 C31.19516972 84.57734684 31.30463656 86.23820484 33.4375 89.4375 C36.97937831 89.77088596 36.97937831 89.77088596 40.4375 89.4375 C42.41264324 87.46235676 41.60173421 83.57822262 41.61108398 80.87597656 C41.617771 80.08406921 41.62445801 79.29216187 41.63134766 78.47625732 C41.64543262 76.75036429 41.65731559 75.02445224 41.66729546 73.29853058 C41.68366276 70.56660616 41.70690042 67.83482177 41.73219299 65.10296631 C41.80307451 57.33336334 41.86302431 49.56370179 41.91430664 41.79394531 C41.94612432 37.04649222 41.9874126 32.29919722 42.03450203 27.55187225 C42.05051199 25.7418274 42.06283821 23.93174606 42.07140923 22.1216507 C42.08358248 19.58647151 42.10774245 17.05166259 42.13452148 14.51660156 C42.13511063 13.76938843 42.13569977 13.02217529 42.13630676 12.25231934 C42.19243664 8.23597972 42.52013908 5.00427219 44.4375 1.4375 C47.26633747 0.02308126 49.31126745 0.11849668 52.4375 0.4375 C55.2069914 2.91509954 55.44167375 4.48037109 55.80499268 8.2122345 C55.81671457 9.76099721 55.81184024 11.30993889 55.79394531 12.85864258 C55.79701187 14.13012398 55.79701187 14.13012398 55.80014038 15.42729187 C55.80314793 18.22909126 55.78466688 21.03030176 55.765625 23.83203125 C55.76256622 25.78252517 55.760691 27.73302128 55.75994873 29.68351746 C55.75534524 33.77322746 55.74092121 37.86274062 55.71875 41.95239258 C55.69052399 47.1844583 55.67954378 52.41636868 55.6750679 57.6485033 C55.67090123 61.67805015 55.66107246 65.70756588 55.64919281 69.73709679 C55.64350998 71.66553183 55.6387448 73.59396981 55.63492584 75.52240944 C55.62801673 78.22438356 55.61436112 80.92623836 55.59863281 83.62817383 C55.59751495 84.41958771 55.59639709 85.21100159 55.59524536 86.02639771 C55.52574869 95.0849278 54.38049231 101.39537362 48.4375 108.4375 C44.69216082 111.88091165 41.41350959 114.29465966 36.4375 115.4375 C36.47064301 116.40895462 36.50378601 117.38040924 36.53793335 118.38130188 C36.61202957 120.553141 36.6861197 122.72498033 36.76019764 124.89682007 C36.90973214 129.28084097 37.05933853 133.6648594 37.20906067 138.0488739 C37.51429764 146.98929611 37.81888893 155.92973875 38.12086773 164.87027168 C38.29249113 169.95128595 38.46450801 175.03228685 38.63671875 180.11328125 C38.67096514 181.12398808 38.70521152 182.1346949 38.74049568 183.17602921 C39.16536807 195.69507418 39.60824961 208.21318283 40.08203125 220.73046875 C40.90596864 242.66564845 41.64105038 264.59920586 41.78897095 286.55102539 C41.80443592 288.65362048 41.82604231 290.75618103 41.8543396 292.85864258 C41.88964161 295.71470031 41.89826049 298.56953341 41.8984375 301.42578125 C41.91271286 302.25709061 41.92698822 303.08839996 41.94169617 303.94490051 C41.90009167 309.2518425 40.92243844 312.20910269 37.4375 316.4375 C32.56792172 320.94185991 29.13581659 321.77134417 22.5234375 321.6484375 C17.4790314 321.13832902 13.80341661 319.17309425 10.5625 315.375 C6.08087876 309.1798177 7.24462956 302.30344267 7.25390625 294.92578125 C7.2539673 294.0921084 7.25402836 293.25843555 7.25409126 292.39949989 C7.28345989 265.6572008 8.29397423 238.92434326 9.16248572 212.19887173 C9.40033716 204.87017819 9.62989068 197.54123082 9.85930431 190.21226919 C10.64072845 165.28423142 11.44476153 140.35819763 12.4375 115.4375 C11.4875415 115.13279785 10.53758301 114.8280957 9.55883789 114.51416016 C2.96030682 112.23809273 -0.98605088 107.33384297 -4.6171875 101.5625 C-6.9858255 96.23795838 -6.71568839 90.36634094 -6.72363281 84.64990234 C-6.72859772 83.78738358 -6.73356262 82.92486481 -6.73867798 82.03620911 C-6.75321933 79.19861033 -6.76008567 76.36106732 -6.765625 73.5234375 C-6.77137999 71.54619343 -6.77713768 69.56894937 -6.78289795 67.59170532 C-6.7933829 63.45436341 -6.79924297 59.31704081 -6.80273438 55.1796875 C-6.80823521 49.87555663 -6.83230756 44.57168038 -6.86070633 39.26762962 C-6.87930982 35.18760422 -6.88453693 31.10764069 -6.88607025 27.02757645 C-6.88909894 25.07152529 -6.89713475 23.11547528 -6.91025543 21.15946579 C-6.92727931 18.42821381 -6.92544551 15.69759186 -6.91894531 12.96630859 C-6.9281601 12.15790024 -6.93737488 11.34949188 -6.9468689 10.5165863 C-6.92258485 7.26504891 -6.77340199 4.84412493 -5.26287842 1.93179321 C-3.5625 0.4375 -3.5625 0.4375 0 0 Z " fill="#0C0C0C" transform="translate(253.5625,105.5625)"/>
<path d="M0 0 C8.28263352 1.45101583 13.08309738 7.70624652 17.96875 14.203125 C19 16 19 16 19 19 C19.66 19 20.32 19 21 19 C33.87847419 43.65055025 35.14236355 70.77841792 35.203125 98.03515625 C35.20736607 99.34049726 35.20736607 99.34049726 35.21169281 100.67220879 C35.22652092 105.25795655 35.23585911 109.84367407 35.24023438 114.42944336 C35.24576401 119.14335588 35.26993197 123.85698612 35.29820633 128.57080936 C35.31684357 132.22459239 35.3220384 135.87830657 35.32357025 139.5321331 C35.3265836 141.27079283 35.33456728 143.00945172 35.34775543 144.74806404 C35.36487534 147.17349227 35.36292403 149.59821696 35.35644531 152.02368164 C35.37026749 153.0843409 35.37026749 153.0843409 35.3843689 154.16642761 C35.33478168 160.11465134 34.06823923 164.90964057 29.80859375 169.21484375 C29.02613281 169.78332031 28.24367187 170.35179687 27.4375 170.9375 C26.25994141 171.81728516 26.25994141 171.81728516 25.05859375 172.71484375 C23 174 23 174 21 174 C20.00548993 178.72576114 20.04124398 183.05658146 20.453125 187.83203125 C20.51297073 188.60001038 20.57281647 189.3679895 20.63447571 190.15924072 C20.76508934 191.83068819 20.89877784 193.50189759 21.03518677 195.17288208 C21.40889454 199.76499091 21.75665809 204.35906836 22.10546875 208.953125 C22.17962509 209.92472061 22.25378143 210.89631622 22.33018494 211.89735413 C23.18881412 223.27858284 23.87993948 234.66957789 24.5625 246.0625 C24.62462677 247.09717407 24.68675354 248.13184814 24.75076294 249.19787598 C24.99556747 253.27696593 25.24015719 257.35606822 25.48356628 261.4352417 C25.85253845 267.60360732 26.23550573 273.77089695 26.6328125 279.9375 C26.68096603 280.68849472 26.72911957 281.43948944 26.7787323 282.21324158 C26.99688093 285.61314361 27.21723059 289.01285699 27.44165039 292.41235352 C28.59678411 310.42471371 28.59678411 310.42471371 26 315 C22.18279648 319.30658858 20.04141278 320.82988227 14.25 321.3125 C9.48202498 321.24225359 6.84740114 319.7912518 3 317 C0.38695645 313.41199523 -0.37445605 310.92333911 -0.36914349 306.51214123 C-0.37511663 305.41536657 -0.38108978 304.3185919 -0.38724393 303.18858165 C-0.3785054 301.98916998 -0.36976688 300.78975832 -0.36076355 299.55400085 C-0.36332682 298.27566039 -0.3658901 296.99731993 -0.36853105 295.68024188 C-0.3752392 292.13414547 -0.363239 288.58832088 -0.34819686 285.0422591 C-0.33524544 281.21749881 -0.33962533 277.39275395 -0.34190369 273.56797791 C-0.34347699 266.94202224 -0.33406186 260.31615517 -0.31719017 253.69022179 C-0.29281243 244.11024067 -0.28499616 234.53030241 -0.2812262 224.95029364 C-0.27465979 209.40751196 -0.25469348 193.86477752 -0.22631836 178.32202148 C-0.19878269 163.22339108 -0.1775467 148.12477349 -0.16479492 133.02612305 C-0.16400675 132.09549404 -0.16321858 131.16486504 -0.16240653 130.20603516 C-0.15849142 125.53735818 -0.1547003 120.86868111 -0.15097082 116.20000398 C-0.11986901 77.46663625 -0.06702805 38.73332124 0 0 Z " fill="#070707" transform="translate(190,106)"/>
<path d="M0 0 C1.8408987 0.23931683 3.67319395 0.54490881 5.5 0.875 C11.84193164 1.92494202 18.10575521 2.38908203 24.52539062 2.65771484 C29.90222944 2.90222944 29.90222944 2.90222944 31 4 C31.10022316 5.82330511 31.13081369 7.65050603 31.1328125 9.4765625 C31.13482666 10.61625488 31.13684082 11.75594727 31.13891602 12.93017578 C31.13432373 14.14946777 31.12973145 15.36875977 31.125 16.625 C31.12234131 17.8507373 31.11968262 19.07647461 31.11694336 20.33935547 C30.98804936 45.01195064 30.98804936 45.01195064 29 47 C26.32267086 47.10159508 23.67721627 47.14076323 21 47.125 C20.22922119 47.12306641 19.45844238 47.12113281 18.66430664 47.11914062 C13.37722351 47.07902365 8.23770796 46.76184843 3 46 C0.9965377 40.91452358 0.57261435 36.3069175 0.33203125 30.91796875 C0.28809738 30.06318436 0.24416351 29.20839996 0.19889832 28.32771301 C0.10845568 26.53190679 0.02212691 24.73588913 -0.06030273 22.93969727 C-0.18791245 20.1785758 -0.33028512 17.41849631 -0.47460938 14.65820312 C-0.56076464 12.91150097 -0.64608109 11.16475719 -0.73046875 9.41796875 C-0.77310349 8.58887497 -0.81573822 7.75978119 -0.85966492 6.90556335 C-0.94663695 4.93840818 -0.97902656 2.96896514 -1 1 C-0.67 0.67 -0.34 0.34 0 0 Z " fill="#101010" transform="translate(223,356)"/>
<path d="M0 0 C0.66 0.33 1.32 0.66 2 1 C0.02 1.99 0.02 1.99 -2 3 C-1.98081009 4.04569656 -1.96162018 5.09139313 -1.94184875 6.16877747 C-1.76317973 16.01272089 -1.60044964 25.85681524 -1.45341206 35.70128345 C-1.37729959 40.76270261 -1.29552983 45.82389975 -1.20092773 50.88500977 C-1.1098761 55.76722407 -1.03355884 60.64946481 -0.96755028 65.5320797 C-0.93973095 67.39692494 -0.90655942 69.26169811 -0.86800575 71.12635231 C-0.81500028 73.73374344 -0.7808551 76.34073969 -0.7512207 78.94848633 C-0.73108414 79.72316254 -0.71094757 80.49783875 -0.69020081 81.29598999 C-0.65850267 86.5486162 -0.65850267 86.5486162 -2.51554871 89.0032196 C-3.00541763 89.33215714 -3.49528656 89.66109467 -4 90 C-4.66 89.67 -5.32 89.34 -6 89 C-5.34 88.01 -4.68 87.02 -4 86 C-3.8022941 83.29314494 -3.71980131 80.68758528 -3.72875977 77.98022461 C-3.72091965 76.75543648 -3.72091965 76.75543648 -3.71292114 75.50590515 C-3.70267952 73.73311728 -3.69690045 71.96029932 -3.69503975 70.18748283 C-3.69138328 67.38473764 -3.67467815 64.58234856 -3.65428162 61.77967834 C-3.59878859 53.811438 -3.56812388 45.84314559 -3.54370117 37.87475586 C-3.52786402 33.00178464 -3.49768907 28.12906748 -3.45893669 23.25622749 C-3.44725568 21.39625295 -3.44135607 19.53623306 -3.44125557 17.67622185 C-3.44106442 15.08066999 -3.42286643 12.48582365 -3.40063477 9.89038086 C-3.40521194 9.11682251 -3.40978912 8.34326416 -3.414505 7.54626465 C-3.38526917 5.4092865 -3.38526917 5.4092865 -3 2 C-2.01 1.34 -1.02 0.68 0 0 Z " fill="#353535" transform="translate(275,106)"/>
<path d="M0 0 C0 3.66587024 -1.28708571 4.95853912 -3.63671875 7.65234375 C-5.26821918 9.26514503 -6.91890217 10.06014937 -9 11 C-10.37086915 12.29470975 -11.71340837 13.62150897 -13 15 C-13.66 14.34 -14.32 13.68 -15 13 C-13.68 12.34 -12.36 11.68 -11 11 C-11 10.34 -11 9.68 -11 9 C-10.34 9 -9.68 9 -9 9 C-9 8.34 -9 7.68 -9 7 C-7.03125 5.2734375 -7.03125 5.2734375 -4.5 3.375 C-3.24703125 2.42753906 -3.24703125 2.42753906 -1.96875 1.4609375 C-0.99421875 0.73777344 -0.99421875 0.73777344 0 0 Z " fill="#484848" transform="translate(149,110)"/>
<path d="M0 0 C0.33 0.99 0.66 1.98 1 3 C-2.91176471 8.58823529 -2.91176471 8.58823529 -6.3125 9.875 C-6.869375 9.91625 -7.42625 9.9575 -8 10 C-8 9.34 -8 8.68 -8 8 C-7.34 8 -6.68 8 -6 8 C-5.7525 7.4225 -5.505 6.845 -5.25 6.25 C-3.83316683 3.6997003 -2.12372463 1.98214299 0 0 Z " fill="#6C6C6C" transform="translate(133,124)"/>
<path d="M0 0 C0.33 0.99 0.66 1.98 1 3 C-0.36328125 5.26171875 -0.36328125 5.26171875 -2.3125 7.6875 C-2.94800781 8.49574219 -3.58351563 9.30398437 -4.23828125 10.13671875 C-4.81964844 10.75160156 -5.40101562 11.36648437 -6 12 C-6.66 12 -7.32 12 -8 12 C-6.59023295 8.96147295 -4.91129772 6.4060405 -2.875 3.75 C-2.06675781 2.69039062 -2.06675781 2.69039062 -1.2421875 1.609375 C-0.83226563 1.07828125 -0.42234375 0.5471875 0 0 Z " fill="#5D5D5D" transform="translate(124,134)"/>
<path d="M0 0 C0.66 0 1.32 0 2 0 C1.68289062 0.52078125 1.36578125 1.0415625 1.0390625 1.578125 C-0.28920511 4.67408709 -0.42364247 7.39404121 -0.625 10.75 C-0.69976562 11.92046875 -0.77453125 13.0909375 -0.8515625 14.296875 C-0.90054688 15.18890625 -0.94953125 16.0809375 -1 17 C-1.33 17 -1.66 17 -2 17 C-2.05383848 14.54137599 -2.09359038 12.0839245 -2.125 9.625 C-2.14175781 8.92632812 -2.15851563 8.22765625 -2.17578125 7.5078125 C-2.19344267 5.67102514 -2.10303261 3.83398037 -2 2 C-1.34 1.34 -0.68 0.68 0 0 Z " fill="#7E7E7E" transform="translate(220,283)"/>
<path d="M0 0 C-1.29299694 2.88437779 -2.65941363 4.87219421 -5 7 C-5 6.34 -5 5.68 -5 5 C-6.32 5.33 -7.64 5.66 -9 6 C-3.15384615 0 -3.15384615 0 0 0 Z " fill="#464646" transform="translate(162,102)"/>
<path d="M0 0 C0 3 0 3 -1.75 4.82421875 C-2.4925 5.43910156 -3.235 6.05398438 -4 6.6875 C-4.7425 7.31011719 -5.485 7.93273437 -6.25 8.57421875 C-6.8275 9.04472656 -7.405 9.51523437 -8 10 C-8.66 9.67 -9.32 9.34 -10 9 C-6.7 6.03 -3.4 3.06 0 0 Z " fill="#5B5B5B" transform="translate(333,325)"/>
<path d="M0 0 C0.66 0 1.32 0 2 0 C0.55746343 3.36591866 -1.33264727 5.51047079 -4 8 C-4.66 7.34 -5.32 6.68 -6 6 C-4.68 5.34 -3.36 4.68 -2 4 C-2 3.34 -2 2.68 -2 2 C-1.34 2 -0.68 2 0 2 C0 1.34 0 0.68 0 0 Z " fill="#585858" transform="translate(140,117)"/>
<path d="M0 0 C0.99 1.32 1.98 2.64 3 4 C2.360625 4.268125 1.72125 4.53625 1.0625 4.8125 C-1.33131686 5.88667752 -1.33131686 5.88667752 -2 9 C-2.66 9 -3.32 9 -4 9 C-2.80100302 5.9168649 -1.52299523 2.93720508 0 0 Z " fill="#4F4F4F" transform="translate(155,179)"/>
<path d="M0 0 C-0.33 1.65 -0.66 3.3 -1 5 C-3.31 4.67 -5.62 4.34 -8 4 C-6.4425489 0.88509781 -3.40085499 0 0 0 Z " fill="#515151" transform="translate(186,89)"/>
</svg>
