<?xml version="1.0" encoding="UTF-8"?>
<svg version="1.1" xmlns="http://www.w3.org/2000/svg" width="500" height="500">
<path d="M0 0 C1.48782678 0.00350001 1.48782678 0.00350001 3.00571066 0.00707072 C4.71545267 0.00745914 4.71545267 0.00745914 6.45973492 0.00785542 C7.72779793 0.01329497 8.99586094 0.01873452 10.3023501 0.0243389 C11.65059685 0.02659886 12.99884438 0.02842371 14.34709227 0.02984798 C18.06930648 0.03508742 21.79147879 0.04666202 25.51367444 0.05924708 C29.5212235 0.0717315 33.52878274 0.07848445 37.53634363 0.08599967 C45.39428327 0.10172811 53.25219818 0.12306362 61.11011802 0.14657769 C67.49403729 0.16565797 73.8779589 0.1831527 80.2618857 0.19951552 C98.34123334 0.2460363 116.42056214 0.29675977 134.49988263 0.35285858 C135.96336769 0.35739901 135.96336769 0.35739901 137.4564181 0.36203116 C138.43325901 0.36506266 139.41009991 0.36809415 140.41654206 0.37121751 C156.25486914 0.42011393 172.09320302 0.45904398 187.9315676 0.49345211 C204.17443186 0.52885187 220.41726196 0.57164265 236.66008627 0.62220752 C245.78718911 0.65046816 254.91427671 0.67562986 264.04140764 0.6928665 C271.81143972 0.70759941 279.5814149 0.72916513 287.35140144 0.75974164 C291.31916298 0.7751567 295.28686543 0.78729599 299.25465685 0.79084319 C302.88223605 0.79416685 306.50966282 0.80657704 310.13718814 0.82643493 C312.08119537 0.83466475 314.02523652 0.8330137 315.96926022 0.83108997 C317.11169597 0.83917216 318.25413172 0.84725436 319.43118674 0.85558146 C320.42323361 0.85840186 321.41528048 0.86122225 322.43738937 0.86412811 C324.78136927 1.1200878 324.78136927 1.1200878 326.78136927 3.1200878 C326.97662121 5.63878684 327.0462938 8.04733157 327.02860743 10.56700248 C327.03102184 11.34388071 327.03343626 12.12075894 327.03592384 12.92117894 C327.04158392 15.53842864 327.03288045 18.15543675 327.02428919 20.77267569 C327.02536149 22.64324623 327.0272994 24.51381645 327.03004175 26.38438529 C327.0349012 31.47511335 327.02722099 36.56575416 327.01708871 41.65647167 C327.00832729 46.97315441 327.01006528 52.28983425 327.01044947 57.60652274 C327.00951203 66.53529437 327.00081696 75.46403209 326.98717982 84.39279288 C326.97144866 94.73110102 326.96618183 105.069372 326.96691537 115.40769124 C326.96752471 125.33463487 326.96242815 135.26156633 326.95412356 145.18850631 C326.95058356 149.42175948 326.94875929 153.65500835 326.94822985 157.88826293 C326.94722879 162.86795344 326.94115165 167.84761248 326.93106371 172.82729262 C326.92813121 174.66034997 326.92691485 176.49341095 326.92749125 178.32647055 C326.92797837 180.81773328 326.92236172 183.30890646 326.91508204 185.80015677 C326.91663064 186.53515987 326.91817924 187.27016296 326.91977477 188.02743888 C326.89554787 193.0059092 326.89554787 193.0059092 325.78136927 194.1200878 C324.03604641 194.21836083 322.28670455 194.24564384 320.53861719 194.24592894 C319.3946891 194.24853669 318.250761 194.25114444 317.07216841 194.25383121 C315.79953233 194.25160049 314.52689625 194.24936976 313.21569544 194.24707144 C311.86261013 194.24822232 310.50952513 194.24980961 309.15644079 194.25179869 C305.42090614 194.2559967 301.68539684 194.25389921 297.94986206 194.25081247 C293.92800793 194.2485605 289.90615831 194.25203697 285.88430506 194.25479239 C277.99863875 194.25925127 270.11298193 194.2582731 262.22731525 194.25537975 C255.82145347 194.25312618 249.41559436 194.252813 243.00973231 194.25390357 C242.09983803 194.2540568 241.18994376 194.25421003 240.25247693 194.25436791 C238.40434819 194.25468762 236.55621946 194.25501183 234.70809072 194.2553405 C217.3567789 194.25819564 200.00547235 194.25490775 182.65416139 194.24954014 C167.74897023 194.24507207 152.84378685 194.24584799 137.93859583 194.2504589 C120.65159482 194.25580407 103.36459844 194.25792094 86.07759672 194.25484663 C84.23606656 194.25452807 82.3945364 194.2542137 80.55300623 194.25390357 C79.64681376 194.25374929 78.7406213 194.25359502 77.80696845 194.25343607 C71.40491009 194.25257074 65.00285466 194.25403412 58.60079676 194.25638312 C50.80441607 194.25918069 43.00804546 194.25844378 35.21166593 194.25310238 C31.22985552 194.25046477 27.24806193 194.24946129 23.26625162 194.25275153 C19.62706233 194.25571329 15.9879056 194.25412371 12.3487193 194.24877398 C10.39600289 194.24711309 8.44328425 194.25040842 6.49057013 194.25383121 C5.34664203 194.25122346 4.20271393 194.24861571 3.02412134 194.24592894 C2.02865699 194.24576659 1.03319264 194.24560424 0.0075627 194.24543697 C-2.21863073 194.1200878 -2.21863073 194.1200878 -3.21863073 193.1200878 C-3.31631295 190.69159309 -3.34859604 188.29157417 -3.33888525 185.86262625 C-3.33973967 185.09406399 -3.3405941 184.32550172 -3.34147441 183.53364968 C-3.34313154 180.93865995 -3.33760407 178.34373377 -3.33215612 175.74874991 C-3.33187427 173.89640923 -3.33203194 172.04406843 -3.33259863 170.19172782 C-3.3328867 165.14648369 -3.32698846 160.10126312 -3.32002467 155.05602449 C-3.31379268 149.78958411 -3.31318746 144.52314324 -3.31199926 139.25669974 C-3.30888549 129.27650822 -3.30067148 119.2963276 -3.29064977 109.31614089 C-3.27949007 97.9572059 -3.27397854 86.59827041 -3.26895434 75.23933131 C-3.2584889 51.86624409 -3.24088857 28.49316655 -3.21863073 5.1200878 C-3.87863073 5.1200878 -4.53863073 5.1200878 -5.21863073 5.1200878 C-2.81489227 0.15236164 -2.81489227 0.15236164 0 0 Z M10.78136927 17.1200878 C10.78136927 70.2500878 10.78136927 123.3800878 10.78136927 178.1200878 C110.11136927 178.1200878 209.44136927 178.1200878 311.78136927 178.1200878 C311.78136927 124.9900878 311.78136927 71.8600878 311.78136927 17.1200878 C212.45136927 17.1200878 113.12136927 17.1200878 10.78136927 17.1200878 Z " fill="#231F20" transform="translate(88.2186307311058,143.87991219758987)"/>
<path d="M0 0 C1.48782678 0.00350001 1.48782678 0.00350001 3.00571066 0.00707072 C4.71545267 0.00745914 4.71545267 0.00745914 6.45973492 0.00785542 C7.72779793 0.01329497 8.99586094 0.01873452 10.3023501 0.0243389 C11.65059685 0.02659886 12.99884438 0.02842371 14.34709227 0.02984798 C18.06930648 0.03508742 21.79147879 0.04666202 25.51367444 0.05924708 C29.5212235 0.0717315 33.52878274 0.07848445 37.53634363 0.08599967 C45.39428327 0.10172811 53.25219818 0.12306362 61.11011802 0.14657769 C67.49403729 0.16565797 73.8779589 0.1831527 80.2618857 0.19951552 C98.34123334 0.2460363 116.42056214 0.29675977 134.49988263 0.35285858 C135.96336769 0.35739901 135.96336769 0.35739901 137.4564181 0.36203116 C138.43325901 0.36506266 139.41009991 0.36809415 140.41654206 0.37121751 C156.25486914 0.42011393 172.09320302 0.45904398 187.9315676 0.49345211 C204.17443186 0.52885187 220.41726196 0.57164265 236.66008627 0.62220752 C245.78718911 0.65046816 254.91427671 0.67562986 264.04140764 0.6928665 C271.81143972 0.70759941 279.5814149 0.72916513 287.35140144 0.75974164 C291.31916298 0.7751567 295.28686543 0.78729599 299.25465685 0.79084319 C302.88223605 0.79416685 306.50966282 0.80657704 310.13718814 0.82643493 C312.08119537 0.83466475 314.02523652 0.8330137 315.96926022 0.83108997 C317.11169597 0.83917216 318.25413172 0.84725436 319.43118674 0.85558146 C320.42323361 0.85840186 321.41528048 0.86122225 322.43738937 0.86412811 C324.78136927 1.1200878 324.78136927 1.1200878 326.78136927 3.1200878 C326.97662121 5.63878684 327.0462938 8.04733157 327.02860743 10.56700248 C327.03102184 11.34388071 327.03343626 12.12075894 327.03592384 12.92117894 C327.04158392 15.53842864 327.03288045 18.15543675 327.02428919 20.77267569 C327.02536149 22.64324623 327.0272994 24.51381645 327.03004175 26.38438529 C327.0349012 31.47511335 327.02722099 36.56575416 327.01708871 41.65647167 C327.00832729 46.97315441 327.01006528 52.28983425 327.01044947 57.60652274 C327.00951203 66.53529437 327.00081696 75.46403209 326.98717982 84.39279288 C326.97144866 94.73110102 326.96618183 105.069372 326.96691537 115.40769124 C326.96752471 125.33463487 326.96242815 135.26156633 326.95412356 145.18850631 C326.95058356 149.42175948 326.94875929 153.65500835 326.94822985 157.88826293 C326.94722879 162.86795344 326.94115165 167.84761248 326.93106371 172.82729262 C326.92813121 174.66034997 326.92691485 176.49341095 326.92749125 178.32647055 C326.92797837 180.81773328 326.92236172 183.30890646 326.91508204 185.80015677 C326.91663064 186.53515987 326.91817924 187.27016296 326.91977477 188.02743888 C326.89554787 193.0059092 326.89554787 193.0059092 325.78136927 194.1200878 C324.03604641 194.21836083 322.28670455 194.24564384 320.53861719 194.24592894 C319.3946891 194.24853669 318.250761 194.25114444 317.07216841 194.25383121 C315.79953233 194.25160049 314.52689625 194.24936976 313.21569544 194.24707144 C311.86261013 194.24822232 310.50952513 194.24980961 309.15644079 194.25179869 C305.42090614 194.2559967 301.68539684 194.25389921 297.94986206 194.25081247 C293.92800793 194.2485605 289.90615831 194.25203697 285.88430506 194.25479239 C277.99863875 194.25925127 270.11298193 194.2582731 262.22731525 194.25537975 C255.82145347 194.25312618 249.41559436 194.252813 243.00973231 194.25390357 C242.09983803 194.2540568 241.18994376 194.25421003 240.25247693 194.25436791 C238.40434819 194.25468762 236.55621946 194.25501183 234.70809072 194.2553405 C217.3567789 194.25819564 200.00547235 194.25490775 182.65416139 194.24954014 C167.74897023 194.24507207 152.84378685 194.24584799 137.93859583 194.2504589 C120.65159482 194.25580407 103.36459844 194.25792094 86.07759672 194.25484663 C84.23606656 194.25452807 82.3945364 194.2542137 80.55300623 194.25390357 C79.64681376 194.25374929 78.7406213 194.25359502 77.80696845 194.25343607 C71.40491009 194.25257074 65.00285466 194.25403412 58.60079676 194.25638312 C50.80441607 194.25918069 43.00804546 194.25844378 35.21166593 194.25310238 C31.22985552 194.25046477 27.24806193 194.24946129 23.26625162 194.25275153 C19.62706233 194.25571329 15.9879056 194.25412371 12.3487193 194.24877398 C10.39600289 194.24711309 8.44328425 194.25040842 6.49057013 194.25383121 C5.34664203 194.25122346 4.20271393 194.24861571 3.02412134 194.24592894 C2.02865699 194.24576659 1.03319264 194.24560424 0.0075627 194.24543697 C-2.21863073 194.1200878 -2.21863073 194.1200878 -3.21863073 193.1200878 C-3.31631295 190.69159309 -3.34859604 188.29157417 -3.33888525 185.86262625 C-3.33973967 185.09406399 -3.3405941 184.32550172 -3.34147441 183.53364968 C-3.34313154 180.93865995 -3.33760407 178.34373377 -3.33215612 175.74874991 C-3.33187427 173.89640923 -3.33203194 172.04406843 -3.33259863 170.19172782 C-3.3328867 165.14648369 -3.32698846 160.10126312 -3.32002467 155.05602449 C-3.31379268 149.78958411 -3.31318746 144.52314324 -3.31199926 139.25669974 C-3.30888549 129.27650822 -3.30067148 119.2963276 -3.29064977 109.31614089 C-3.27949007 97.9572059 -3.27397854 86.59827041 -3.26895434 75.23933131 C-3.2584889 51.86624409 -3.24088857 28.49316655 -3.21863073 5.1200878 C-3.87863073 5.1200878 -4.53863073 5.1200878 -5.21863073 5.1200878 C-2.81489227 0.15236164 -2.81489227 0.15236164 0 0 Z M58.78136927 5.1200878 C59.44136927 5.4500878 60.10136927 5.7800878 60.78136927 6.1200878 C61.44136927 5.7900878 62.10136927 5.4600878 62.78136927 5.1200878 C63.02886927 5.6975878 63.27636927 6.2750878 63.53136927 6.8700878 C64.96436915 9.4494876 66.56561603 11.18130372 68.78136927 13.1200878 C69.44136927 13.1200878 70.10136927 13.1200878 70.78136927 13.1200878 C70.78136927 13.7800878 70.78136927 14.4400878 70.78136927 15.1200878 C94.98093592 15.1667635 119.18049584 15.20205488 143.3800984 15.22371215 C154.61584005 15.23403429 165.85155376 15.2481125 177.08727747 15.27096671 C186.87784321 15.29087191 196.66838872 15.30379741 206.45897412 15.30826479 C211.64525402 15.31087704 216.83147605 15.31703638 222.01773745 15.33154792 C226.89563918 15.34508652 231.773459 15.34931801 236.65137774 15.34630316 C238.44489842 15.346855 240.23842174 15.35085454 242.03192621 15.35849875 C244.47449474 15.36840183 246.91675116 15.36607377 249.35932642 15.36059684 C250.43179321 15.36933536 250.43179321 15.36933536 251.52592599 15.37825042 C255.17824892 15.35600811 256.65139288 15.20673873 259.78136927 13.1200878 C259.78136927 11.8000878 259.78136927 10.4800878 259.78136927 9.1200878 C260.44136927 9.1200878 261.10136927 9.1200878 261.78136927 9.1200878 C261.45136927 11.1000878 261.12136927 13.0800878 260.78136927 15.1200878 C277.94136927 15.1200878 295.10136927 15.1200878 312.78136927 15.1200878 C312.78136927 69.5700878 312.78136927 124.0200878 312.78136927 180.1200878 C212.79136927 180.1200878 112.80136927 180.1200878 9.78136927 180.1200878 C9.78136927 126.0000878 9.78136927 71.8800878 9.78136927 16.1200878 C7.14136927 16.1200878 4.50136927 16.1200878 1.78136927 16.1200878 C0.79136927 15.4600878 -0.19863073 14.8000878 -1.21863073 14.1200878 C-1.31904501 18.28233232 -1.31904501 18.28233232 -0.65613073 22.3700878 C-0.21863073 24.1200878 -0.21863073 24.1200878 -1.21863073 26.1200878 C-1.3131228 28.31190977 -1.34052982 30.50670542 -1.33888525 32.70056266 C-1.33974127 33.38257239 -1.34059728 34.06458213 -1.34147924 34.76725882 C-1.34314066 37.0706043 -1.33760074 39.37387783 -1.33215612 41.67721671 C-1.33184994 43.34951575 -1.33198301 45.02181493 -1.33252138 46.69411391 C-1.3327477 51.18374695 -1.32694015 55.67335349 -1.31991094 60.16298026 C-1.31422775 64.37158404 -1.31394846 68.58018128 -1.31323522 72.78878897 C-1.30798208 85.10755878 -1.294021 97.42632362 -1.28113073 109.7450878 C-1.26050573 137.2588378 -1.23988073 164.7725878 -1.21863073 193.1200878 C106.69136927 193.1200878 214.60136927 193.1200878 325.78136927 193.1200878 C325.80199427 161.9557128 325.82261927 130.7913378 325.84386927 98.6825878 C325.85752527 83.89555045 325.85752527 83.89555045 325.87145716 68.80978507 C325.87480058 60.01076638 325.87480058 60.01076638 325.87681299 51.21174735 C325.87774862 47.27761895 325.88151182 43.3435039 325.88694483 39.40937918 C325.89377027 34.40113745 325.8958667 29.39291532 325.89444155 24.38466936 C325.89473984 22.54041193 325.89674255 20.69615386 325.9005844 18.8519004 C325.90551089 16.37307934 325.90437676 13.89433582 325.90162379 11.41551322 C325.90453645 10.68324484 325.90744911 9.95097646 325.91045004 9.19651812 C326.19071396 5.87482928 326.19071396 5.87482928 324.78136927 3.1200878 C323.37066016 3.02174806 321.95505423 2.99269775 320.54092222 2.99145335 C319.62054814 2.9882289 318.70017406 2.98500446 317.75190985 2.9816823 C316.72897658 2.9832309 315.70604331 2.9847795 314.65211207 2.98637503 C313.03586039 2.9829767 313.03586039 2.9829767 311.38695717 2.97950971 C307.74636319 2.9731375 304.10580613 2.97400113 300.46520716 2.97482413 C297.86735205 2.97183465 295.26949739 2.96843262 292.67164332 2.96464652 C286.32971557 2.95632369 279.98779712 2.95359094 273.64586437 2.95303414 C268.49334799 2.95255975 263.34083468 2.9505089 258.18831927 2.94733351 C243.59524968 2.93852252 229.00218747 2.93391484 214.4091152 2.93466399 C213.62163922 2.93470394 212.83416324 2.9347439 212.02282435 2.93478507 C210.84017608 2.93484639 210.84017608 2.93484639 209.63363593 2.93490895 C196.85071518 2.93531556 184.06782387 2.9257435 171.28491164 2.9116467 C158.17446435 2.89730223 145.06403143 2.89037545 131.95357609 2.89124048 C124.58703401 2.89157312 117.22052279 2.88879696 109.85398775 2.87806243 C102.92906154 2.86803646 96.00420169 2.86827299 89.07927233 2.87557906 C86.5306575 2.87663018 83.98203869 2.87423105 81.43343073 2.8682186 C77.96807873 2.8605699 74.5029567 2.86509588 71.03761011 2.87284964 C70.01690757 2.86770608 68.99620502 2.86256252 67.94457209 2.85726309 C67.02159026 2.86186188 66.09860843 2.86646068 65.14765745 2.87119883 C64.34698963 2.87098146 63.54632181 2.8707641 62.72139132 2.87054014 C60.54433447 2.94971217 60.54433447 2.94971217 58.78136927 5.1200878 Z M10.78136927 17.1200878 C10.78136927 70.2500878 10.78136927 123.3800878 10.78136927 178.1200878 C110.11136927 178.1200878 209.44136927 178.1200878 311.78136927 178.1200878 C311.78136927 124.9900878 311.78136927 71.8600878 311.78136927 17.1200878 C212.45136927 17.1200878 113.12136927 17.1200878 10.78136927 17.1200878 Z " fill="#918F90" transform="translate(88.2186307311058,143.87991219758987)"/>
<path d="M0 0 C1.2452243 -0.00281982 2.49044861 -0.00563965 3.77340698 -0.00854492 C5.1660768 -0.00660033 6.55874648 -0.00455214 7.95141602 -0.00241089 C9.40805098 -0.00376489 10.86468561 -0.00554481 12.32131958 -0.00772095 C16.28815163 -0.01229548 20.25495779 -0.01050564 24.22179031 -0.00734186 C28.36400678 -0.00481836 32.50622095 -0.00715577 36.6484375 -0.00872803 C43.60587972 -0.01054975 50.56331134 -0.00814334 57.52075195 -0.00338745 C65.57609755 0.00205518 73.63141783 0.00029252 81.68676281 -0.00521386 C88.590353 -0.0097449 95.49393555 -0.01039558 102.39752674 -0.00777519 C106.52624235 -0.00621237 110.65494604 -0.00601879 114.78366089 -0.00931168 C118.66431748 -0.01219027 122.5449413 -0.01021492 126.42559433 -0.00441742 C127.85390035 -0.00308976 129.28220912 -0.00348404 130.71051407 -0.00568008 C132.65222325 -0.00839131 134.59393843 -0.00439701 136.53564453 0 C137.62482681 0.00037703 138.71400909 0.00075405 139.8361969 0.0011425 C142.26782227 0.12698364 142.26782227 0.12698364 143.26782227 1.12698364 C143.26782227 6.07698364 143.26782227 11.02698364 143.26782227 16.12698364 C93.76782227 16.12698364 44.26782227 16.12698364 -6.73217773 16.12698364 C-6.73217773 0.00233038 -6.73217773 0.00233038 0 0 Z " fill="#454243" transform="translate(181.732177734375,338.8730163574219)"/>
<path d="M0 0 C0.99296866 0.00341748 1.98593733 0.00683497 3.00899595 0.01035601 C4.15005735 0.01184836 5.29111875 0.0133407 6.46675777 0.01487827 C7.73618503 0.02168206 9.00561228 0.02848585 10.31350702 0.03549582 C11.66317869 0.03918634 13.01285163 0.04243644 14.36252534 0.04528105 C18.08860522 0.05442142 21.8146372 0.06985561 25.5406912 0.08626384 C29.55228834 0.10284555 33.56390136 0.11366674 37.57551569 0.12517172 C44.531646 0.1459172 51.48775564 0.17034863 58.44386476 0.19725233 C68.50134907 0.23614575 78.55884566 0.26952874 88.61635392 0.30154759 C104.93224387 0.35364101 121.24811509 0.41021847 137.56398004 0.46959311 C153.41748824 0.52727564 169.2710015 0.58286046 185.12452692 0.63560873 C186.10101175 0.63885845 187.07749658 0.64210817 188.08357186 0.64545637 C192.98209241 0.66174554 197.8806131 0.67799331 202.77913386 0.69422048 C243.44580167 0.8289893 284.11244174 0.97102569 324.77906793 1.11778647 C324.77906793 1.44778647 324.77906793 1.77778647 324.77906793 2.11778647 C217.19906793 2.44778647 109.61906793 2.77778647 -1.22093207 3.11778647 C-1.22093207 65.48778647 -1.22093207 127.85778647 -1.22093207 192.11778647 C106.68906793 192.44778647 214.59906793 192.77778647 325.77906793 193.11778647 C325.77906793 193.44778647 325.77906793 193.77778647 325.77906793 194.11778647 C284.01082959 194.14065111 242.24259197 194.15828381 200.47434861 194.1688518 C195.54865934 194.17010258 190.62297008 194.17139689 185.69728082 194.17271811 C184.22629182 194.17311157 184.22629182 194.17311157 182.72558587 194.17351299 C166.82507097 194.17787006 150.92455967 194.18575781 135.02404691 194.19493926 C118.7213534 194.20427478 102.41866179 194.20984186 86.11596572 194.21187496 C76.04786598 194.2132504 65.97977641 194.21760212 55.9116798 194.22570293 C49.01741132 194.23096914 42.12314814 194.23259105 35.22887779 194.23128784 C31.24504772 194.23064427 27.26123548 194.23166419 23.27740854 194.23699194 C19.63633123 194.24182605 15.99528388 194.24212504 12.35420524 194.23868536 C10.40044532 194.23805674 8.4466858 194.24239837 6.49293089 194.24686778 C5.34838609 194.24487673 4.20384129 194.24288568 3.02461332 194.2408343 C2.02860689 194.24121402 1.03260047 194.24159374 0.00641203 194.24198496 C-2.22093207 194.11778647 -2.22093207 194.11778647 -3.22093207 193.11778647 C-3.31861429 190.68929176 -3.35089737 188.28927283 -3.34118658 185.86032492 C-3.34204101 185.09176265 -3.34289543 184.32320038 -3.34377575 183.53134835 C-3.34543287 180.93635861 -3.33990541 178.34143243 -3.33445746 175.74644858 C-3.33417561 173.89410789 -3.33433327 172.0417671 -3.33489996 170.18942648 C-3.33518803 165.14418236 -3.3292898 160.09896179 -3.322326 155.05372316 C-3.31609402 149.78728277 -3.31548879 144.52084191 -3.3143006 139.25439841 C-3.31118682 129.27420689 -3.30297281 119.29402626 -3.29295111 109.31383955 C-3.2817914 97.95490457 -3.27627988 86.59596907 -3.27125567 75.23702997 C-3.26079024 51.86394275 -3.24318991 28.49086522 -3.22093207 5.11778647 C-3.88093207 5.11778647 -4.54093207 5.11778647 -5.22093207 5.11778647 C-2.81687016 0.14939187 -2.81687016 0.14939187 0 0 Z " fill="#F0F0F0" transform="translate(88.22093206644058,143.88221353292465)"/>
<path d="M0 0 C0.66 0 1.32 0 2 0 C1.67 1.98 1.34 3.96 1 6 C18.16 6 35.32 6 53 6 C53 6.33 53 6.66 53 7 C-46.66 7 -146.32 7 -249 7 C-249 6.67 -249 6.34 -249 6 C-247.73402544 5.99576806 -246.46805088 5.99153612 -245.16371346 5.98717594 C-215.13755192 5.88658261 -185.11141309 5.78088917 -155.08529217 5.66888306 C-151.39263632 5.65511286 -147.69998032 5.64138585 -144.00732422 5.62768555 C-143.27215761 5.62495724 -142.53699099 5.62222894 -141.7795466 5.61941796 C-129.8630982 5.57529749 -117.94664028 5.53467954 -106.03017522 5.49534739 C-93.81019687 5.45493581 -81.59023622 5.41078023 -69.37028396 5.36312145 C-61.82498135 5.33381301 -54.27968012 5.30745346 -46.73435448 5.28482103 C-40.95654094 5.26717811 -35.17875717 5.24433572 -29.40097046 5.21950912 C-27.02490731 5.2101244 -24.64883672 5.20245427 -22.2727623 5.19658089 C-19.04167746 5.18834381 -15.81067543 5.17407396 -12.57962036 5.15821838 C-11.62827276 5.15724028 -10.67692517 5.15626217 -9.69674885 5.15525442 C-8.83585144 5.14977998 -7.97495404 5.14430554 -7.08796883 5.1386652 C-5.96817357 5.13467814 -5.96817357 5.13467814 -4.82575619 5.13061053 C-2.90113518 5.10983901 -2.90113518 5.10983901 -1 4 C-0.34786708 1.97536745 -0.34786708 1.97536745 0 0 Z " fill="#585355" transform="translate(348,153)"/>
<path d="M0 0 C0.33 0 0.66 0 1 0 C1.33 5.28 1.66 10.56 2 16 C2.33 16 2.66 16 3 16 C2.83826325 17.00765946 2.67652651 18.01531893 2.50988865 19.05351353 C2.02562524 22.80166326 1.86179249 26.36744544 1.84178162 30.14378357 C1.83684364 30.82763424 1.83190566 31.5114849 1.82681805 32.21605831 C1.81156237 34.48835628 1.80311512 36.76062627 1.79467773 39.03295898 C1.78508981 40.66944114 1.7750792 42.30592087 1.76467896 43.94239807 C1.73772292 48.37157877 1.7166632 52.80077001 1.69667697 57.22998691 C1.67475982 61.86379831 1.64739924 66.49757752 1.62062073 71.13136292 C1.57077114 79.90010566 1.52580371 88.66886634 1.48259836 97.43764406 C1.43315977 107.42312739 1.37826626 117.4085784 1.32291877 127.39403045 C1.20921749 147.92932351 1.10235278 168.46464744 1 189 C0.67 189 0.34 189 0 189 C0 126.63 0 64.26 0 0 Z " fill="#545253" transform="translate(86,147)"/>
<path d="M0 0 C0.33 0 0.66 0 1 0 C1 62.37 1 124.74 1 189 C0.67 189 0.34 189 0 189 C0 187.02 0 185.04 0 183 C-0.99 182.67 -1.98 182.34 -3 182 C-2.34 181.01 -1.68 180.02 -1 179 C-0.68567844 175.70156885 -0.68567844 175.70156885 -0.7215271 171.84370422 C-0.7128385 170.7434255 -0.7128385 170.7434255 -0.70397437 169.62091893 C-0.68693309 167.15649616 -0.68409435 164.69226019 -0.68115234 162.2277832 C-0.67185701 160.46381163 -0.66168893 158.69984447 -0.65071106 156.93588257 C-0.62335249 152.14076798 -0.60824433 147.34568286 -0.59528303 142.55051064 C-0.57967807 137.54162979 -0.55287949 132.53280935 -0.5272522 127.52397156 C-0.48041766 118.0361565 -0.4436962 108.54833013 -0.41057932 99.06045836 C-0.37239093 88.26007332 -0.3229722 77.45974889 -0.27259517 66.65941489 C-0.16920579 44.43965465 -0.07996821 22.21985606 0 0 Z " fill="#555454" transform="translate(413,148)"/>
<path d="M0 0 C3.0625 0.5625 3.0625 0.5625 5.5 2.75 C7.0625 5.5625 7.0625 5.5625 7 8.1875 C5.96987836 10.79714149 5.41305139 12.02248357 3.0625 13.5625 C-0.08674548 13.95615568 -2.05659116 14.09104531 -4.8125 12.4375 C-6.47327671 9.66953881 -6.32555206 7.73159182 -5.9375 4.5625 C-4.37892411 1.27217311 -3.60257744 0.68985525 0 0 Z " fill="#403B3D" transform="translate(92.9375,147.4375)"/>
<path d="M0 0 C2.64 0 5.28 0 8 0 C8.66 1.65 9.32 3.3 10 5 C9.34 5 8.68 5 8 5 C7.87625 5.804375 7.7525 6.60875 7.625 7.4375 C7.41875 8.283125 7.2125 9.12875 7 10 C4.23749964 11.38125018 2.05268901 11.19079306 -1 11 C-1.66 10.34 -2.32 9.68 -3 9 C-2.625 5.375 -2.625 5.375 -2 2 C-1.34 2 -0.68 2 0 2 C0 1.34 0 0.68 0 0 Z " fill="#342E30" transform="translate(340,148)"/>
<path d="M0 0 C2.625 0.375 2.625 0.375 5 1 C5.625 3.375 5.625 3.375 6 6 C5.34 6.66 4.68 7.32 4 8 C1.375 7.625 1.375 7.625 -1 7 C-1.625 4.625 -1.625 4.625 -2 2 C-1.34 1.34 -0.68 0.68 0 0 Z " fill="#8A8889" transform="translate(248,326)"/>
<path d="M0 0 C2.12320531 1.82669784 3.3915807 3.66048102 5 6 C4.01 6 3.02 6 2 6 C1.54625 5.505 1.0925 5.01 0.625 4.5 C-0.96224523 2.72110101 -0.96224523 2.72110101 -3.6875 2.8125 C-4.450625 2.874375 -5.21375 2.93625 -6 3 C-6.93423645 6.01031744 -7.04449911 6.86650268 -6 10 C-7.32 9.67 -8.64 9.34 -10 9 C-10.35789474 3.63157895 -10.35789474 3.63157895 -8.9375 1.125 C-5.7616787 -0.71902527 -3.58862985 -0.55685636 0 0 Z " fill="#433E3F" transform="translate(169,327)"/>
<path d="M0 0 C3.96 0 7.92 0 12 0 C11.67 1.32 11.34 2.64 11 4 C4.64102564 5.34516765 4.64102564 5.34516765 1.5625 3.6875 C0 2 0 2 0 0 Z " fill="#423E3F" transform="translate(169,324)"/>
<path d="M0 0 C0.33 0 0.66 0 1 0 C1.66 1.98 2.32 3.96 3 6 C5.45224694 5.89386164 5.45224694 5.89386164 8 5 C9.37466625 2.52363988 9.37466625 2.52363988 10 0 C10.66 0.33 11.32 0.66 12 1 C11.64505955 3.62655933 11.27538036 5.57968261 9.8125 7.8125 C7.11075568 9.58260835 5.15326426 9.39415803 2 9 C0.125 7.8125 0.125 7.8125 -1 6 C-1.25 3.375 -1.25 3.375 -1 1 C-0.67 0.67 -0.34 0.34 0 0 Z " fill="#433D3F" transform="translate(88,152)"/>
<path d="M0 0 C0 1.32 0 2.64 0 4 C-2.97 3.505 -2.97 3.505 -6 3 C-6.144375 3.78375 -6.28875 4.5675 -6.4375 5.375 C-7 8 -7 8 -8 10 C-8.66 9.34 -9.32 8.68 -10 8 C-9.75 4.4375 -9.75 4.4375 -9 1 C-6.04335481 -0.4783226 -3.25770263 -0.06032783 0 0 Z " fill="#443E40" transform="translate(347,149)"/>
<path d="M0 0 C2.64 0 5.28 0 8 0 C8.66 1.65 9.32 3.3 10 5 C9.34 5 8.68 5 8 5 C7.67 6.65 7.34 8.3 7 10 C5.35 10.33 3.7 10.66 2 11 C2 9 2 9 3.375 7.375 C5 6 5 6 7 6 C7 4.68 7 3.36 7 2 C4.69 1.67 2.38 1.34 0 1 C0 0.67 0 0.34 0 0 Z " fill="#2E292A" transform="translate(340,148)"/>
<path d="M0 0 C1.60546875 1.53125 1.60546875 1.53125 3.1875 3.5 C3.71730469 4.1496875 4.24710938 4.799375 4.79296875 5.46875 C5.19128906 5.9740625 5.58960938 6.479375 6 7 C5.01 7 4.02 7 3 7 C2.566875 6.525625 2.13375 6.05125 1.6875 5.5625 C-0.6706906 3.37899018 -2.87402561 3.34733049 -6 3 C-3.375 0 -3.375 0 0 0 Z " fill="#292526" transform="translate(169,324)"/>
<path d="M0 0 C1.32 0.33 2.64 0.66 4 1 C4 2.98 4 4.96 4 7 C3.01 7 2.02 7 1 7 C0.67 4.69 0.34 2.38 0 0 Z " fill="#3A3838" transform="translate(409,330)"/>
<path d="M0 0 C2.64 0 5.28 0 8 0 C7.01 1.485 7.01 1.485 6 3 C3.375 3.1875 3.375 3.1875 1 3 C0.67 2.01 0.34 1.02 0 0 Z " fill="#282627" transform="translate(172,324)"/>
<path d="M0 0 C0.33 0.66 0.66 1.32 1 2 C-0.4375 4.625 -0.4375 4.625 -2 7 C-3.32 6.67 -4.64 6.34 -6 6 C-4.02 4.02 -2.04 2.04 0 0 Z " fill="#2B2326" transform="translate(97,152)"/>
<path d="M0 0 C0.99 0 1.98 0 3 0 C1.63016497 3.16115776 1.0109362 3.9927092 -2 6 C-1.125 1.125 -1.125 1.125 0 0 Z " fill="#262123" transform="translate(91,151)"/>
</svg>
