<?xml version="1.0" encoding="UTF-8"?>
<svg version="1.1" xmlns="http://www.w3.org/2000/svg" width="1200" height="1200">
<path d="M0 0 C396 0 792 0 1200 0 C1200 396 1200 792 1200 1200 C804 1200 408 1200 0 1200 C0 804 0 408 0 0 Z " fill="#FEFEFE" transform="translate(0,0)"/>
<path d="M0 0 C239.58 0 479.16 0 726 0 C726 130.02 726 260.04 726 394 C486.42 394 246.84 394 0 394 C0 263.98 0 133.96 0 0 Z " fill="#FEFEFE" transform="translate(237,383)"/>
<path d="M0 0 C1.12491439 -0.00500704 2.24982877 -0.01001407 3.40883148 -0.01517284 C5.2819901 -0.00814934 5.2819901 -0.00814934 7.1929903 -0.00098395 C8.52836233 -0.00306824 9.86373322 -0.00602925 11.19910157 -0.00979269 C14.89753171 -0.01763474 18.5958585 -0.01289284 22.2942871 -0.00623678 C26.30692311 -0.00119112 30.31954251 -0.00767212 34.33217621 -0.01272345 C41.37438189 -0.01996985 48.41655695 -0.01971363 55.45876408 -0.01462913 C65.93047134 -0.00708892 76.4021526 -0.0109187 86.87385967 -0.01704574 C105.57229444 -0.02759831 124.27071557 -0.02665607 142.96915165 -0.02088792 C159.33207064 -0.01586477 175.69498463 -0.01453967 192.05790424 -0.0169332 C193.68344742 -0.01716236 193.68344742 -0.01716236 195.34182986 -0.01739614 C199.74045755 -0.01801878 204.13908523 -0.01865557 208.53771291 -0.01931567 C249.83413718 -0.02543921 291.13055273 -0.01987797 332.42697565 -0.00912188 C369.14873394 0.00036994 405.87047835 -0.00047928 442.59223652 -0.01004386 C483.81118991 -0.02074379 525.03013561 -0.025005 566.24909019 -0.01881933 C570.63989035 -0.01817786 575.03069051 -0.01755218 579.42149067 -0.0169332 C580.5026865 -0.01677505 581.58388233 -0.01661689 582.69784167 -0.01645395 C599.05394862 -0.01417514 615.41005002 -0.01684673 631.7661562 -0.02189231 C650.35627601 -0.02759831 668.94638 -0.02620798 687.53649783 -0.01533082 C697.95182715 -0.00943847 708.36712226 -0.00910326 718.78245073 -0.01662317 C725.72750125 -0.02108622 732.67252417 -0.01835644 739.61757058 -0.00961363 C743.582609 -0.00482668 747.54757914 -0.00328972 751.51261556 -0.0104256 C755.1127533 -0.01683914 758.71276156 -0.01421042 762.31288968 -0.00406428 C764.2321155 -0.00106869 766.15134877 -0.00797665 768.07056344 -0.01517284 C769.75793502 -0.00766228 769.75793502 -0.00766228 771.47939491 0 C772.45445026 0.00013552 773.4295056 0.00027104 774.43410808 0.00041066 C776.73969746 0.25069833 776.73969746 0.25069833 778.73969746 2.25069833 C778.93665962 4.73113154 779.00746133 7.09988736 778.99137974 9.58149362 C778.99428662 10.34972376 778.9971935 11.11795391 779.00018847 11.90946376 C779.0075484 14.51083504 779.00051745 17.11197484 778.99366474 19.71334481 C778.99596681 21.58630614 778.99914162 23.45926657 779.00311923 25.33222508 C779.01151078 30.50018399 779.00732229 35.66806956 779.00114679 40.83602881 C778.99664104 46.40118793 779.00359669 51.966334 779.00910664 57.53149056 C779.01802243 68.44200536 779.01606892 79.35249271 779.01028135 90.26300859 C779.00577344 99.12641032 779.00514818 107.98980433 779.00732899 116.85320687 C779.00763545 118.11237245 779.00794192 119.37153803 779.00825767 120.66886014 C779.00889709 123.22644361 779.00954552 125.78402708 779.01020285 128.34161055 C779.01574963 151.66623845 779.00998726 174.99085024 778.99951766 198.31547473 C778.99002593 219.62364324 778.99087516 240.93178784 779.00043964 262.23995614 C779.01114095 286.16094088 779.01536317 310.08191242 779.00921512 334.00290036 C779.00857799 336.55133017 779.00794924 339.09975997 779.00732899 341.64818978 C779.00702044 342.90222444 779.00671189 344.15625911 779.00639398 345.44829482 C779.00466363 354.30600639 779.00758945 363.1637095 779.01228809 372.02141976 C779.01788434 382.80889306 779.01640705 393.59633724 779.00572661 404.38380718 C779.0004529 409.89281005 778.99844188 415.40176428 779.00502491 420.91076684 C779.01095154 425.94644342 779.00776408 430.98202592 778.99706981 436.01769388 C778.99482173 437.84672797 778.99600323 439.67576988 779.00082138 441.50479901 C779.0068371 443.97661597 779.0007327 446.44810376 778.99137974 448.91990304 C778.99606207 449.64245015 779.0007444 450.36499726 779.00556862 451.10943973 C778.96799821 456.02239757 778.96799821 456.02239757 776.73969746 458.25069833 C774.43410808 458.50098599 774.43410808 458.50098599 771.47939491 458.50139666 C769.79202333 458.50890721 769.79202333 458.50890721 768.07056344 458.5165695 C766.19740482 458.509546 766.19740482 458.509546 764.28640461 458.50238061 C762.95103259 458.5044649 761.61566169 458.50742591 760.28029335 458.51118934 C756.5818632 458.5190314 752.88353642 458.5142895 749.18510781 458.50763344 C745.1724718 458.50258778 741.1598524 458.50906878 737.1472187 458.5141201 C730.10501302 458.5213665 723.06283796 458.52111028 716.02063084 458.51602578 C705.54892357 458.50848558 695.07724231 458.51231536 684.60553524 458.5184424 C665.90710047 458.52899497 647.20867934 458.52805272 628.51024327 458.52228457 C612.14732427 458.51726142 595.78441028 458.51593633 579.42149067 458.51832986 C578.33779522 458.51848263 577.25409976 458.5186354 576.13756505 458.5187928 C571.73893737 458.51941543 567.34030968 458.52005223 562.941682 458.52071233 C521.64525774 458.52683587 480.34884218 458.52127463 439.05241926 458.51051853 C402.33066097 458.50102671 365.60891656 458.50187594 328.88715839 458.51144052 C287.668205 458.52214044 246.44925931 458.52640166 205.23030472 458.52021599 C200.83950456 458.51957451 196.4487044 458.51894884 192.05790424 458.51832986 C190.4361105 458.51809263 190.4361105 458.51809263 188.78155325 458.5178506 C172.4254463 458.51557179 156.0693449 458.51824338 139.71323872 458.52328897 C121.12311891 458.52899497 102.53301491 458.52760463 83.94289708 458.51672748 C73.52756776 458.51083512 63.11227265 458.51049992 52.69694418 458.51801983 C45.75189366 458.52248288 38.80687074 458.51975309 31.86182433 458.51101029 C27.89678591 458.50622334 23.93181577 458.50468638 19.96677935 458.51182225 C16.36664161 458.5182358 12.76663335 458.51560707 9.16650523 458.50546093 C7.24727941 458.50246535 5.32804614 458.50937331 3.40883148 458.5165695 C1.7214599 458.50905894 1.7214599 458.50905894 0 458.50139666 C-0.97505534 458.50126114 -1.95011069 458.50112562 -2.95471317 458.50098599 C-5.26030254 458.25069833 -5.26030254 458.25069833 -7.26030254 456.25069833 C-7.45726471 453.77026512 -7.52806641 451.40150929 -7.51198483 448.91990304 C-7.51489171 448.15167289 -7.51779859 447.38344274 -7.52079356 446.59193289 C-7.52815349 443.99056162 -7.52112253 441.38942181 -7.51426983 438.78805184 C-7.5165719 436.91509052 -7.5197467 435.04213009 -7.52372432 433.16917157 C-7.53211587 428.00121267 -7.52792738 422.8333271 -7.52175188 417.66536784 C-7.51724612 412.10020873 -7.52420178 406.53506266 -7.52971172 400.96990609 C-7.53862752 390.0593913 -7.53667401 379.14890395 -7.53088644 368.23838806 C-7.52637853 359.37498634 -7.52575326 350.51159233 -7.52793407 341.64818978 C-7.52839377 339.75944142 -7.52839377 339.75944142 -7.52886276 337.83253652 C-7.52950218 335.27495305 -7.5301506 332.71736957 -7.53080794 330.15978611 C-7.53635472 306.8351582 -7.53059235 283.51054641 -7.52012275 260.18592192 C-7.51063102 238.87775342 -7.51148025 217.56960881 -7.52104473 196.26144052 C-7.53174603 172.34045578 -7.53596826 148.41948424 -7.5298202 124.49849629 C-7.52918307 121.95006649 -7.52855433 119.40163668 -7.52793407 116.85320687 C-7.52762552 115.59917221 -7.52731697 114.34513755 -7.52699907 113.05310184 C-7.52526872 104.19539027 -7.52819454 95.33768715 -7.53289318 86.47997689 C-7.53848943 75.69250359 -7.53701214 64.90505942 -7.52633169 54.11758947 C-7.52105799 48.60858661 -7.51904697 43.09963238 -7.52563 37.59062982 C-7.53155663 32.55495324 -7.52836917 27.51937073 -7.51767489 22.48370278 C-7.51542682 20.65466869 -7.51660832 18.82562677 -7.52142647 16.99659765 C-7.52744218 14.52478069 -7.52133779 12.05329289 -7.51198483 9.58149362 C-7.51666716 8.85894651 -7.52134949 8.1363994 -7.52617371 7.39195693 C-7.478574 1.16750181 -6.07235361 0.00084397 0 0 Z M22.73969746 32.25069833 C22.73969746 162.27069833 22.73969746 292.29069833 22.73969746 426.25069833 C262.31969746 426.25069833 501.89969746 426.25069833 748.73969746 426.25069833 C748.73969746 296.23069833 748.73969746 166.21069833 748.73969746 32.25069833 C509.15969746 32.25069833 269.57969746 32.25069833 22.73969746 32.25069833 Z " fill="#221D1F" transform="translate(214.26030254364014,350.7493016719818)"/>
<path d="M0 0 C1.23587073 -0.00521549 2.47174147 -0.01043099 3.74506283 -0.01580453 C5.12910964 -0.01147975 6.51315588 -0.00696641 7.89720154 -0.002285 C9.35768318 -0.00458737 10.81816366 -0.00776238 12.2786417 -0.01173949 C16.30645014 -0.02012695 20.33416441 -0.01594441 24.36197329 -0.00976706 C28.70012854 -0.00525964 33.03826709 -0.01221779 37.37641907 -0.0177269 C45.88058955 -0.02664091 54.38472482 -0.02468998 62.8888967 -0.01890162 C69.79768396 -0.014393 76.70646133 -0.01376874 83.61524963 -0.01594925 C84.59687909 -0.01625572 85.57850854 -0.01656218 86.58988434 -0.01687793 C88.58376781 -0.01751736 90.57765129 -0.01816578 92.57153475 -0.01882312 C111.28775461 -0.02453229 130.00395492 -0.01795932 148.72017157 -0.00722238 C164.7950605 0.00171366 180.86992055 0.00016178 196.94480896 -0.00905991 C215.59202392 -0.01975218 234.23922172 -0.02398291 252.88643932 -0.01783538 C254.87317085 -0.01719825 256.85990238 -0.01656951 258.84663391 -0.01594925 C260.31306936 -0.01548642 260.31306936 -0.01548642 261.80912977 -0.01501425 C268.71317586 -0.01328417 275.61721109 -0.01620912 282.52125549 -0.02090836 C290.92987472 -0.02650563 299.33845658 -0.02502514 307.7470715 -0.01434687 C312.04091909 -0.00907454 316.33470429 -0.0070598 320.62855148 -0.01364517 C324.55398399 -0.01957466 328.47929587 -0.0163796 332.40471733 -0.00569007 C333.82998531 -0.00344321 335.25526334 -0.00462083 336.68052495 -0.00944164 C338.60763764 -0.01546336 340.5347786 -0.00813257 342.46188354 0 C344.07217013 0.00048706 344.07217013 0.00048706 345.71498775 0.00098395 C348.23094177 0.25168228 348.23094177 0.25168228 350.23094177 2.25168228 C350.48973083 5.10910416 350.48973083 5.10910416 350.49656677 8.72043228 C350.4991449 10.01336197 350.50172302 11.30629166 350.50437927 12.63840103 C350.50018982 13.31306412 350.49600037 13.9877272 350.49168396 14.68283463 C350.48098247 16.74384385 350.4915812 18.80398148 350.50437927 20.86496353 C350.50051208 22.80435806 350.50051208 22.80435806 350.49656677 24.78293228 C350.49431091 25.97467056 350.49205505 27.16640884 350.48973083 28.39426041 C350.23094177 31.25168228 350.23094177 31.25168228 348.23094177 33.25168228 C345.71498775 33.50238061 345.71498775 33.50238061 342.46188354 33.50336456 C341.22601281 33.50858006 339.99014208 33.51379555 338.71682072 33.51916909 C337.3327739 33.51484431 335.94872766 33.51033097 334.56468201 33.50564957 C333.10420037 33.50795193 331.64371988 33.51112695 330.18324184 33.51510406 C326.15543341 33.52349152 322.12771914 33.51930897 318.09991026 33.51313162 C313.76175501 33.5086242 309.42361646 33.51558235 305.08546448 33.52109146 C296.581294 33.53000547 288.07715873 33.52805454 279.57298684 33.52226618 C272.66419958 33.51775757 265.75542222 33.51713331 258.84663391 33.51931381 C257.86500446 33.51962028 256.883375 33.51992674 255.8719992 33.5202425 C253.87811573 33.52088192 251.88423226 33.52153034 249.89034879 33.52218768 C231.17412893 33.52789685 212.45792863 33.52132389 193.74171197 33.51058695 C177.66682304 33.5016509 161.59196299 33.50320278 145.51707458 33.51242447 C126.86985962 33.52311675 108.22266182 33.52734748 89.57544422 33.52119994 C87.58871269 33.52056281 85.60198117 33.51993407 83.61524963 33.51931381 C82.14881418 33.51885099 82.14881418 33.51885099 80.65275377 33.51837881 C73.74870769 33.51664873 66.84467245 33.51957368 59.94062805 33.52427292 C51.53200883 33.52987019 43.12342696 33.52838971 34.71481204 33.51771143 C30.42096445 33.51243911 26.12717925 33.51042436 21.83333206 33.51700974 C17.90789955 33.52293922 13.98258767 33.51974417 10.05716622 33.50905463 C8.63189823 33.50680778 7.2066202 33.50798539 5.7813586 33.51280621 C3.8542459 33.51882792 1.92710494 33.51149713 0 33.50336456 C-1.07352439 33.50303986 -2.14704878 33.50271515 -3.25310421 33.50238061 C-5.76905823 33.25168228 -5.76905823 33.25168228 -7.76905823 31.25168228 C-8.02784729 28.39426041 -8.02784729 28.39426041 -8.03468323 24.78293228 C-8.03726135 23.49000259 -8.03983948 22.19707291 -8.04249573 20.86496353 C-8.03830627 20.19030045 -8.03411682 19.51563736 -8.02980042 18.82052994 C-8.01909893 16.75952071 -8.02969765 14.69938309 -8.04249573 12.63840103 C-8.0399176 11.34547134 -8.03733948 10.05254166 -8.03468323 8.72043228 C-8.03242737 7.528694 -8.03017151 6.33695572 -8.02784729 5.10910416 C-7.53654285 -0.31563846 -4.72122781 0.00142801 0 0 Z " fill="#252022" transform="translate(428.76905822753906,815.7483177185059)"/>
<path d="M0 0 C2.5 1.625 2.5 1.625 4.5 3.625 C4.18096681 7.05669122 2.75516924 8.72807858 0.33984375 11.078125 C-0.28857422 11.696875 -0.91699219 12.315625 -1.56445312 12.953125 C-2.22380859 13.58734375 -2.88316406 14.2215625 -3.5625 14.875 C-4.22572266 15.5246875 -4.88894531 16.174375 -5.57226562 16.84375 C-7.20829317 18.4444676 -8.85090912 20.03776193 -10.5 21.625 C-11.82 20.965 -13.14 20.305 -14.5 19.625 C-13.94975568 15.78188732 -12.30046737 14.15793315 -9.5 11.5625 C-6.26639142 8.59121261 -6.26639142 8.59121261 -4.5 4.625 C-10.26926197 4.81431348 -10.26926197 4.81431348 -15 7.75 C-17.20030716 11.96725539 -16.79348908 15.39448298 -16.1875 20 C-15.960625 20.53625 -15.73375 21.0725 -15.5 21.625 C-12.71398777 22.55367074 -10.88933911 22.78842217 -8 22.8125 C-6.83984375 22.83376953 -6.83984375 22.83376953 -5.65625 22.85546875 C-3.20319944 22.76161528 -3.20319944 22.76161528 -0.5 20.625 C0.18855709 18.30561682 0.18855709 18.30561682 0.5 15.6875 C1.02951187 11.94230664 1.53804446 10.06378404 4.5 7.625 C5.49 7.955 6.48 8.285 7.5 8.625 C8.12054002 18.31231919 8.12054002 18.31231919 5.875 23.0625 C1.54565669 27.73363357 -1.57876026 29.86361982 -8 30.125 C-12.89957754 29.93860303 -15.77541458 28.97712688 -19.5 25.625 C-23.41452087 21.17054522 -23.90652669 16.96011158 -23.84765625 11.19921875 C-23.1481193 6.0195013 -20.09103987 3.03420674 -16.3125 -0.3125 C-10.80293842 -2.39388993 -5.44056164 -2.1373635 0 0 Z " fill="#423E3F" transform="translate(231.5,357.375)"/>
<path d="M0 0 C2.5 1.625 2.5 1.625 4.5 3.625 C4.18096681 7.05669122 2.75516924 8.72807858 0.33984375 11.078125 C-0.28857422 11.696875 -0.91699219 12.315625 -1.56445312 12.953125 C-2.22380859 13.58734375 -2.88316406 14.2215625 -3.5625 14.875 C-4.22572266 15.5246875 -4.88894531 16.174375 -5.57226562 16.84375 C-7.20829317 18.4444676 -8.85090912 20.03776193 -10.5 21.625 C-11.82 20.965 -13.14 20.305 -14.5 19.625 C-13.94975568 15.78188732 -12.30046737 14.15793315 -9.5 11.5625 C-6.26639142 8.59121261 -6.26639142 8.59121261 -4.5 4.625 C-10.26926197 4.81431348 -10.26926197 4.81431348 -15 7.75 C-17.20030716 11.96725539 -16.79348908 15.39448298 -16.1875 20 C-15.960625 20.53625 -15.73375 21.0725 -15.5 21.625 C-12.71398777 22.55367074 -10.88933911 22.78842217 -8 22.8125 C-6.83984375 22.83376953 -6.83984375 22.83376953 -5.65625 22.85546875 C-3.20319944 22.76161528 -3.20319944 22.76161528 -0.5 20.625 C0.18855709 18.30561682 0.18855709 18.30561682 0.5 15.6875 C1.02951187 11.94230664 1.53804446 10.06378404 4.5 7.625 C5.49 7.955 6.48 8.285 7.5 8.625 C7.60933663 10.33186635 7.68619084 12.04082604 7.75 13.75 C7.79640625 14.70132812 7.8428125 15.65265625 7.890625 16.6328125 C7.34354191 20.82346894 6.52809724 22.62315794 3.5 25.625 C-0.34619219 26.52875432 -4.06588731 26.46231693 -8 26.375 C-9.56814453 26.40980469 -9.56814453 26.40980469 -11.16796875 26.4453125 C-18.74449215 26.38710617 -18.74449215 26.38710617 -22.18359375 22.91796875 C-24.16215408 17.96863238 -24.38280549 13.86856018 -23.5 8.625 C-21.82544673 4.82980346 -19.38294668 2.40703849 -16.3125 -0.3125 C-10.80293842 -2.39388993 -5.44056164 -2.1373635 0 0 Z " fill="#423D3E" transform="translate(832.5,357.375)"/>
<path d="M0 0 C5.51519654 3.01815874 10.45485039 7.594388 14.1875 12.625 C14.15234375 14.8125 14.15234375 14.8125 13.1875 16.625 C12.1975 17.285 11.2075 17.945 10.1875 18.625 C9.34445312 17.77035156 8.50140625 16.91570313 7.6328125 16.03515625 C6.52617407 14.91913953 5.41939598 13.80326128 4.3125 12.6875 C3.75691406 12.12353516 3.20132812 11.55957031 2.62890625 10.97851562 C-1.31597827 6.8704344 -1.31597827 6.8704344 -6.5625 5.25 C-11.08778174 5.77214789 -12.83293395 7.21978165 -15.8125 10.625 C-16.61317607 13.68819255 -16.33004166 15.36448754 -15.8125 18.625 C-13.93748069 21.00219693 -13.93748069 21.00219693 -11.8125 22.625 C-11.8125 23.285 -11.8125 23.945 -11.8125 24.625 C-14.4525 24.625 -17.0925 24.625 -19.8125 24.625 C-22.88951744 19.62484666 -23.7401067 15.3658548 -22.8125 9.625 C-18.19475812 0.56054373 -9.86798672 -4.25482019 0 0 Z " fill="#423D3E" transform="translate(403.8125,784.375)"/>
<path d="M0 0 C110.22 0 220.44 0 334 0 C334 0.33 334 0.66 334 1 C275.92 1.33 217.84 1.66 158 2 C158.33 2.99 158.66 3.98 159 5 C157.02 4.505 157.02 4.505 155 4 C155 3.34 155 2.68 155 2 C78.275 1.505 78.275 1.505 0 1 C0 0.67 0 0.34 0 0 Z " fill="#141414" transform="translate(442,777)"/>
<path d="M0 0 C3.87526491 1.35326711 6.0219006 4.18317107 7.96875 7.6875 C8.65625 10.75 8.65625 10.75 7.96875 13.6875 C6.1108844 16.60019772 4.11209581 19.11582709 0.96875 20.6875 C-1.99520382 21.09167552 -4.12029926 21.25132171 -6.72265625 19.640625 C-10.00944435 16.94783475 -11.78455603 15.20290581 -12.46875 11 C-11.9311426 6.92954397 -10.66269525 5.00798932 -7.875 2.0625 C-5.22511014 0.08631096 -3.26547042 -0.30142804 0 0 Z " fill="#E3E2E2" transform="translate(602.03125,781.3125)"/>
<path d="M0 0 C9.24 0 18.48 0 28 0 C28 7 28 7 25.6875 9.875 C20.89470095 13.66465506 15.89525993 13.67033329 10 13 C6.06697243 10.99773142 3.21424967 8.84580207 1 5 C0.67 3.35 0.34 1.7 0 0 Z " fill="#423D3E" transform="translate(406,777)"/>
<path d="M0 0 C0.05786668 3.79160297 0.09355054 7.58309311 0.125 11.375 C0.14175781 12.45523438 0.15851562 13.53546875 0.17578125 14.6484375 C0.18222656 15.6796875 0.18867187 16.7109375 0.1953125 17.7734375 C0.20578613 18.72653809 0.21625977 19.67963867 0.22705078 20.66162109 C0 23 0 23 -2 25 C-5.125 25.125 -5.125 25.125 -8 25 C-11.07701744 19.99984666 -11.9276067 15.7408548 -11 10 C-8.87978728 5.83810095 -5.20258182 0 0 0 Z " fill="#423E3F" transform="translate(993,784)"/>
<path d="M0 0 C1.65 1.32 3.3 2.64 5 4 C5 4.66 5 5.32 5 6 C5.66 6.33 6.32 6.66 7 7 C8.43236464 11.29709392 8.93639453 14.9645169 6.98828125 19.19921875 C3.64980381 24.78339873 3.64980381 24.78339873 0 26 C0 17.42 0 8.84 0 0 Z " fill="#413D3E" transform="translate(207,383)"/>
<path d="M0 0 C1.9375 0.625 1.9375 0.625 4 2 C5.0625 4.8125 5.0625 4.8125 5 8 C2.9375 10.9375 2.9375 10.9375 0 13 C-3.57893502 13.0715787 -5.234958 12.6663269 -7.9375 10.3125 C-9.36056506 7.21524075 -8.81133498 5.24533993 -8 2 C-6.68 1.67 -5.36 1.34 -4 1 C-3.67 2.98 -3.34 4.96 -3 7 C-2.34 7 -1.68 7 -1 7 C-0.67 4.69 -0.34 2.38 0 0 Z " fill="#222021" transform="translate(602,786)"/>
<path d="M0 0 C6.6 0 13.2 0 20 0 C14.29003021 6.85196375 14.29003021 6.85196375 9.1875 7.4375 C6.59563619 7.42805787 5.40901847 7.32604337 3.36328125 5.6953125 C0 1.66708453 0 1.66708453 0 0 Z " fill="#201D1E" transform="translate(412,777)"/>
<path d="M0 0 C1.98 0 3.96 0 6 0 C6.51211281 6.40141012 6.11888494 9.98010898 2 15 C0.68 14.01 -0.64 13.02 -2 12 C-1.34 8.04 -0.68 4.08 0 0 Z " fill="#413D3E" transform="translate(436,777)"/>
<path d="M0 0 C9.99179268 8.4021893 20.33577127 17.20482106 29 27 C29 27.66 29 28.32 29 29 C29.66 29 30.32 29 31 29 C31 29.66 31 30.32 31 31 C26.73294513 29.34505714 23.8628007 26.15086959 20.703125 22.96875 C20.10949158 22.37703003 19.51585815 21.78531006 18.90423584 21.17565918 C17.65456282 19.92734419 16.40740008 18.67651177 15.16259766 17.42333984 C13.24992048 15.49992003 11.32676881 13.58743901 9.40234375 11.67578125 C8.18946202 10.46157861 6.97720048 9.24675607 5.765625 8.03125 C5.18758118 7.45725464 4.60953735 6.88325928 4.01397705 6.29187012 C0 2.22993434 0 2.22993434 0 0 Z " fill="#342F30" transform="translate(777,777)"/>
<path d="M0 0 C1.47906892 -0.02689216 2.95827483 -0.04634621 4.4375 -0.0625 C5.26121094 -0.07410156 6.08492187 -0.08570313 6.93359375 -0.09765625 C9 0 9 0 10 1 C10.08775605 3.14558827 10.10695219 5.29404421 10.09765625 7.44140625 C10.09443359 8.74658203 10.09121094 10.05175781 10.08789062 11.39648438 C10.07953401 12.7851569 10.07106905 14.17382877 10.0625 15.5625 C10.05748666 16.95507656 10.05292347 18.34765481 10.04882812 19.74023438 C10.03699434 23.1601987 10.0205088 26.58007844 10 30 C9.34 30.33 8.68 30.66 8 31 C7.83244062 27.04924621 7.6718758 23.09827679 7.51782227 19.14697266 C7.43812762 17.14079929 7.35287482 15.13484924 7.26757812 13.12890625 C7.21923828 11.87207031 7.17089844 10.61523438 7.12109375 9.3203125 C7.0739624 8.15773926 7.02683105 6.99516602 6.97827148 5.79736328 C7 3 7 3 8 1 C5.36 1 2.72 1 0 1 C0 0.67 0 0.34 0 0 Z " fill="#2C292A" transform="translate(769,817)"/>
<path d="M0 0 C0 5.28 0 10.56 0 16 C-3 15 -3 15 -5 12 C-5.67852257 4.875513 -5.67852257 4.875513 -3.0625 1.5 C-1 0 -1 0 0 0 Z " fill="#222021" transform="translate(993,791)"/>
<path d="M0 0 C2.64 0 5.28 0 8 0 C7.01 0.495 7.01 0.495 6 1 C6 4.3 6 7.6 6 11 C4.68 11 3.36 11 2 11 C2 9.02 2 7.04 2 5 C1.34 4.67 0.68 4.34 0 4 C0.66 4 1.32 4 2 4 C2 3.01 2 2.02 2 1 C1.34 0.67 0.68 0.34 0 0 Z " fill="#888687" transform="translate(596,782)"/>
<path d="M0 0 C1.65 1.32 3.3 2.64 5 4 C4.21824485 8.84688192 2.60155722 13.3766367 1 18 C0.67 18 0.34 18 0 18 C0 12.06 0 6.12 0 0 Z " fill="#262425" transform="translate(207,383)"/>
<path d="M0 0 C4 2 4 2 5 4.875 C5 8 5 8 3.0625 10.375 C2.381875 10.91125 1.70125 11.4475 1 12 C0.34 11.34 -0.32 10.68 -1 10 C-0.01 9.67 0.98 9.34 2 9 C1.34 6.03 0.68 3.06 0 0 Z " fill="#2F2D2E" transform="translate(602,786)"/>
<path d="M0 0 C0.99 0 1.98 0 3 0 C3.33 2.97 3.66 5.94 4 9 C3.01 9 2.02 9 1 9 C-1 6 -1 6 -0.625 2.8125 C-0.41875 1.884375 -0.2125 0.95625 0 0 Z " fill="#2B292A" transform="translate(594,788)"/>
<path d="M0 0 C0 3 0 3 -1.8125 5.1875 C-4 7 -4 7 -7 7 C-7 8.65 -7 10.3 -7 12 C-7.33 12 -7.66 12 -8 12 C-8.34740318 9.08181329 -8.50109494 6.86234943 -6.9921875 4.265625 C-3.6 0 -3.6 0 0 0 Z " fill="#DAD8D9" transform="translate(598,783)"/>
<path d="M0 0 C0.66 0 1.32 0 2 0 C5 6.625 5 6.625 5 10 C1.125 8.125 1.125 8.125 0 7 C-0.04092937 4.66702567 -0.04241723 2.33294775 0 0 Z " fill="#F1F0F1" transform="translate(591,790)"/>
<path d="M0 0 C1.32 0.99 2.64 1.98 4 3 C3.6875 4.875 3.6875 4.875 3 7 C2.01 7.66 1.02 8.32 0 9 C0 6.03 0 3.06 0 0 Z " fill="#3F3E3E" transform="translate(207,383)"/>
<path d="M0 0 C0.66 0.33 1.32 0.66 2 1 C2 2.98 2 4.96 2 7 C0.35 7.33 -1.3 7.66 -3 8 C-3 7.34 -3 6.68 -3 6 C-2.34 5.67 -1.68 5.34 -1 5 C-0.34444881 2.47266765 -0.34444881 2.47266765 0 0 Z " fill="#1C1A1B" transform="translate(602,788)"/>
<path d="M0 0 C0.33 0.99 0.66 1.98 1 3 C-2.625 6 -2.625 6 -6 6 C-6 4 -6 4 -4.125 1.875 C-2 0 -2 0 0 0 Z " fill="#F4F3F4" transform="translate(210,348)"/>
<path d="M0 0 C1.98 0.99 1.98 0.99 4 2 C3.67 4.31 3.34 6.62 3 9 C1.35173889 6.03312999 0.55728913 3.34373475 0 0 Z " fill="#282627" transform="translate(602,786)"/>
<path d="M0 0 C3.875 0.875 3.875 0.875 5 2 C5.04080783 3.99958364 5.04254356 6.00045254 5 8 C4.34 7.01 3.68 6.02 3 5 C2.46375 4.484375 1.9275 3.96875 1.375 3.4375 C0 2 0 2 0 0 Z " fill="#292627" transform="translate(988,351)"/>
</svg>
