<?xml version="1.0" encoding="UTF-8"?>
<svg version="1.1" xmlns="http://www.w3.org/2000/svg" width="662" height="377">
<path d="M0 0 C1.10988281 0.69867188 2.21976563 1.39734375 3.36328125 2.1171875 C4.23339844 2.73851563 5.10351562 3.35984375 6 4 C6 4.66 6 5.32 6 6 C6.680625 6.165 7.36125 6.33 8.0625 6.5 C12.44700788 8.73889764 14.93367554 12.21629528 18 16 C18.65355469 16.76828125 19.30710937 17.5365625 19.98046875 18.328125 C39.07797718 41.23035949 44.13791813 67.56148051 41.69140625 96.671875 C41.25928294 99.50170906 40.69789673 102.22409617 40 105 C39.70867187 106.18078125 39.41734375 107.3615625 39.1171875 108.578125 C37.41139016 114.99837009 35.54301593 120.39974901 32 126 C31.26548186 127.70571435 30.5323415 129.41207842 29.81420898 131.12475586 C28.5279401 134.08722402 27.03657561 136.93985823 25.5625 139.8125 C23.0825336 144.6889039 20.91157462 149.59702888 18.9609375 154.70703125 C17.64030763 157.85829032 15.94098304 160.73879544 14.23046875 163.69140625 C12.47208563 166.99046791 11.18337871 170.42902556 9.89453125 173.93359375 C9 176 9 176 7 178 C6.52729206 179.67217829 6.05785591 181.34541379 5.61181641 183.02490234 C4.54172681 186.47942144 2.84867291 189.61077635 1.1875 192.8125 C0.83147705 193.51173584 0.4754541 194.21097168 0.10864258 194.93139648 C-0.92283836 196.95672673 -1.96116831 198.97843354 -3 201 C-6.25532765 207.41100242 -9.38316322 213.79098764 -11.96484375 220.51171875 C-12.30644531 221.39472656 -12.64804687 222.27773438 -13 223.1875 C-13.309375 224.00605469 -13.61875 224.82460938 -13.9375 225.66796875 C-15.03514181 228.0771311 -16.40692538 229.8971415 -18 232 C-18.83436195 233.84325035 -18.83436195 233.84325035 -19.4375 235.75 C-20.96366933 240.02956759 -22.9148079 243.96909354 -25 248 C-29.2504351 256.23233067 -29.2504351 256.23233067 -32.875 264.75 C-34.88906555 269.97817848 -37.40233671 274.91059681 -39.93481445 279.90087891 C-42.06494692 284.10585419 -44.10832348 288.33419419 -46.0625 292.625 C-49.19729353 299.5077285 -52.58195887 306.25493068 -56 313 C-59 312 -59 312 -60.2890625 309.7265625 C-60.72992188 308.70304687 -61.17078125 307.67953125 -61.625 306.625 C-62.14449219 305.449375 -62.66398437 304.27375 -63.19921875 303.0625 C-63.48458496 302.4128125 -63.76995117 301.763125 -64.06396484 301.09375 C-65.78725861 297.2390376 -67.61978498 293.43584376 -69.4375 289.625 C-72.14475712 283.92568907 -74.83749932 278.2203611 -77.5 272.5 C-85.4879347 255.24133973 -85.4879347 255.24133973 -93.9296875 238.203125 C-94.81469226 236.38143637 -95.62648974 234.52438367 -96.41796875 232.66015625 C-97.96211322 229.08765412 -99.66102574 225.64944872 -101.4375 222.1875 C-103.84620038 217.43958098 -105.99752164 212.67240055 -107.90625 207.703125 C-109.32890446 204.18713611 -110.90165568 200.75155362 -112.5 197.3125 C-112.78488281 196.6944751 -113.06976563 196.0764502 -113.36328125 195.43969727 C-114.83480064 192.29802017 -116.39432385 189.25143683 -118.12890625 186.24609375 C-119.68558646 183.54546482 -120.96712677 180.88758744 -122.15625 178.01171875 C-124.58185495 172.2284477 -127.19482288 166.51479329 -130.0625 160.9375 C-131.46164997 158.1942847 -132.60970141 155.44633947 -133.6875 152.5625 C-135.5890159 147.66098293 -138.00552825 143.1170624 -140.5 138.5 C-144.89869901 130.33809799 -148.40928943 122.16989776 -151.23510742 113.33447266 C-151.71533553 111.8688036 -152.21736629 110.40991486 -152.75048828 108.96264648 C-160.91740229 86.40753614 -157.18442438 60.16121611 -147.51953125 38.71484375 C-141.38313866 27.01785949 -132.85741991 13.75529994 -122 6 C-121.34 6 -120.68 6 -120 6 C-120 5.34 -120 4.68 -120 4 C-87.0691523 -24.2680728 -34.80253433 -23.71372684 0 0 Z M-85.3125 57.5625 C-90.35151386 64.76305806 -91.82426593 74.07477534 -90.50390625 82.6640625 C-88.88749659 90.15718636 -86.46748546 96.41067643 -81 102 C-80.34 102 -79.68 102 -79 102 C-78.65195312 102.90685547 -78.65195312 102.90685547 -78.296875 103.83203125 C-75.48103634 108.53923142 -68.98209936 110.48465417 -63.875 111.8125 C-55.03977774 112.38871015 -46.47585239 112.33989456 -39 107 C-38.236875 106.484375 -37.47375 105.96875 -36.6875 105.4375 C-36.130625 104.963125 -35.57375 104.48875 -35 104 C-35 103.34 -35 102.68 -35 102 C-34.443125 101.814375 -33.88625 101.62875 -33.3125 101.4375 C-27.87679087 98.05854568 -25.91371514 93.5959516 -24.42944336 87.54956055 C-22.3708753 77.72484262 -22.68510849 68.45186511 -27.3828125 59.30859375 C-32.70150959 51.71596095 -41.10807086 46.40048277 -50 44 C-64.32093838 42.54075746 -75.88649684 46.56163636 -85.3125 57.5625 Z " fill="#040404" transform="translate(388,40)"/>
<path d="M0 0 C0 3 0 3 -1.53125 4.82421875 C-2.1809375 5.43910156 -2.830625 6.05398437 -3.5 6.6875 C-4.1496875 7.31011719 -4.799375 7.93273438 -5.46875 8.57421875 C-5.9740625 9.04472656 -6.479375 9.51523437 -7 10 C-7 5.69032084 -4.83274712 4.10253255 -2 1 C-1.34 0.67 -0.68 0.34 0 0 Z " fill="#868686" transform="translate(262,50)"/>
</svg>
