<?xml version="1.0" encoding="UTF-8"?>
<svg version="1.1" xmlns="http://www.w3.org/2000/svg" width="360" height="360">
<path d="M0 0 C4.11254479 3.54977551 8.07283843 7.24713686 12 11 C13.22396484 12.16208984 13.22396484 12.16208984 14.47265625 13.34765625 C19.80531829 18.53396736 24.56708969 24.02607797 29 30 C29.45761719 30.59425781 29.91523438 31.18851562 30.38671875 31.80078125 C33.76830612 36.77230795 33.76076155 42.22351984 33 48 C31.9765625 50.33203125 31.9765625 50.33203125 31 52 C30.34 52 29.68 52 29 52 C29 52.66 29 53.32 29 54 C23.96698495 57.09724003 19.76874671 57.87785276 14 57 C8.3148541 54.51274867 5.15509445 49.7211699 1.35546875 44.94140625 C-20.77092485 17.31093465 -52.55038337 0.36615012 -87.70117188 -3.80151367 C-102.54391689 -5.08307184 -117.52693081 -4.5646898 -132 -1 C-133.00256836 -0.76651855 -133.00256836 -0.76651855 -134.02539062 -0.52832031 C-154.99400973 4.46943334 -174.66963852 14.69670605 -190.29296875 29.56640625 C-192 31 -192 31 -194 31 C-194.26683594 31.598125 -194.53367188 32.19625 -194.80859375 32.8125 C-196.02622492 35.04815067 -197.19008157 36.30021589 -199.0625 38 C-203.2367496 42.00032253 -206.41092194 46.58496604 -209.69140625 51.328125 C-212.74395409 54.861023 -215.74717708 56.58322776 -220.34375 57.43359375 C-225.71178644 57.44331845 -228.83015693 56.6849776 -233 53 C-236.84514754 48.75010009 -237.76229023 45.15474056 -237.50390625 39.5703125 C-236.58132556 34.86443583 -233.96276692 31.66965114 -231 28 C-230.35804688 27.15824219 -229.71609375 26.31648438 -229.0546875 25.44921875 C-202.96908377 -7.80751959 -164.29652891 -28.74126817 -122.52172852 -34.17553711 C-79.4567826 -39.07326548 -33.70014527 -27.96882805 0 0 Z " fill="#191919" transform="translate(282,107)"/>
<path d="M0 0 C21.63981775 -0.76050478 43.3424651 5.68579128 62.0078125 16.2265625 C62.6069043 16.56139648 63.20599609 16.89623047 63.82324219 17.24121094 C79.75248945 26.31727957 91.95259819 39.02724491 102.0078125 54.2265625 C102.59691406 55.07089844 103.18601562 55.91523438 103.79296875 56.78515625 C107.35315588 62.34856845 108.24683909 67.70692256 107.0078125 74.2265625 C105.01744297 78.60694268 102.53547663 81.46943653 98.0078125 83.2265625 C95.421875 83.5625 95.421875 83.5625 92.6328125 83.6015625 C91.71757812 83.62992187 90.80234375 83.65828125 89.859375 83.6875 C86.02494607 83.0676882 84.00709701 81.681622 81.0078125 79.2265625 C78.875 76.23046875 78.875 76.23046875 76.8828125 72.7890625 C64.76753362 52.95433698 46.12236668 39.49950562 23.5703125 33.8515625 C-0.31163717 28.21787181 -24.19017546 31.64562217 -45.4921875 43.7265625 C-53.57430395 48.72456956 -60.01708611 53.80872592 -65.9921875 61.2265625 C-66.85650391 62.29583984 -66.85650391 62.29583984 -67.73828125 63.38671875 C-71.48805405 68.12195523 -74.92407346 72.99994824 -78.21875 78.0625 C-80.82690197 81.24513479 -83.38402516 82.94366865 -87.45703125 83.66015625 C-93.14066336 83.66913513 -96.60316649 83.19758151 -100.9921875 79.2265625 C-104.42437259 75.34277411 -105.87464059 72.03172981 -105.6328125 66.91015625 C-101.35374202 48.98502565 -82.42513635 30.39686443 -67.453125 20.73046875 C-66.64101562 20.23417969 -65.82890625 19.73789063 -64.9921875 19.2265625 C-63.68121094 18.37384766 -63.68121094 18.37384766 -62.34375 17.50390625 C-43.03307044 5.46779776 -22.30950471 1.68923143 0 0 Z " fill="#181818" transform="translate(178.9921875,117.7734375)"/>
<path d="M0 0 C1.50715041 1.28331619 3.00791021 2.57420377 4.5 3.875 C5.70711155 4.83487183 6.91525103 5.79345431 8.125 6.75 C8.90875 7.45125 9.6925 8.1525 10.5 8.875 C10.5 9.535 10.5 10.195 10.5 10.875 C11.16 10.875 11.82 10.875 12.5 10.875 C14.04962215 12.69220396 15.51580263 14.58105872 16.9375 16.5 C17.71996094 17.54414063 18.50242187 18.58828125 19.30859375 19.6640625 C23.12895049 25.26180447 25.6759108 29.96652403 24.5 36.875 C22.84323534 41.73681534 20.0944813 44.93344918 15.4921875 47.21484375 C11.83721237 48.42600218 8.25677956 48.73950426 4.5 47.875 C-0.59782405 45.09682075 -3.39337212 41.72117172 -6.6875 37.125 C-16.32467379 24.34372511 -30.04050832 16.24064298 -45.8046875 13.34765625 C-63.67906055 11.06139923 -81.49200505 13.91982133 -96.11035156 25.10742188 C-102.49044994 30.29631155 -107.46262939 35.95381088 -111.99609375 42.8359375 C-114.14614018 45.75106538 -116.03135754 46.8839593 -119.5 47.875 C-124.90124731 48.61400366 -128.87855041 47.95596639 -133.5 44.875 C-137.38516043 41.16251337 -139.31068303 38.17420957 -139.62109375 32.8671875 C-138.91342089 21.2248276 -126.59160744 10.09787658 -118.5 2.875 C-107.38974396 -6.30796673 -93.44180232 -12.73326832 -79.5 -16.125 C-78.58605469 -16.34929687 -77.67210937 -16.57359375 -76.73046875 -16.8046875 C-51.01663736 -22.05534398 -20.69960972 -16.47266239 0 0 Z " fill="#1A1A1A" transform="translate(237.5,189.125)"/>
<path d="M0 0 C6.13018399 4.24975946 10.52796517 8.92160518 13 16 C13.24621094 16.67546875 13.49242187 17.3509375 13.74609375 18.046875 C15.9827633 25.6598869 14.85022917 33.59814759 11.8046875 40.84375 C7.34681323 48.93125961 0.82569036 54.20519805 -8 57 C-17.07549473 58.68209601 -25.46536476 58.33971769 -33.51171875 53.484375 C-42.18387333 47.12001693 -46.00998554 40.54707665 -48 30 C-49.15638818 22.42706762 -46.67276806 14.99223584 -42.45703125 8.6953125 C-31.64276163 -4.42039207 -15.21400877 -8.10806455 0 0 Z " fill="#171717" transform="translate(198,231)"/>
<path d="M0 0 C2.54559939 2.54559939 2.35453874 3.64944623 2.4375 7.1875 C2.35454005 12.05022939 1.48527009 14.87198929 -1.515625 18.66015625 C-4.99533158 21.80104929 -8.00690703 22.27489538 -12.625 22.25 C-13.58664062 22.25515625 -14.54828125 22.2603125 -15.5390625 22.265625 C-18 22 -18 22 -20 20 C-18.68 19.67 -17.36 19.34 -16 19 C-16 19.66 -16 20.32 -16 21 C-15.34 21 -14.68 21 -14 21 C-14 19.68 -14 18.36 -14 17 C-11.5 15.25 -11.5 15.25 -9 14 C-9 14.99 -9 15.98 -9 17 C-6.36 16.34 -3.72 15.68 -1 15 C-1 14.34 -1 13.68 -1 13 C-1.66 13 -2.32 13 -3 13 C-4.125 9.25 -4.125 9.25 -3 7 C-2.34 7 -1.68 7 -1 7 C-1.66 5.02 -2.32 3.04 -3 1 C-2.34 1.33 -1.68 1.66 -1 2 C-0.67 1.34 -0.34 0.68 0 0 Z " fill="#303030" transform="translate(284,179)"/>
<path d="M0 0 C1.24136719 0.02707031 1.24136719 0.02707031 2.5078125 0.0546875 C4.58901189 0.10245273 6.66963312 0.17419716 8.75 0.25 C9.08 0.25 9.41 0.25 9.75 0.25 C15.41666667 0.25 21.08333333 0.25 26.75 0.25 C26.75 0.91 26.75 1.57 26.75 2.25 C23.25297272 4.38097591 20.32494439 4.56547367 16.26953125 4.69921875 C15.02365234 4.74240234 13.77777344 4.78558594 12.49414062 4.83007812 C11.19669922 4.86552734 9.89925781 4.90097656 8.5625 4.9375 C7.25345703 4.98455078 5.94441406 5.03160156 4.59570312 5.08007812 C-2.52720685 5.30555685 -2.52720685 5.30555685 -5.25 5.25 C-5.58 4.92 -5.91 4.59 -6.25 4.25 C-8.92058851 4.10884839 -11.57432238 4.20752893 -14.25 4.25 C-9.74389671 -0.40264324 -6.08122035 -0.250971 0 0 Z " fill="#131313" transform="translate(171.25,73.75)"/>
<path d="M0 0 C0 0.33 0 0.66 0 1 C-3.63 1.66 -7.26 2.32 -11 3 C-10.67 2.01 -10.34 1.02 -10 0 C-11.98 0.33 -13.96 0.66 -16 1 C-16 1.33 -16 1.66 -16 2 C-23.92 2 -31.84 2 -40 2 C-40 1.67 -40 1.34 -40 1 C-43.34252724 0.92572162 -45.8035914 0.93453047 -49 2 C-51.3406065 1.72230092 -53.67624308 1.39460023 -56 1 C-56 0.67 -56 0.34 -56 0 C-37.33054002 -3.03480336 -18.68172737 -2.80852814 0 0 Z " fill="#535353" transform="translate(208,74)"/>
<path d="M0 0 C0.66 0.33 1.32 0.66 2 1 C1.67 3.31 1.34 5.62 1 8 C-0.134375 8.12375 -1.26875 8.2475 -2.4375 8.375 C-4.2009375 8.684375 -4.2009375 8.684375 -6 9 C-7.11248523 10.9934896 -7.11248523 10.9934896 -7.4375 13.375 C-7.97605433 15.88825355 -8.75874406 17.76573931 -10 20 C-10.66 19.67 -11.32 19.34 -12 19 C-12.33 20.32 -12.66 21.64 -13 23 C-13.66 22.67 -14.32 22.34 -15 22 C-12.15644249 12.39195473 -8.17656712 5.88139038 0 0 Z " fill="#292929" transform="translate(165,231)"/>
<path d="M0 0 C0 0.66 0 1.32 0 2 C1.32 2.33 2.64 2.66 4 3 C4 3.66 4 4.32 4 5 C1.29172996 5.47952665 -1.41661344 5.95863231 -4.125 6.4375 C-4.88554687 6.57220703 -5.64609375 6.70691406 -6.4296875 6.84570312 C-10.61637161 7.58559127 -14.80477147 8.30973077 -19 9 C-19 8.34 -19 7.68 -19 7 C-16.03 6.34 -13.06 5.68 -10 5 C-10.33 4.34 -10.66 3.68 -11 3 C-10.01 3 -9.02 3 -8 3 C-8 2.34 -8 1.68 -8 1 C-5.10765685 0.17361624 -3.11257569 0 0 0 Z " fill="#282828" transform="translate(163,98)"/>
<path d="M0 0 C3.2826932 1.49076434 5.93077441 3.38620321 8.75 5.625 C9.94882812 6.57246094 9.94882812 6.57246094 11.171875 7.5390625 C11.77515625 8.02117187 12.3784375 8.50328125 13 9 C9.57056481 10.18771723 7.62215325 9.80226223 4.25 8.5625 C3.45078125 8.27503906 2.6515625 7.98757812 1.828125 7.69140625 C0.92320312 7.34916016 0.92320312 7.34916016 0 7 C0 4.66666667 0 2.33333333 0 0 Z " fill="#2D2D2D" transform="translate(274,102)"/>
<path d="M0 0 C5.30101923 4.00808771 9.06969212 8.66268841 13 14 C12.67 14.66 12.34 15.32 12 16 C11.236875 15.835 10.47375 15.67 9.6875 15.5 C6.96403764 14.90854604 6.96403764 14.90854604 4 15 C4.66 13.02 5.32 11.04 6 9 C5.34 8.67 4.68 8.34 4 8 C3.67 7.01 3.34 6.02 3 5 C2.01 5 1.02 5 0 5 C0 3.35 0 1.7 0 0 Z " fill="#333333" transform="translate(264,152)"/>
<path d="M0 0 C6.2054142 0.48320848 11.99945246 1.33318124 18 3 C18 3.33 18 3.66 18 4 C16.02 4.33 14.04 4.66 12 5 C12 4.34 12 3.68 12 3 C11.29875 3.33 10.5975 3.66 9.875 4 C6.67262761 5.11386866 4.36585848 5.37398428 1 5 C0.34 4.01 -0.32 3.02 -1 2 C-0.67 1.34 -0.34 0.68 0 0 Z " fill="#393939" transform="translate(198,120)"/>
<path d="M0 0 C5.61 0 11.22 0 17 0 C17 0.66 17 1.32 17 2 C11.08488777 4.68124465 5.43701998 4.01367118 -0.875 3.625 C-2.47988281 3.53992188 -2.47988281 3.53992188 -4.1171875 3.453125 C-6.7455331 3.31232077 -9.37282566 3.16097726 -12 3 C-12 2.67 -12 2.34 -12 2 C-6.06 1.505 -6.06 1.505 0 1 C0 0.67 0 0.34 0 0 Z " fill="#0D0D0D" transform="translate(181,74)"/>
<path d="M0 0 C0.66 0.33 1.32 0.66 2 1 C1.01 2.485 1.01 2.485 0 4 C-0.63292383 6.11280345 -0.63292383 6.11280345 -1 8 C-1.99 8 -2.98 8 -4 8 C-4.33 8.99 -4.66 9.98 -5 11 C-7.31 11.33 -9.62 11.66 -12 12 C-8.32167983 7.47384007 -4.58913637 3.60575001 0 0 Z " fill="#373737" transform="translate(124,188)"/>
<path d="M0 0 C0.598125 0.226875 1.19625 0.45375 1.8125 0.6875 C1.8125 1.6775 1.8125 2.6675 1.8125 3.6875 C1.1525 3.6875 0.4925 3.6875 -0.1875 3.6875 C0.8025 5.1725 0.8025 5.1725 1.8125 6.6875 C1.8125 7.6775 1.8125 8.6675 1.8125 9.6875 C1.1525 9.6875 0.4925 9.6875 -0.1875 9.6875 C-0.5175 10.3475 -0.8475 11.0075 -1.1875 11.6875 C-3.65492938 8.79095247 -4.99000247 6.53870178 -5.1875 2.6875 C-3.60587179 0.1901923 -2.97595617 -0.4251366 0 0 Z " fill="#2E2E2E" transform="translate(157.1875,264.3125)"/>
<path d="M0 0 C2.31 0.33 4.62 0.66 7 1 C7 1.66 7 2.32 7 3 C6.34 3.66 5.68 4.32 5 5 C5.33 5.99 5.66 6.98 6 8 C1.76570244 6.68938409 -2.07407404 5.05643741 -6 3 C-2.25 1.875 -2.25 1.875 0 3 C0 2.01 0 1.02 0 0 Z " fill="#3A3A3A" transform="translate(222,153)"/>
<path d="M0 0 C1.40742022 2.81484045 0.66652164 4.56936113 0.0625 7.625 C-0.13214844 8.62789062 -0.32679688 9.63078125 -0.52734375 10.6640625 C-0.76130859 11.82035156 -0.76130859 11.82035156 -1 13 C-1.99 12.67 -2.98 12.34 -4 12 C-4.33 13.32 -4.66 14.64 -5 16 C-5.66 15.67 -6.32 15.34 -7 15 C-6.40458546 13.24700288 -5.79828086 11.49770252 -5.1875 9.75 C-4.85105469 8.77546875 -4.51460937 7.8009375 -4.16796875 6.796875 C-3.05867958 4.14051698 -1.8306717 2.20310061 0 0 Z " fill="#494949" transform="translate(157,238)"/>
<path d="M0 0 C1.32 0.66 2.64 1.32 4 2 C4 2.99 4 3.98 4 5 C5.65392712 8.07600063 5.65392712 8.07600063 8.0625 8.875 C10 10 10 10 10.75 12.625 C10.87375 13.800625 10.87375 13.800625 11 15 C1.68456376 7.18791946 1.68456376 7.18791946 -1 4 C-0.8125 1.6875 -0.8125 1.6875 0 0 Z " fill="#2E2E2E" transform="translate(235,161)"/>
<path d="M0 0 C1.67542976 0.28604898 3.34385343 0.61781233 5 1 C3.88096454 2.81618856 2.75458716 4.62785526 1.625 6.4375 C0.99851562 7.44683594 0.37203125 8.45617187 -0.2734375 9.49609375 C-2 12 -2 12 -4 13 C-4.33 11.68 -4.66 10.36 -5 9 C-3.35 8.34 -1.7 7.68 0 7 C-0.185625 6.030625 -0.37125 5.06125 -0.5625 4.0625 C-0.706875 3.051875 -0.85125 2.04125 -1 1 C-0.67 0.67 -0.34 0.34 0 0 Z " fill="#3E3E3E" transform="translate(102,185)"/>
<path d="M0 0 C5.75 -0.125 5.75 -0.125 8 1 C7.67 2.32 7.34 3.64 7 5 C6.34 5 5.68 5 5 5 C5 5.99 5 6.98 5 8 C4.34 8 3.68 8 3 8 C3 7.34 3 6.68 3 6 C2.34 5.67 1.68 5.34 1 5 C1 4.34 1 3.68 1 3 C0.67 2.01 0.34 1.02 0 0 Z " fill="#0F0F0F" transform="translate(80,192)"/>
<path d="M0 0 C3.91402949 1.26941497 5.79072873 2.51167694 8 6 C7.01 6.495 7.01 6.495 6 7 C6 7.33 6 7.66 6 8 C4.35 8 2.7 8 1 8 C0.17361624 5.10765685 0 3.11257569 0 0 Z " fill="#2F2F2F" transform="translate(196,231)"/>
<path d="M0 0 C5.51561369 2.88037604 10.36290866 5.83850777 15 10 C13.125 11.0625 13.125 11.0625 11 12 C10.34 11.67 9.68 11.34 9 11 C8.896875 10.360625 8.79375 9.72125 8.6875 9.0625 C8.460625 8.381875 8.23375 7.70125 8 7 C5.60931266 5.89363605 5.60931266 5.89363605 3 5 C1.1875 3.5 1.1875 3.5 0 2 C0 1.34 0 0.68 0 0 Z " fill="#5C5C5C" transform="translate(242,135)"/>
<path d="M0 0 C0.66 0.33 1.32 0.66 2 1 C3.75179535 6.25538604 3.64761951 10.48888781 1.5 15.5 C0.7575 16.7375 0.7575 16.7375 0 18 C-0.33 18 -0.66 18 -1 18 C-1 16.35 -1 14.7 -1 13 C-0.34 13 0.32 13 1 13 C0.835 11.96875 0.67 10.9375 0.5 9.875 C0.06678152 6.51755674 -0.08235703 3.37663843 0 0 Z " fill="#525252" transform="translate(259,214)"/>
<path d="M0 0 C0 0.33 0 0.66 0 1 C-1.670625 1.2165625 -1.670625 1.2165625 -3.375 1.4375 C-6.82142047 1.78372035 -6.82142047 1.78372035 -9 3 C-10.67654729 2.72057545 -12.34608154 2.39171753 -14 2 C-13.67 2.99 -13.34 3.98 -13 5 C-16.3 4.67 -19.6 4.34 -23 4 C-15.76306482 0.38153241 -8.01154059 -0.30232229 0 0 Z " fill="#585858" transform="translate(171,119)"/>
<path d="M0 0 C1.48280196 0.78483659 2.9611498 1.57809334 4.4375 2.375 C5.67306641 3.03628906 5.67306641 3.03628906 6.93359375 3.7109375 C9 5 9 5 10 7 C7.01758453 7.77321882 4.02419525 8.41196203 1 9 C1.33 7.35 1.66 5.7 2 4 C1.34 3.67 0.68 3.34 0 3 C0 2.01 0 1.02 0 0 Z " fill="#373737" transform="translate(264,95)"/>
<path d="M0 0 C0.99 0 1.98 0 3 0 C3 0.66 3 1.32 3 2 C3.66 2.66 4.32 3.32 5 4 C3.71349294 4.69710731 2.42059335 5.38242876 1.125 6.0625 C0.04605469 6.63677734 0.04605469 6.63677734 -1.0546875 7.22265625 C-1.69664062 7.47917969 -2.33859375 7.73570312 -3 8 C-3.66 7.67 -4.32 7.34 -5 7 C-4.67 5.68 -4.34 4.36 -4 3 C-3.01 3.33 -2.02 3.66 -1 4 C-0.67 2.68 -0.34 1.36 0 0 Z " fill="#3A3A3A" transform="translate(151,202)"/>
<path d="M0 0 C1.32 0 2.64 0 4 0 C4 0.66 4 1.32 4 2 C3.01 2.495 3.01 2.495 2 3 C1.34227572 6.02934491 1.34227572 6.02934491 1 9 C-0.65 8.67 -2.3 8.34 -4 8 C-3.67 6.35 -3.34 4.7 -3 3 C-2.34 3 -1.68 3 -1 3 C-0.67 2.01 -0.34 1.02 0 0 Z " fill="#0E0E0E" transform="translate(156,247)"/>
<path d="M0 0 C0.98484375 0.0928125 1.9696875 0.185625 2.984375 0.28125 C3.73203125 0.3534375 4.4796875 0.425625 5.25 0.5 C5.25 0.83 5.25 1.16 5.25 1.5 C-0.03 2.16 -5.31 2.82 -10.75 3.5 C-10.75 2.84 -10.75 2.18 -10.75 1.5 C-11.41 1.17 -12.07 0.84 -12.75 0.5 C-8.42284875 -0.94238375 -4.46688215 -0.42541735 0 0 Z " fill="#484848" transform="translate(167.75,147.5)"/>
<path d="M0 0 C0.66 0 1.32 0 2 0 C3.7265625 1.96875 3.7265625 1.96875 5.625 4.5 C6.25664062 5.3353125 6.88828125 6.170625 7.5390625 7.03125 C8.02117187 7.6809375 8.50328125 8.330625 9 9 C8.67 9.66 8.34 10.32 8 11 C6.68 10.67 5.36 10.34 4 10 C4 8.68 4 7.36 4 6 C3.01 6.66 2.02 7.32 1 8 C0.67 5.36 0.34 2.72 0 0 Z " fill="#535353" transform="translate(248,200)"/>
<path d="M0 0 C0.33 0.66 0.66 1.32 1 2 C1.99 2.33 2.98 2.66 4 3 C3.67 4.32 3.34 5.64 3 7 C1.68 7.33 0.36 7.66 -1 8 C-1.33 7.34 -1.66 6.68 -2 6 C-1.67 5.34 -1.34 4.68 -1 4 C-1.66 3.67 -2.32 3.34 -3 3 C-2.01 2.01 -1.02 1.02 0 0 Z " fill="#282828" transform="translate(92,156)"/>
<path d="M0 0 C2.97 0 5.94 0 9 0 C9.66 1.32 10.32 2.64 11 4 C10 5 10 5 7.4375 5.0625 C6.2309375 5.0315625 6.2309375 5.0315625 5 5 C4.67 4.34 4.34 3.68 4 3 C1.98330173 1.86649466 1.98330173 1.86649466 0 1 C0 0.67 0 0.34 0 0 Z " fill="#101010" transform="translate(225,131)"/>
<path d="M0 0 C1.32 0.66 2.64 1.32 4 2 C1.36 4.31 -1.28 6.62 -4 9 C-4.66 8.67 -5.32 8.34 -6 8 C-5.34 6.68 -4.68 5.36 -4 4 C-4.66 4 -5.32 4 -6 4 C-6 3.34 -6 2.68 -6 2 C-4.35 2 -2.7 2 -1 2 C-0.67 1.34 -0.34 0.68 0 0 Z " fill="#505050" transform="translate(94,129)"/>
<path d="M0 0 C1.98 0 3.96 0 6 0 C3.2180632 3.27286682 -0.27954067 4.96427697 -4 7 C-4.66 5.68 -5.32 4.36 -6 3 C-3.525 3.495 -3.525 3.495 -1 4 C-0.67 2.68 -0.34 1.36 0 0 Z " fill="#4B4B4B" transform="translate(103,122)"/>
<path d="M0 0 C0 1.66666667 0 3.33333333 0 5 C0.33 5.99 0.66 6.98 1 8 C0.34 8 -0.32 8 -1 8 C-1.33 8.66 -1.66 9.32 -2 10 C-2.66 9.01 -3.32 8.02 -4 7 C-5.98 7.99 -5.98 7.99 -8 9 C-7.04270084 7.87411986 -6.08412105 6.7493285 -5.125 5.625 C-4.59132813 4.99851562 -4.05765625 4.37203125 -3.5078125 3.7265625 C-2.38567993 2.44163349 -1.20628025 1.20628025 0 0 Z M1 6 C3 7 3 7 3 7 Z " fill="#3C3C3C" transform="translate(71,113)"/>
<path d="M0 0 C0 0.33 0 0.66 0 1 C-1.0725 1.12375 -2.145 1.2475 -3.25 1.375 C-6.37863615 1.89643936 -8.33480424 2.40088254 -11 4 C-11.33 3.34 -11.66 2.68 -12 2 C-12.99 2 -13.98 2 -15 2 C-15.33 2.66 -15.66 3.32 -16 4 C-16.66 3.34 -17.32 2.68 -18 2 C-12.12116651 -0.61281488 -6.29268272 -0.18328202 0 0 Z " fill="#4A4A4A" transform="translate(187,227)"/>
<path d="M0 0 C2.4375 0.75 2.4375 0.75 5 2 C5.66015625 4.078125 5.66015625 4.078125 6 6 C4.22739369 5.54857225 2.4569632 5.08859477 0.6875 4.625 C-0.79169922 4.24214844 -0.79169922 4.24214844 -2.30078125 3.8515625 C-5 3 -5 3 -8 1 C-5.36 1.33 -2.72 1.66 0 2 C0 1.34 0 0.68 0 0 Z " fill="#434343" transform="translate(203,201)"/>
<path d="M0 0 C4.4008703 3.82180842 5.80805531 6.47371099 7 12 C6.34 11.67 5.68 11.34 5 11 C5 10.01 5 9.02 5 8 C3.02 8.99 3.02 8.99 1 10 C1.020625 8.906875 1.04125 7.81375 1.0625 6.6875 C1.18544452 3.05615809 1.18544452 3.05615809 0 0 Z " fill="#595959" transform="translate(204,237)"/>
<path d="M0 0 C0.66 1.32 1.32 2.64 2 4 C2.66 4 3.32 4 4 4 C4.33 6.64 4.66 9.28 5 12 C2.05608416 9.2110271 -0.49414733 6.18311015 -3 3 C-3 2.34 -3 1.68 -3 1 C-2.01 0.67 -1.02 0.34 0 0 Z " fill="#525252" transform="translate(251,177)"/>
<path d="M0 0 C0.66 0.33 1.32 0.66 2 1 C1.67 1.66 1.34 2.32 1 3 C1.33 3.99 1.66 4.98 2 6 C1.01 6.33 0.02 6.66 -1 7 C-1 6.34 -1 5.68 -1 5 C-1.78375 5.515625 -2.5675 6.03125 -3.375 6.5625 C-4.24125 7.036875 -5.1075 7.51125 -6 8 C-6.66 7.67 -7.32 7.34 -8 7 C-5.36 4.69 -2.72 2.38 0 0 Z " fill="#515151" transform="translate(108,141)"/>
<path d="M0 0 C0.33 1.32 0.66 2.64 1 4 C0.01 4 -0.98 4 -2 4 C-2.33 4.99 -2.66 5.98 -3 7 C-4.32 6.34 -5.64 5.68 -7 5 C-6.34 4.67 -5.68 4.34 -5 4 C-5 3.34 -5 2.68 -5 2 C-2 0 -2 0 0 0 Z " fill="#101010" transform="translate(133,129)"/>
<path d="M0 0 C0.66 0.33 1.32 0.66 2 1 C2 1.99 2 2.98 2 4 C3.32 4.66 4.64 5.32 6 6 C6 6.66 6 7.32 6 8 C3.23723823 7.47731534 0.6739124 6.89130413 -2 6 C-1.34 4.02 -0.68 2.04 0 0 Z " fill="#111111" transform="translate(251,205)"/>
<path d="M0 0 C0.99 0.33 1.98 0.66 3 1 C2.67 1.66 2.34 2.32 2 3 C2.99 3 3.98 3 5 3 C4.67 4.32 4.34 5.64 4 7 C1.13275314 6.42655063 0.1385485 6.1385485 -2 4 C-1.34 2.68 -0.68 1.36 0 0 Z " fill="#101010" transform="translate(208,200)"/>
<path d="M0 0 C1.32 0.33 2.64 0.66 4 1 C3.52949219 1.39832031 3.05898437 1.79664063 2.57421875 2.20703125 C1.64029297 3.00173828 1.64029297 3.00173828 0.6875 3.8125 C0.07261719 4.33457031 -0.54226562 4.85664063 -1.17578125 5.39453125 C-2.85424679 6.87172469 -4.43882034 8.40039131 -6 10 C-5.67 7.69 -5.34 5.38 -5 3 C-3.35 3 -1.7 3 0 3 C0 2.01 0 1.02 0 0 Z " fill="#4F4F4F" transform="translate(118,169)"/>
<path d="M0 0 C0.66 0.99 1.32 1.98 2 3 C1.67 3.99 1.34 4.98 1 6 C-0.32 6 -1.64 6 -3 6 C-5.20067421 6.93283296 -5.20067421 6.93283296 -7 8 C-6.67 6.68 -6.34 5.36 -6 4 C-5.34 4 -4.68 4 -4 4 C-4 3.34 -4 2.68 -4 2 C-3.01 2 -2.02 2 -1 2 C-0.67 1.34 -0.34 0.68 0 0 Z " fill="#0F0F0F" transform="translate(86,169)"/>
<path d="M0 0 C0.99 0 1.98 0 3 0 C3 0.66 3 1.32 3 2 C2.34 2 1.68 2 1 2 C1.95865509 4.33075929 1.95865509 4.33075929 5 6 C0.65535464 5.39174965 -3.67551867 4.73832608 -8 4 C-8 3.67 -8 3.34 -8 3 C-5.69 3 -3.38 3 -1 3 C-0.67 2.01 -0.34 1.02 0 0 Z " fill="#454545" transform="translate(203,146)"/>
<path d="M0 0 C5.28 0.33 10.56 0.66 16 1 C16 1.33 16 1.66 16 2 C12.37 2.66 8.74 3.32 5 4 C5.33 3.01 5.66 2.02 6 1 C4.02 1 2.04 1 0 1 C0 0.67 0 0.34 0 0 Z " fill="#4D4D4D" transform="translate(192,73)"/>
<path d="M0 0 C0.66 0.33 1.32 0.66 2 1 C1.01 2.485 1.01 2.485 0 4 C-0.63292383 6.11280345 -0.63292383 6.11280345 -1 8 C-1.99 7.67 -2.98 7.34 -4 7 C-4.99 7 -5.98 7 -7 7 C-4.66666667 4.66666667 -2.33333333 2.33333333 0 0 Z " fill="#585858" transform="translate(124,188)"/>
<path d="M0 0 C0.33 0.66 0.66 1.32 1 2 C1.99 2.33 2.98 2.66 4 3 C4 5.31 4 7.62 4 10 C1 8 1 8 0.48828125 6.0546875 C0.32552083 4.03645833 0.16276042 2.01822917 0 0 Z " fill="#121212" transform="translate(75,185)"/>
<path d="M0 0 C2.375 -0.1875 2.375 -0.1875 5 0 C5.66 0.99 6.32 1.98 7 3 C5.02 3.99 3.04 4.98 1 6 C0.67 4.02 0.34 2.04 0 0 Z " fill="#393939" transform="translate(123,161)"/>
<path d="M0 0 C6.57142857 5.14285714 6.57142857 5.14285714 8 9 C6.0625 8.6875 6.0625 8.6875 4 8 C3.67 7.01 3.34 6.02 3 5 C2.01 5 1.02 5 0 5 C0 3.35 0 1.7 0 0 Z " fill="#606060" transform="translate(264,152)"/>
<path d="M0 0 C1 2 1 2 0.8125 4 C0 6 0 6 -2.0625 7.25 C-3.0215625 7.62125 -3.0215625 7.62125 -4 8 C-4.66 7.34 -5.32 6.68 -6 6 C-4.02 4.02 -2.04 2.04 0 0 Z " fill="#363636" transform="translate(99,149)"/>
<path d="M0 0 C2.9719385 1.12451727 5.33440687 2.22293791 8 4 C8 4.66 8 5.32 8 6 C5.6875 5.8125 5.6875 5.8125 3 5 C1.1875 2.4375 1.1875 2.4375 0 0 Z " fill="#353535" transform="translate(262,128)"/>
<path d="M0 0 C1.32 0 2.64 0 4 0 C4.33 1.65 4.66 3.3 5 5 C2.69 5 0.38 5 -2 5 C-1.34 3.35 -0.68 1.7 0 0 Z " fill="#111111" transform="translate(194,120)"/>
<path d="M0 0 C0 3.9519815 -1.37176172 5.14648416 -4 8 C-4.99 8.33 -5.98 8.66 -7 9 C-7 8.01 -7 7.02 -7 6 C-6.01 6 -5.02 6 -4 6 C-3.896875 5.38125 -3.79375 4.7625 -3.6875 4.125 C-3 2 -3 2 0 0 Z " fill="#5B5B5B" transform="translate(74,153)"/>
<path d="M0 0 C0.99 0.66 1.98 1.32 3 2 C2.67 3.65 2.34 5.3 2 7 C0.0625 6.6875 0.0625 6.6875 -2 6 C-2.33 5.01 -2.66 4.02 -3 3 C-2.01 3 -1.02 3 0 3 C0 2.01 0 1.02 0 0 Z " fill="#0D0D0D" transform="translate(53,154)"/>
<path d="M0 0 C-0.1875 2.375 -0.1875 2.375 -1 5 C-3.5625 6.3125 -3.5625 6.3125 -6 7 C-6 4 -6 4 -4.125 1.8125 C-2 0 -2 0 0 0 Z " fill="#444444" transform="translate(116,137)"/>
<path d="M0 0 C0.66 0.33 1.32 0.66 2 1 C1.67 2.32 1.34 3.64 1 5 C-0.65 5.33 -2.3 5.66 -4 6 C-4 5.01 -4 4.02 -4 3 C-2 1.3125 -2 1.3125 0 0 Z " fill="#101010" transform="translate(67,119)"/>
<path d="M0 0 C0.66 0.33 1.32 0.66 2 1 C0.375 3.0625 0.375 3.0625 -2 5 C-5.25 4.75 -5.25 4.75 -8 4 C-5.31143836 2.20762558 -3.0466145 1.01553817 0 0 Z " fill="#0B0B0B" transform="translate(124,83)"/>
<path d="M0 0 C1.8125 0.1875 1.8125 0.1875 4 1 C5.75 3.5625 5.75 3.5625 7 6 C6.34 6 5.68 6 5 6 C5 5.34 5 4.68 5 4 C3.35 4 1.7 4 0 4 C-0.33 3.34 -0.66 2.68 -1 2 C-0.67 1.34 -0.34 0.68 0 0 Z " fill="#2C2C2C" transform="translate(297,124)"/>
<path d="M0 0 C1.98 0 3.96 0 6 0 C2.8745041 2.64465038 -0.08788267 3.84414715 -4 5 C-3.67 4.01 -3.34 3.02 -3 2 C-2.01 2 -1.02 2 0 2 C0 1.34 0 0.68 0 0 Z " fill="#5E5E5E" transform="translate(116,115)"/>
<path d="M0 0 C2.86724686 0.57344937 3.8614515 0.8614515 6 3 C2.25 6 2.25 6 0 6 C-0.33 5.01 -0.66 4.02 -1 3 C-0.34 2.67 0.32 2.34 1 2 C0.67 1.34 0.34 0.68 0 0 Z " fill="#464646" transform="translate(139,209)"/>
<path d="M0 0 C0.99 0.33 1.98 0.66 3 1 C3 1.99 3 2.98 3 4 C1.02 4.33 -0.96 4.66 -3 5 C-2.625 3.0625 -2.625 3.0625 -2 1 C-1.34 0.67 -0.68 0.34 0 0 Z " fill="#0E0E0E" transform="translate(52,137)"/>
<path d="M0 0 C1.98 0.66 3.96 1.32 6 2 C6.33 3.65 6.66 5.3 7 7 C5.83040013 6.02433888 4.66438823 5.044375 3.5 4.0625 C2.8503125 3.51722656 2.200625 2.97195312 1.53125 2.41015625 C1.0259375 1.94480469 0.520625 1.47945312 0 1 C0 0.67 0 0.34 0 0 Z " fill="#505050" transform="translate(239,169)"/>
<path d="M0 0 C0.99 0 1.98 0 3 0 C3 0.66 3 1.32 3 2 C2.01 2 1.02 2 0 2 C0 1.34 0 0.68 0 0 Z M-3 1 C-2.01 1.33 -1.02 1.66 0 2 C0 2.66 0 3.32 0 4 C0.99 4.33 1.98 4.66 3 5 C2.01 5.33 1.02 5.66 0 6 C-1.5 4.625 -1.5 4.625 -3 3 C-3 2.34 -3 1.68 -3 1 Z " fill="#3A3A3A" transform="translate(290,154)"/>
<path d="M0 0 C1.258125 -0.04125 2.51625 -0.0825 3.8125 -0.125 C4.52019531 -0.14820313 5.22789062 -0.17140625 5.95703125 -0.1953125 C8 0 8 0 11 2 C6.58937864 3.0257259 4.07369424 3.03684712 0 1 C0 0.67 0 0.34 0 0 Z " fill="#0D0D0D" transform="translate(195,144)"/>
<path d="M0 0 C0.33 0 0.66 0 1 0 C1 1.65 1 3.3 1 5 C0.34 5 -0.32 5 -1 5 C-1.33 6.32 -1.66 7.64 -2 9 C-2.66 8.67 -3.32 8.34 -4 8 C-3.34 6.35 -2.68 4.7 -2 3 C-1.34 3 -0.68 3 0 3 C0 2.01 0 1.02 0 0 Z " fill="#414141" transform="translate(154,245)"/>
<path d="M0 0 C0.6875 1.8125 0.6875 1.8125 1 4 C-0.3125 5.75 -0.3125 5.75 -2 7 C-2.66 7 -3.32 7 -4 7 C-2.92598892 4.08482708 -2.22189824 2.22189824 0 0 Z " fill="#565656" transform="translate(106,206)"/>
<path d="M0 0 C0.66 0 1.32 0 2 0 C2.33 1.32 2.66 2.64 3 4 C1.02 4.33 -0.96 4.66 -3 5 C-1.125 1.125 -1.125 1.125 0 0 Z " fill="#0E0E0E" transform="translate(115,168)"/>
<path d="M0 0 C1 3 1 3 1 6 C-0.65 6.33 -2.3 6.66 -4 7 C-2.79618552 4.50638429 -1.54571278 2.31856917 0 0 Z " fill="#5A5A5A" transform="translate(88,160)"/>
<path d="M0 0 C2.475 0.495 2.475 0.495 5 1 C5.33 2.32 5.66 3.64 6 5 C4.35 4.67 2.7 4.34 1 4 C1.66 3.67 2.32 3.34 3 3 C3 2.34 3 1.68 3 1 C2.01 0.67 1.02 0.34 0 0 Z " fill="#0C0C0C" transform="translate(226,153)"/>
<path d="M0 0 C2.31 0 4.62 0 7 0 C4.01353231 1.99097846 1.40312738 2.94124926 -2 4 C-1.34 2.68 -0.68 1.36 0 0 Z " fill="#4E4E4E" transform="translate(140,154)"/>
</svg>
