<?xml version="1.0" encoding="UTF-8"?>
<svg version="1.1" xmlns="http://www.w3.org/2000/svg" width="660" height="705">
<path d="M0 0 C0.88783173 0.00126892 1.77566345 0.00253784 2.69039917 0.00384521 C55.30707195 0.14704238 102.67127113 13.86688153 149.625 37.1875 C150.68799316 37.70586426 151.75098633 38.22422852 152.84619141 38.75830078 C158.41488393 41.49189638 163.76266013 44.29571693 168.875 47.8125 C169.49213867 48.23072021 170.10927734 48.64894043 170.74511719 49.07983398 C196.8552971 66.96248486 222.16406133 88.08170488 241.625 113.1875 C242.25019531 113.94546875 242.87539063 114.7034375 243.51953125 115.484375 C253.27758045 127.32917607 261.91767667 140.04119326 269.55712891 153.34130859 C270.61669751 155.17314622 271.70248162 156.98721652 272.79296875 158.80078125 C288.72278028 185.67968324 299.54084695 216.59207009 305.625 247.1875 C305.80756348 248.09483887 305.99012695 249.00217773 306.17822266 249.93701172 C319.07315777 315.33355711 311.77009426 387.77224325 280.625 447.1875 C279.97617849 448.50310117 279.33181868 449.82090999 278.69140625 451.140625 C274.47436084 459.81577853 269.88302287 468.08855545 264.625 476.1875 C264.19735352 476.85475098 263.76970703 477.52200195 263.32910156 478.20947266 C251.95783993 495.90835588 239.3170279 512.13148896 224.625 527.1875 C223.95033691 527.88794434 223.27567383 528.58838867 222.58056641 529.31005859 C214.43072218 537.75973613 206.21266625 545.72506786 196.81640625 552.77734375 C193.85302096 555.01529812 191.02061967 557.35081913 188.1875 559.75 C170.41380372 574.28744522 149.45660257 586.1971121 128.46435547 595.37890625 C126.73881168 596.13746758 125.02700695 596.92706703 123.31640625 597.71875 C97.55635533 609.34633601 69.51147783 616.1437838 41.625 620.1875 C40.82755371 620.30609375 40.03010742 620.4246875 39.20849609 620.546875 C11.6157424 624.44641874 -17.92978661 623.46686415 -45.375 619.1875 C-46.47134766 619.02121094 -47.56769531 618.85492187 -48.69726562 618.68359375 C-76.4108496 614.36085102 -125.61157117 605.95092883 -146.375 585.1875 C-151.801418 585.63715016 -156.73687758 586.7235062 -161.91015625 588.42578125 C-162.637117 588.65836639 -163.36407776 588.89095154 -164.11306763 589.13058472 C-166.55667495 589.91392564 -168.99699263 590.70705886 -171.4375 591.5 C-173.20393617 592.0682319 -174.97062785 592.63567 -176.73754883 593.20239258 C-179.65226365 594.13743381 -182.56675434 595.07313519 -185.48045349 596.01133728 C-193.3114104 598.53188395 -201.15147582 601.02298797 -208.99550819 603.50245857 C-211.05090523 604.15218105 -213.10618198 604.8022827 -215.16142273 605.45249939 C-226.62709005 609.07974313 -226.62709005 609.07974313 -231.52249146 610.62564087 C-247.20336984 615.57880954 -262.84674056 620.62673856 -278.43022156 625.87846375 C-285.57118547 628.28015152 -292.72503123 630.56998809 -299.97460938 632.62120056 C-305.05165548 634.05949734 -310.00825943 635.7571953 -314.95703125 637.5859375 C-317.59473047 638.24216639 -318.82033766 637.93031876 -321.375 637.1875 C-318.82240887 628.35878878 -315.91424952 619.65139461 -313 610.9375 C-312.74033447 610.15938965 -312.48066895 609.3812793 -312.21313477 608.57958984 C-307.89345143 595.63757225 -303.49283354 582.72415668 -299.06204224 569.81982422 C-293.53136243 553.70794696 -288.13353247 537.55326588 -282.76879883 521.38549805 C-279.55515792 511.7028527 -276.33420703 502.02261864 -273.07421875 492.35546875 C-272.56858398 490.85209961 -272.56858398 490.85209961 -272.05273438 489.31835938 C-271.37524459 487.30459783 -270.69544669 485.29161173 -270.01367188 483.27929688 C-269.68302734 482.29380859 -269.35238281 481.30832031 -269.01171875 480.29296875 C-268.71998779 479.42824951 -268.42825684 478.56353027 -268.12768555 477.67260742 C-266.44594015 472.74346408 -266.44594015 472.74346408 -267.29614258 467.78173828 C-267.78236084 466.94884277 -268.2685791 466.11594727 -268.76953125 465.2578125 C-269.57729004 463.835896 -269.57729004 463.835896 -270.40136719 462.38525391 C-270.99079102 461.37124512 -271.58021484 460.35723633 -272.1875 459.3125 C-297.57358011 413.97040721 -309.63659889 363.64536077 -309.5625 311.8125 C-309.56189575 311.02614166 -309.5612915 310.23978333 -309.56066895 309.42959595 C-309.46878248 265.13303751 -300.37802457 222.67876246 -282.375 182.1875 C-282.0754541 181.4980127 -281.7759082 180.80852539 -281.46728516 180.09814453 C-277.35600104 170.66237331 -272.53223075 161.7181403 -267.375 152.8125 C-266.80571777 151.82612549 -266.23643555 150.83975098 -265.64990234 149.82348633 C-262.14918819 143.87566618 -258.37074129 138.24724879 -254.2512207 132.70996094 C-252.31380654 130.10522923 -250.43503679 127.46413447 -248.5625 124.8125 C-244.22193604 118.84635228 -239.50466699 113.24221847 -234.66845703 107.67626953 C-233.55289316 106.3922551 -232.44557285 105.10108707 -231.33984375 103.80859375 C-220.09852353 90.95817799 -207.89318751 78.6275015 -194.375 68.1875 C-192.6238793 66.70966026 -190.87391903 65.23044462 -189.125 63.75 C-182.54833914 58.37250237 -175.51721879 53.76769178 -168.375 49.1875 C-167.29089844 48.48496094 -166.20679688 47.78242187 -165.08984375 47.05859375 C-157.50765138 42.25747814 -149.67701037 38.18596889 -141.609375 34.28442383 C-139.94079954 33.4652685 -138.28063079 32.6289481 -136.625 31.78393555 C-129.70391425 28.25870437 -122.71919356 25.11329177 -115.5 22.25 C-113.88097778 21.60768433 -113.88097778 21.60768433 -112.22924805 20.95239258 C-76.15304613 6.84572339 -38.70953247 -0.05689988 0 0 Z M-96.375 72.1875 C-97.3954541 72.59669678 -97.3954541 72.59669678 -98.43652344 73.01416016 C-124.32177052 83.47189987 -148.59325985 99.21078851 -169.109375 118.10546875 C-171.18392036 120.0119044 -173.29765931 121.8551561 -175.4375 123.6875 C-182.77218468 130.10903116 -189.23711207 137.02911337 -195.32421875 144.640625 C-196.95996665 146.6720681 -198.63310464 148.62386163 -200.375 150.5625 C-240.95446634 197.71940731 -260.24570915 266.04469101 -255.85961914 327.33911133 C-253.49730351 356.64804913 -247.36182059 385.2615493 -235.375 412.1875 C-235.02179688 412.98736328 -234.66859375 413.78722656 -234.3046875 414.61132812 C-228.57831219 427.45447563 -222.18642181 440.20399947 -213.9296875 451.6328125 C-213.18976563 452.66148437 -212.44984375 453.69015625 -211.6875 454.75 C-211.02363281 455.61753906 -210.35976562 456.48507812 -209.67578125 457.37890625 C-207.00535395 463.1447838 -209.7284886 469.85732417 -211.67578125 475.578125 C-211.90827072 476.268564 -212.14076019 476.95900299 -212.3802948 477.67036438 C-213.14236683 479.92851429 -213.91489043 482.18293614 -214.6875 484.4375 C-215.22473961 486.02309162 -215.76118456 487.60895269 -216.296875 489.19506836 C-217.4158443 492.50653872 -218.53826376 495.81681241 -219.66259766 499.12646484 C-221.36139619 504.13633133 -223.03398054 509.15467367 -224.69921875 514.17578125 C-224.96728836 514.98359039 -225.23535797 515.79139954 -225.5115509 516.62368774 C-226.55126784 519.75750253 -227.59061312 522.89143967 -228.6288147 526.02575684 C-229.34478744 528.18564408 -230.0625005 530.34494157 -230.78125 532.50390625 C-231.00423264 533.17513519 -231.22721527 533.84636414 -231.45695496 534.53793335 C-233.081636 539.39607452 -234.83520283 544.19511021 -236.69335938 548.96850586 C-237.57076159 551.43788871 -237.57076159 551.43788871 -237.375 555.1875 C-230.08876549 553.69894524 -223.09294166 551.63178135 -216.01171875 549.37109375 C-214.82568558 548.9957399 -213.6396524 548.62038605 -212.41767883 548.23365784 C-209.26624842 547.23543552 -206.11591269 546.23385282 -202.96606445 545.23065186 C-199.86441319 544.24380802 -196.76121113 543.26186472 -193.65820312 542.27929688 C-191.19269803 541.49742831 -188.72720324 540.71552728 -186.26171875 539.93359375 C-185.04314178 539.54795258 -183.82456482 539.1623114 -182.56906128 538.76498413 C-176.84516415 536.94840612 -171.12842834 535.11490331 -165.43161678 533.21516705 C-163.48121714 532.56502819 -161.52937872 531.91939735 -159.57710266 531.2749176 C-157.13482074 530.46642922 -154.69565192 529.64845668 -152.26017761 528.81968689 C-151.16603043 528.45903641 -150.07188324 528.09838593 -148.94458008 527.72680664 C-147.98667068 527.40458633 -147.02876129 527.08236603 -146.04182434 526.75038147 C-141.30397793 525.75037337 -137.99363664 527.17076033 -133.9609375 529.59375 C-133.12739746 530.08593018 -132.29385742 530.57811035 -131.43505859 531.08520508 C-130.10595459 531.87834106 -130.10595459 531.87834106 -128.75 532.6875 C-104.31171054 546.92514651 -78.61059028 556.61911444 -51.0625 562.875 C-50.19915039 563.07754395 -49.33580078 563.28008789 -48.44628906 563.48876953 C-32.24690691 567.02151948 -15.64582738 567.57277297 0.875 567.5 C1.76575226 567.49784485 2.65650452 567.4956897 3.57424927 567.49346924 C67.8468452 567.24511573 129.32072382 542.86624719 175.98046875 498.62109375 C178.625 496.1875 178.625 496.1875 181.625 494.1875 C181.625 493.5275 181.625 492.8675 181.625 492.1875 C182.615 491.8575 183.605 491.5275 184.625 491.1875 C186.20516767 489.66680027 186.20516767 489.66680027 187.75 487.75 C189.66860163 485.47565765 191.58337329 483.23164708 193.625 481.06640625 C243.30210221 428.37580336 259.54339351 358.17901948 257.53271484 287.96484375 C255.70710295 245.76601902 238.29082071 201.69914384 214.625 167.1875 C213.79602111 165.94718487 212.96783858 164.70633693 212.140625 163.46484375 C211.38610781 162.35109397 210.63091493 161.23780159 209.875 160.125 C209.29685547 159.25584961 209.29685547 159.25584961 208.70703125 158.36914062 C207.73099739 156.93886264 206.68382487 155.55761938 205.625 154.1875 C204.965 154.1875 204.305 154.1875 203.625 154.1875 C203.25181641 153.3521875 203.25181641 153.3521875 202.87109375 152.5 C196.83693945 141.30182023 185.32721869 130.00727437 175.6328125 121.8828125 C173.33763591 119.94486184 171.14500437 117.91215033 168.9375 115.875 C128.8177596 79.7916969 76.03298233 58.87963867 22.625 54.1875 C21.10386597 54.0471936 21.10386597 54.0471936 19.55200195 53.90405273 C-19.64123706 50.41972834 -60.04181537 57.33616353 -96.375 72.1875 Z " fill="#179C0D" transform="translate(335.375,11.8125)"/>
<path d="M0 0 C1.51013672 0.04737305 1.51013672 0.04737305 3.05078125 0.09570312 C10.53702785 0.43420314 16.24741982 1.16281962 21.65625 6.78515625 C25.31652048 11.41753437 27.0811878 16.72640997 29 22.25 C29.78254024 24.4192751 30.56509232 26.58854594 31.34765625 28.7578125 C31.90477295 30.32837402 31.90477295 30.32837402 32.47314453 31.93066406 C33.74982227 35.51361794 35.08773041 39.06894981 36.4375 42.625 C36.89253906 43.85347656 37.34757812 45.08195312 37.81640625 46.34765625 C39.19332191 50.04137073 40.64060943 53.70520027 42.08984375 57.37109375 C43.01857383 59.76809565 43.94695721 62.16523192 44.875 64.5625 C45.32866943 65.68760986 45.78233887 66.81271973 46.24975586 67.97192383 C49.24665046 75.79532953 51.48688326 83.97100363 48.68579102 92.20629883 C43.90679869 102.3240976 34.10737682 111.62587436 26.0234375 119.1640625 C24.29337543 121.03607838 23.31443116 122.38672118 22.5 124.8125 C22.74871825 129.89345858 24.81168859 133.80575912 27.3125 138.125 C27.7055835 138.81287598 28.09866699 139.50075195 28.50366211 140.20947266 C38.22688598 156.86442025 50.31097103 171.80785989 63.5 185.8125 C64.11746094 186.4725 64.73492187 187.1325 65.37109375 187.8125 C80.42374922 203.4066179 99.31842679 214.63371682 118.25 224.8125 C119.31557129 225.40119873 120.38114258 225.98989746 121.47900391 226.59643555 C127.82889502 229.95065583 132.29826989 231.77841252 139.5 230.8125 C142.2666417 229.14400649 144.32215459 227.19019476 146.5 224.8125 C147.01691406 224.255625 147.53382813 223.69875 148.06640625 223.125 C149.9188851 221.05379473 151.70911562 218.93727808 153.5 216.8125 C156.49050388 213.30186088 159.49210946 209.80097634 162.50390625 206.30859375 C164.37710669 204.13520475 166.21006585 201.94439785 168.02734375 199.72265625 C168.78144531 198.82417969 169.53554688 197.92570313 170.3125 197 C171.28123047 195.81470703 171.28123047 195.81470703 172.26953125 194.60546875 C175.35766818 192.12306096 177.56798005 191.92195666 181.5 191.8125 C192.34341138 194.50676256 202.36078745 200.84616393 212.03125 206.24609375 C216.90963331 208.96105389 221.83202213 211.57781204 226.78125 214.16015625 C228.22665801 214.91688382 229.67205186 215.67363844 231.11743164 216.43041992 C233.25987175 217.55162291 235.40355057 218.66997387 237.55221558 219.77920532 C253.08922076 227.80566951 253.08922076 227.80566951 257.5 232.8125 C258.32421875 236.3359375 258.32421875 236.3359375 258.1875 240.1875 C258.16333008 240.8786792 258.13916016 241.5698584 258.11425781 242.28198242 C257.68845453 250.06344952 255.76731149 257.39078143 253.5 264.8125 C253.19964844 265.84632813 252.89929688 266.88015625 252.58984375 267.9453125 C247.64907363 283.30233823 234.37554847 292.62510633 220.79296875 300.21484375 C210.2850167 305.31300791 199.1851527 308.94446008 187.5 309.8125 C186.8395166 309.86164551 186.1790332 309.91079102 185.49853516 309.96142578 C138.53386137 312.95779989 81.62797249 280.01527231 46.5 250.8125 C45.4790625 249.9771875 44.458125 249.141875 43.40625 248.28125 C30.3276789 237.43555913 17.77588969 225.51276589 7.296875 212.109375 C5.62432971 209.97142581 3.8786366 207.95357825 2.0625 205.9375 C-11.47104124 190.568375 -22.58462732 173.08178158 -33.5 155.8125 C-33.90492676 155.1745752 -34.30985352 154.53665039 -34.72705078 153.87939453 C-53.46453689 124.17626447 -64.98193782 91.01572766 -57.4765625 55.71484375 C-54.18583186 41.83995151 -47.50036173 29.74627277 -38.5 18.8125 C-37.860625 17.94625 -37.22125 17.08 -36.5625 16.1875 C-26.18753022 4.2405651 -15.66950276 -0.79250366 0 0 Z " fill="#179C0D" transform="translate(240.5,169.1875)"/>
</svg>
